#usda 1.0
(
    defaultPrim = "bowl_15cm"
    metersPerUnit = 1
    upAxis = "Z"
)
def Xform "bowl_15cm"
{
    def Xform "Meshes" (
        prepend apiSchemas = ["PhysicsRigidBodyAPI"]
    )
    {
        def Mesh "visual"
        {
            int[] faceVertexCounts = [3, 3, 3, 3, 3, 3, 3, 3, 3, 3, 3, 3, 3, 3, 3, 3, 3, 3, 3, 3, 3, 3, 3, 3, 3, 3, 3, 3, 3, 3, 3, 3, 3, 3, 3, 3, 3, 3, 3, 3, 3, 3, 3, 3, 3, 3, 3, 3, 3, 3, 3, 3, 3, 3, 3, 3, 3, 3, 3, 3, 3, 3, 3, 3, 3, 3, 3, 3, 3, 3, 3, 3, 3, 3, 3, 3, 3, 3, 3, 3, 3, 3, 3, 3, 3, 3, 3, 3, 3, 3, 3, 3, 3, 3, 3, 3, 3, 3, 3, 3, 3, 3, 3, 3, 3, 3, 3, 3, 3, 3, 3, 3, 3, 3, 3, 3, 3, 3, 3, 3, 3, 3, 3, 3, 3, 3, 3, 3, 3, 3, 3, 3, 3, 3, 3, 3, 3, 3, 3, 3, 3, 3, 3, 3, 3, 3, 3, 3, 3, 3, 3, 3, 3, 3, 3, 3, 3, 3, 3, 3, 3, 3, 3, 3, 3, 3, 3, 3, 3, 3, 3, 3, 3, 3, 3, 3, 3, 3, 3, 3, 3, 3, 3, 3, 3, 3, 3, 3, 3, 3, 3, 3, 3, 3, 3, 3, 3, 3, 3, 3, 3, 3, 3, 3, 3, 3, 3, 3, 3, 3, 3, 3, 3, 3, 3, 3, 3, 3, 3, 3, 3, 3, 3, 3, 3, 3, 3, 3, 3, 3, 3, 3, 3, 3, 3, 3, 3, 3, 3, 3, 3, 3, 3, 3, 3, 3, 3, 3, 3, 3, 3, 3, 3, 3, 3, 3, 3, 3, 3, 3, 3, 3, 3, 3, 3, 3, 3, 3, 3, 3, 3, 3, 3, 3, 3, 3, 3, 3, 3, 3, 3, 3, 3, 3, 3, 3, 3, 3, 3, 3, 3, 3, 3, 3, 3, 3, 3, 3, 3, 3, 3, 3, 3, 3, 3, 3, 3, 3, 3, 3, 3, 3, 3, 3, 3, 3, 3, 3, 3, 3, 3, 3, 3, 3, 3, 3, 3, 3, 3, 3, 3, 3, 3, 3, 3, 3, 3, 3, 3, 3, 3, 3, 3, 3, 3, 3, 3, 3, 3, 3, 3, 3, 3, 3, 3, 3, 3, 3, 3, 3, 3, 3, 3, 3, 3, 3, 3, 3, 3, 3, 3, 3, 3, 3, 3, 3, 3, 3, 3, 3, 3, 3, 3, 3]
            int[] faceVertexIndices = [0, 2, 1, 0, 3, 2, 0, 4, 3, 0, 5, 4, 0, 6, 5, 0, 7, 6, 0, 8, 7, 0, 9, 8, 0, 10, 9, 0, 11, 10, 0, 12, 11, 0, 13, 12, 0, 14, 13, 0, 15, 14, 0, 16, 15, 0, 17, 16, 0, 18, 17, 0, 19, 18, 0, 20, 19, 0, 21, 20, 0, 22, 21, 0, 23, 22, 0, 24, 23, 0, 25, 24, 0, 26, 25, 0, 27, 26, 0, 28, 27, 0, 29, 28, 0, 30, 29, 0, 31, 30, 0, 32, 31, 0, 33, 32, 0, 34, 33, 0, 35, 34, 0, 36, 35, 0, 37, 36, 0, 38, 37, 0, 39, 38, 0, 40, 39, 0, 41, 40, 0, 42, 41, 0, 43, 42, 0, 44, 43, 0, 45, 44, 0, 46, 45, 0, 47, 46, 0, 48, 47, 0, 1, 48, 1, 2, 50, 1, 50, 49, 2, 3, 51, 2, 51, 50, 3, 4, 52, 3, 52, 51, 4, 5, 53, 4, 53, 52, 5, 6, 54, 5, 54, 53, 6, 7, 55, 6, 55, 54, 7, 8, 56, 7, 56, 55, 8, 9, 57, 8, 57, 56, 9, 10, 58, 9, 58, 57, 10, 11, 59, 10, 59, 58, 11, 12, 60, 11, 60, 59, 12, 13, 61, 12, 61, 60, 13, 14, 62, 13, 62, 61, 14, 15, 63, 14, 63, 62, 15, 16, 64, 15, 64, 63, 16, 17, 65, 16, 65, 64, 17, 18, 66, 17, 66, 65, 18, 19, 67, 18, 67, 66, 19, 20, 68, 19, 68, 67, 20, 21, 69, 20, 69, 68, 21, 22, 70, 21, 70, 69, 22, 23, 71, 22, 71, 70, 23, 24, 72, 23, 72, 71, 24, 25, 73, 24, 73, 72, 25, 26, 74, 25, 74, 73, 26, 27, 75, 26, 75, 74, 27, 28, 76, 27, 76, 75, 28, 29, 77, 28, 77, 76, 29, 30, 78, 29, 78, 77, 30, 31, 79, 30, 79, 78, 31, 32, 80, 31, 80, 79, 32, 33, 81, 32, 81, 80, 33, 34, 82, 33, 82, 81, 34, 35, 83, 34, 83, 82, 35, 36, 84, 35, 84, 83, 36, 37, 85, 36, 85, 84, 37, 38, 86, 37, 86, 85, 38, 39, 87, 38, 87, 86, 39, 40, 88, 39, 88, 87, 40, 41, 89, 40, 89, 88, 41, 42, 90, 41, 90, 89, 42, 43, 91, 42, 91, 90, 43, 44, 92, 43, 92, 91, 44, 45, 93, 44, 93, 92, 45, 46, 94, 45, 94, 93, 46, 47, 95, 46, 95, 94, 47, 48, 96, 47, 96, 95, 48, 1, 49, 48, 49, 96, 49, 50, 98, 49, 98, 97, 50, 51, 99, 50, 99, 98, 51, 52, 100, 51, 100, 99, 52, 53, 101, 52, 101, 100, 53, 54, 102, 53, 102, 101, 54, 55, 103, 54, 103, 102, 55, 56, 104, 55, 104, 103, 56, 57, 105, 56, 105, 104, 57, 58, 106, 57, 106, 105, 58, 59, 107, 58, 107, 106, 59, 60, 108, 59, 108, 107, 60, 61, 109, 60, 109, 108, 61, 62, 110, 61, 110, 109, 62, 63, 111, 62, 111, 110, 63, 64, 112, 63, 112, 111, 64, 65, 113, 64, 113, 112, 65, 66, 114, 65, 114, 113, 66, 67, 115, 66, 115, 114, 67, 68, 116, 67, 116, 115, 68, 69, 117, 68, 117, 116, 69, 70, 118, 69, 118, 117, 70, 71, 119, 70, 119, 118, 71, 72, 120, 71, 120, 119, 72, 73, 121, 72, 121, 120, 73, 74, 122, 73, 122, 121, 74, 75, 123, 74, 123, 122, 75, 76, 124, 75, 124, 123, 76, 77, 125, 76, 125, 124, 77, 78, 126, 77, 126, 125, 78, 79, 127, 78, 127, 126, 79, 80, 128, 79, 128, 127, 80, 81, 129, 80, 129, 128, 81, 82, 130, 81, 130, 129, 82, 83, 131, 82, 131, 130, 83, 84, 132, 83, 132, 131, 84, 85, 133, 84, 133, 132, 85, 86, 134, 85, 134, 133, 86, 87, 135, 86, 135, 134, 87, 88, 136, 87, 136, 135, 88, 89, 137, 88, 137, 136, 89, 90, 138, 89, 138, 137, 90, 91, 139, 90, 139, 138, 91, 92, 140, 91, 140, 139, 92, 93, 141, 92, 141, 140, 93, 94, 142, 93, 142, 141, 94, 95, 143, 94, 143, 142, 95, 96, 144, 95, 144, 143, 96, 49, 97, 96, 97, 144, 97, 98, 146, 97, 146, 145, 98, 99, 147, 98, 147, 146, 99, 100, 148, 99, 148, 147, 100, 101, 149, 100, 149, 148, 101, 102, 150, 101, 150, 149, 102, 103, 151, 102, 151, 150, 103, 104, 152, 103, 152, 151, 104, 105, 153, 104, 153, 152, 105, 106, 154, 105, 154, 153, 106, 107, 155, 106, 155, 154, 107, 108, 156, 107, 156, 155, 108, 109, 157, 108, 157, 156, 109, 110, 158, 109, 158, 157, 110, 111, 159, 110, 159, 158, 111, 112, 160, 111, 160, 159, 112, 113, 161, 112, 161, 160, 113, 114, 162, 113, 162, 161, 114, 115, 163, 114, 163, 162, 115, 116, 164, 115, 164, 163, 116, 117, 165, 116, 165, 164, 117, 118, 166, 117, 166, 165, 118, 119, 167, 118, 167, 166, 119, 120, 168, 119, 168, 167, 120, 121, 169, 120, 169, 168, 121, 122, 170, 121, 170, 169, 122, 123, 171, 122, 171, 170, 123, 124, 172, 123, 172, 171, 124, 125, 173, 124, 173, 172, 125, 126, 174, 125, 174, 173, 126, 127, 175, 126, 175, 174, 127, 128, 176, 127, 176, 175, 128, 129, 177, 128, 177, 176, 129, 130, 178, 129, 178, 177, 130, 131, 179, 130, 179, 178, 131, 132, 180, 131, 180, 179, 132, 133, 181, 132, 181, 180, 133, 134, 182, 133, 182, 181, 134, 135, 183, 134, 183, 182, 135, 136, 184, 135, 184, 183, 136, 137, 185, 136, 185, 184, 137, 138, 186, 137, 186, 185, 138, 139, 187, 138, 187, 186, 139, 140, 188, 139, 188, 187, 140, 141, 189, 140, 189, 188, 141, 142, 190, 141, 190, 189, 142, 143, 191, 142, 191, 190, 143, 144, 192, 143, 192, 191, 144, 97, 145, 144, 145, 192, 193, 145, 146, 193, 146, 147, 193, 147, 148, 193, 148, 149, 193, 149, 150, 193, 150, 151, 193, 151, 152, 193, 152, 153, 193, 153, 154, 193, 154, 155, 193, 155, 156, 193, 156, 157, 193, 157, 158, 193, 158, 159, 193, 159, 160, 193, 160, 161, 193, 161, 162, 193, 162, 163, 193, 163, 164, 193, 164, 165, 193, 165, 166, 193, 166, 167, 193, 167, 168, 193, 168, 169, 193, 169, 170, 193, 170, 171, 193, 171, 172, 193, 172, 173, 193, 173, 174, 193, 174, 175, 193, 175, 176, 193, 176, 177, 193, 177, 178, 193, 178, 179, 193, 179, 180, 193, 180, 181, 193, 181, 182, 193, 182, 183, 193, 183, 184, 193, 184, 185, 193, 185, 186, 193, 186, 187, 193, 187, 188, 193, 188, 189, 193, 189, 190, 193, 190, 191, 193, 191, 192, 193, 192, 145]
            point3f[] points = [(0.000000, 0.000000, 0.000000), (0.045000, 0.000000, 0.000000), (0.044615, 0.005874, 0.000000), (0.043467, 0.011647, 0.000000), (0.041575, 0.017221, 0.000000), (0.038971, 0.022500, 0.000000), (0.035701, 0.027394, 0.000000), (0.031820, 0.031820, 0.000000), (0.027394, 0.035701, 0.000000), (0.022500, 0.038971, 0.000000), (0.017221, 0.041575, 0.000000), (0.011647, 0.043467, 0.000000), (0.005874, 0.044615, 0.000000), (0.000000, 0.045000, 0.000000), (-0.005874, 0.044615, 0.000000), (-0.011647, 0.043467, 0.000000), (-0.017221, 0.041575, 0.000000), (-0.022500, 0.038971, 0.000000), (-0.027394, 0.035701, 0.000000), (-0.031820, 0.031820, 0.000000), (-0.035701, 0.027394, 0.000000), (-0.038971, 0.022500, 0.000000), (-0.041575, 0.017221, 0.000000), (-0.043467, 0.011647, 0.000000), (-0.044615, 0.005874, 0.000000), (-0.045000, 0.000000, 0.000000), (-0.044615, -0.005874, 0.000000), (-0.043467, -0.011647, 0.000000), (-0.041575, -0.017221, 0.000000), (-0.038971, -0.022500, 0.000000), (-0.035701, -0.027394, 0.000000), (-0.031820, -0.031820, 0.000000), (-0.027394, -0.035701, 0.000000), (-0.022500, -0.038971, 0.000000), (-0.017221, -0.041575, 0.000000), (-0.011647, -0.043467, 0.000000), (-0.005874, -0.044615, 0.000000), (-0.000000, -0.045000, 0.000000), (0.005874, -0.044615, 0.000000), (0.011647, -0.043467, 0.000000), (0.017221, -0.041575, 0.000000), (0.022500, -0.038971, 0.000000), (0.027394, -0.035701, 0.000000), (0.031820, -0.031820, 0.000000), (0.035701, -0.027394, 0.000000), (0.038971, -0.022500, 0.000000), (0.041575, -0.017221, 0.000000), (0.043467, -0.011647, 0.000000), (0.044615, -0.005874, 0.000000), (0.075000, 0.000000, 0.080000), (0.074358, 0.009789, 0.080000), (0.072444, 0.019411, 0.080000), (0.069291, 0.028701, 0.080000), (0.064952, 0.037500, 0.080000), (0.059502, 0.045657, 0.080000), (0.053033, 0.053033, 0.080000), (0.045657, 0.059502, 0.080000), (0.037500, 0.064952, 0.080000), (0.028701, 0.069291, 0.080000), (0.019411, 0.072444, 0.080000), (0.009789, 0.074358, 0.080000), (0.000000, 0.075000, 0.080000), (-0.009789, 0.074358, 0.080000), (-0.019411, 0.072444, 0.080000), (-0.028701, 0.069291, 0.080000), (-0.037500, 0.064952, 0.080000), (-0.045657, 0.059502, 0.080000), (-0.053033, 0.053033, 0.080000), (-0.059502, 0.045657, 0.080000), (-0.064952, 0.037500, 0.080000), (-0.069291, 0.028701, 0.080000), (-0.072444, 0.019411, 0.080000), (-0.074358, 0.009789, 0.080000), (-0.075000, 0.000000, 0.080000), (-0.074358, -0.009789, 0.080000), (-0.072444, -0.019411, 0.080000), (-0.069291, -0.028701, 0.080000), (-0.064952, -0.037500, 0.080000), (-0.059502, -0.045657, 0.080000), (-0.053033, -0.053033, 0.080000), (-0.045657, -0.059502, 0.080000), (-0.037500, -0.064952, 0.080000), (-0.028701, -0.069291, 0.080000), (-0.019411, -0.072444, 0.080000), (-0.009789, -0.074358, 0.080000), (-0.000000, -0.075000, 0.080000), (0.009789, -0.074358, 0.080000), (0.019411, -0.072444, 0.080000), (0.028701, -0.069291, 0.080000), (0.037500, -0.064952, 0.080000), (0.045657, -0.059502, 0.080000), (0.053033, -0.053033, 0.080000), (0.059502, -0.045657, 0.080000), (0.064952, -0.037500, 0.080000), (0.069291, -0.028701, 0.080000), (0.072444, -0.019411, 0.080000), (0.074358, -0.009789, 0.080000), (0.071000, 0.000000, 0.080000), (0.070393, 0.009267, 0.080000), (0.068581, 0.018376, 0.080000), (0.065595, 0.027171, 0.080000), (0.061488, 0.035500, 0.080000), (0.056328, 0.043222, 0.080000), (0.050205, 0.050205, 0.080000), (0.043222, 0.056328, 0.080000), (0.035500, 0.061488, 0.080000), (0.027171, 0.065595, 0.080000), (0.018376, 0.068581, 0.080000), (0.009267, 0.070393, 0.080000), (0.000000, 0.071000, 0.080000), (-0.009267, 0.070393, 0.080000), (-0.018376, 0.068581, 0.080000), (-0.027171, 0.065595, 0.080000), (-0.035500, 0.061488, 0.080000), (-0.043222, 0.056328, 0.080000), (-0.050205, 0.050205, 0.080000), (-0.056328, 0.043222, 0.080000), (-0.061488, 0.035500, 0.080000), (-0.065595, 0.027171, 0.080000), (-0.068581, 0.018376, 0.080000), (-0.070393, 0.009267, 0.080000), (-0.071000, 0.000000, 0.080000), (-0.070393, -0.009267, 0.080000), (-0.068581, -0.018376, 0.080000), (-0.065595, -0.027171, 0.080000), (-0.061488, -0.035500, 0.080000), (-0.056328, -0.043222, 0.080000), (-0.050205, -0.050205, 0.080000), (-0.043222, -0.056328, 0.080000), (-0.035500, -0.061488, 0.080000), (-0.027171, -0.065595, 0.080000), (-0.018376, -0.068581, 0.080000), (-0.009267, -0.070393, 0.080000), (-0.000000, -0.071000, 0.080000), (0.009267, -0.070393, 0.080000), (0.018376, -0.068581, 0.080000), (0.027171, -0.065595, 0.080000), (0.035500, -0.061488, 0.080000), (0.043222, -0.056328, 0.080000), (0.050205, -0.050205, 0.080000), (0.056328, -0.043222, 0.080000), (0.061488, -0.035500, 0.080000), (0.065595, -0.027171, 0.080000), (0.068581, -0.018376, 0.080000), (0.070393, -0.009267, 0.080000), (0.041000, 0.000000, 0.004000), (0.040649, 0.005352, 0.004000), (0.039603, 0.010612, 0.004000), (0.037879, 0.015690, 0.004000), (0.035507, 0.020500, 0.004000), (0.032527, 0.024959, 0.004000), (0.028991, 0.028991, 0.004000), (0.024959, 0.032527, 0.004000), (0.020500, 0.035507, 0.004000), (0.015690, 0.037879, 0.004000), (0.010612, 0.039603, 0.004000), (0.005352, 0.040649, 0.004000), (0.000000, 0.041000, 0.004000), (-0.005352, 0.040649, 0.004000), (-0.010612, 0.039603, 0.004000), (-0.015690, 0.037879, 0.004000), (-0.020500, 0.035507, 0.004000), (-0.024959, 0.032527, 0.004000), (-0.028991, 0.028991, 0.004000), (-0.032527, 0.024959, 0.004000), (-0.035507, 0.020500, 0.004000), (-0.037879, 0.015690, 0.004000), (-0.039603, 0.010612, 0.004000), (-0.040649, 0.005352, 0.004000), (-0.041000, 0.000000, 0.004000), (-0.040649, -0.005352, 0.004000), (-0.039603, -0.010612, 0.004000), (-0.037879, -0.015690, 0.004000), (-0.035507, -0.020500, 0.004000), (-0.032527, -0.024959, 0.004000), (-0.028991, -0.028991, 0.004000), (-0.024959, -0.032527, 0.004000), (-0.020500, -0.035507, 0.004000), (-0.015690, -0.037879, 0.004000), (-0.010612, -0.039603, 0.004000), (-0.005352, -0.040649, 0.004000), (-0.000000, -0.041000, 0.004000), (0.005352, -0.040649, 0.004000), (0.010612, -0.039603, 0.004000), (0.015690, -0.037879, 0.004000), (0.020500, -0.035507, 0.004000), (0.024959, -0.032527, 0.004000), (0.028991, -0.028991, 0.004000), (0.032527, -0.024959, 0.004000), (0.035507, -0.020500, 0.004000), (0.037879, -0.015690, 0.004000), (0.039603, -0.010612, 0.004000), (0.040649, -0.005352, 0.004000), (0.000000, 0.000000, 0.004000)]
            color3f[] primvars:displayColor = [(0.45, 0.85, 0.12)]
            uniform token subdivisionScheme = "none"
        }
        def Mesh "collision" (
            prepend apiSchemas = ["PhysicsCollisionAPI", "PhysicsMeshCollisionAPI"]
        )
        {
            int[] faceVertexCounts = [3, 3, 3, 3, 3, 3, 3, 3, 3, 3, 3, 3, 3, 3, 3, 3, 3, 3, 3, 3, 3, 3, 3, 3, 3, 3, 3, 3, 3, 3, 3, 3, 3, 3, 3, 3, 3, 3, 3, 3, 3, 3, 3, 3, 3, 3, 3, 3, 3, 3, 3, 3, 3, 3, 3, 3, 3, 3, 3, 3, 3, 3, 3, 3, 3, 3, 3, 3, 3, 3, 3, 3, 3, 3, 3, 3, 3, 3, 3, 3, 3, 3, 3, 3, 3, 3, 3, 3, 3, 3, 3, 3, 3, 3, 3, 3, 3, 3, 3, 3, 3, 3, 3, 3, 3, 3, 3, 3, 3, 3, 3, 3, 3, 3, 3, 3, 3, 3, 3, 3, 3, 3, 3, 3, 3, 3, 3, 3, 3, 3, 3, 3, 3, 3, 3, 3, 3, 3, 3, 3, 3, 3, 3, 3, 3, 3, 3, 3, 3, 3, 3, 3, 3, 3, 3, 3, 3, 3, 3, 3, 3, 3, 3, 3, 3, 3, 3, 3, 3, 3, 3, 3, 3, 3, 3, 3, 3, 3, 3, 3, 3, 3, 3, 3, 3, 3, 3, 3, 3, 3, 3, 3, 3, 3, 3, 3, 3, 3, 3, 3, 3, 3, 3, 3, 3, 3, 3, 3, 3, 3, 3, 3, 3, 3, 3, 3, 3, 3, 3, 3, 3, 3, 3, 3, 3, 3, 3, 3, 3, 3, 3, 3, 3, 3, 3, 3, 3, 3, 3, 3, 3, 3, 3, 3, 3, 3, 3, 3, 3, 3, 3, 3, 3, 3, 3, 3, 3, 3, 3, 3, 3, 3, 3, 3, 3, 3, 3, 3, 3, 3, 3, 3, 3, 3, 3, 3, 3, 3, 3, 3, 3, 3, 3, 3, 3, 3, 3, 3, 3, 3, 3, 3, 3, 3, 3, 3, 3, 3, 3, 3, 3, 3, 3, 3, 3, 3, 3, 3, 3, 3, 3, 3, 3, 3, 3, 3, 3, 3, 3, 3, 3, 3, 3, 3, 3, 3, 3, 3, 3, 3, 3, 3, 3, 3, 3, 3, 3, 3, 3, 3, 3, 3, 3, 3, 3, 3, 3, 3, 3, 3, 3, 3, 3, 3, 3, 3, 3, 3, 3, 3, 3, 3, 3, 3, 3, 3, 3, 3, 3, 3, 3, 3, 3, 3, 3, 3, 3, 3, 3, 3, 3, 3, 3, 3]
            int[] faceVertexIndices = [0, 2, 1, 0, 3, 2, 0, 4, 3, 0, 5, 4, 0, 6, 5, 0, 7, 6, 0, 8, 7, 0, 9, 8, 0, 10, 9, 0, 11, 10, 0, 12, 11, 0, 13, 12, 0, 14, 13, 0, 15, 14, 0, 16, 15, 0, 17, 16, 0, 18, 17, 0, 19, 18, 0, 20, 19, 0, 21, 20, 0, 22, 21, 0, 23, 22, 0, 24, 23, 0, 25, 24, 0, 26, 25, 0, 27, 26, 0, 28, 27, 0, 29, 28, 0, 30, 29, 0, 31, 30, 0, 32, 31, 0, 33, 32, 0, 34, 33, 0, 35, 34, 0, 36, 35, 0, 37, 36, 0, 38, 37, 0, 39, 38, 0, 40, 39, 0, 41, 40, 0, 42, 41, 0, 43, 42, 0, 44, 43, 0, 45, 44, 0, 46, 45, 0, 47, 46, 0, 48, 47, 0, 1, 48, 1, 2, 50, 1, 50, 49, 2, 3, 51, 2, 51, 50, 3, 4, 52, 3, 52, 51, 4, 5, 53, 4, 53, 52, 5, 6, 54, 5, 54, 53, 6, 7, 55, 6, 55, 54, 7, 8, 56, 7, 56, 55, 8, 9, 57, 8, 57, 56, 9, 10, 58, 9, 58, 57, 10, 11, 59, 10, 59, 58, 11, 12, 60, 11, 60, 59, 12, 13, 61, 12, 61, 60, 13, 14, 62, 13, 62, 61, 14, 15, 63, 14, 63, 62, 15, 16, 64, 15, 64, 63, 16, 17, 65, 16, 65, 64, 17, 18, 66, 17, 66, 65, 18, 19, 67, 18, 67, 66, 19, 20, 68, 19, 68, 67, 20, 21, 69, 20, 69, 68, 21, 22, 70, 21, 70, 69, 22, 23, 71, 22, 71, 70, 23, 24, 72, 23, 72, 71, 24, 25, 73, 24, 73, 72, 25, 26, 74, 25, 74, 73, 26, 27, 75, 26, 75, 74, 27, 28, 76, 27, 76, 75, 28, 29, 77, 28, 77, 76, 29, 30, 78, 29, 78, 77, 30, 31, 79, 30, 79, 78, 31, 32, 80, 31, 80, 79, 32, 33, 81, 32, 81, 80, 33, 34, 82, 33, 82, 81, 34, 35, 83, 34, 83, 82, 35, 36, 84, 35, 84, 83, 36, 37, 85, 36, 85, 84, 37, 38, 86, 37, 86, 85, 38, 39, 87, 38, 87, 86, 39, 40, 88, 39, 88, 87, 40, 41, 89, 40, 89, 88, 41, 42, 90, 41, 90, 89, 42, 43, 91, 42, 91, 90, 43, 44, 92, 43, 92, 91, 44, 45, 93, 44, 93, 92, 45, 46, 94, 45, 94, 93, 46, 47, 95, 46, 95, 94, 47, 48, 96, 47, 96, 95, 48, 1, 49, 48, 49, 96, 49, 50, 98, 49, 98, 97, 50, 51, 99, 50, 99, 98, 51, 52, 100, 51, 100, 99, 52, 53, 101, 52, 101, 100, 53, 54, 102, 53, 102, 101, 54, 55, 103, 54, 103, 102, 55, 56, 104, 55, 104, 103, 56, 57, 105, 56, 105, 104, 57, 58, 106, 57, 106, 105, 58, 59, 107, 58, 107, 106, 59, 60, 108, 59, 108, 107, 60, 61, 109, 60, 109, 108, 61, 62, 110, 61, 110, 109, 62, 63, 111, 62, 111, 110, 63, 64, 112, 63, 112, 111, 64, 65, 113, 64, 113, 112, 65, 66, 114, 65, 114, 113, 66, 67, 115, 66, 115, 114, 67, 68, 116, 67, 116, 115, 68, 69, 117, 68, 117, 116, 69, 70, 118, 69, 118, 117, 70, 71, 119, 70, 119, 118, 71, 72, 120, 71, 120, 119, 72, 73, 121, 72, 121, 120, 73, 74, 122, 73, 122, 121, 74, 75, 123, 74, 123, 122, 75, 76, 124, 75, 124, 123, 76, 77, 125, 76, 125, 124, 77, 78, 126, 77, 126, 125, 78, 79, 127, 78, 127, 126, 79, 80, 128, 79, 128, 127, 80, 81, 129, 80, 129, 128, 81, 82, 130, 81, 130, 129, 82, 83, 131, 82, 131, 130, 83, 84, 132, 83, 132, 131, 84, 85, 133, 84, 133, 132, 85, 86, 134, 85, 134, 133, 86, 87, 135, 86, 135, 134, 87, 88, 136, 87, 136, 135, 88, 89, 137, 88, 137, 136, 89, 90, 138, 89, 138, 137, 90, 91, 139, 90, 139, 138, 91, 92, 140, 91, 140, 139, 92, 93, 141, 92, 141, 140, 93, 94, 142, 93, 142, 141, 94, 95, 143, 94, 143, 142, 95, 96, 144, 95, 144, 143, 96, 49, 97, 96, 97, 144, 97, 98, 146, 97, 146, 145, 98, 99, 147, 98, 147, 146, 99, 100, 148, 99, 148, 147, 100, 101, 149, 100, 149, 148, 101, 102, 150, 101, 150, 149, 102, 103, 151, 102, 151, 150, 103, 104, 152, 103, 152, 151, 104, 105, 153, 104, 153, 152, 105, 106, 154, 105, 154, 153, 106, 107, 155, 106, 155, 154, 107, 108, 156, 107, 156, 155, 108, 109, 157, 108, 157, 156, 109, 110, 158, 109, 158, 157, 110, 111, 159, 110, 159, 158, 111, 112, 160, 111, 160, 159, 112, 113, 161, 112, 161, 160, 113, 114, 162, 113, 162, 161, 114, 115, 163, 114, 163, 162, 115, 116, 164, 115, 164, 163, 116, 117, 165, 116, 165, 164, 117, 118, 166, 117, 166, 165, 118, 119, 167, 118, 167, 166, 119, 120, 168, 119, 168, 167, 120, 121, 169, 120, 169, 168, 121, 122, 170, 121, 170, 169, 122, 123, 171, 122, 171, 170, 123, 124, 172, 123, 172, 171, 124, 125, 173, 124, 173, 172, 125, 126, 174, 125, 174, 173, 126, 127, 175, 126, 175, 174, 127, 128, 176, 127, 176, 175, 128, 129, 177, 128, 177, 176, 129, 130, 178, 129, 178, 177, 130, 131, 179, 130, 179, 178, 131, 132, 180, 131, 180, 179, 132, 133, 181, 132, 181, 180, 133, 134, 182, 133, 182, 181, 134, 135, 183, 134, 183, 182, 135, 136, 184, 135, 184, 183, 136, 137, 185, 136, 185, 184, 137, 138, 186, 137, 186, 185, 138, 139, 187, 138, 187, 186, 139, 140, 188, 139, 188, 187, 140, 141, 189, 140, 189, 188, 141, 142, 190, 141, 190, 189, 142, 143, 191, 142, 191, 190, 143, 144, 192, 143, 192, 191, 144, 97, 145, 144, 145, 192, 193, 145, 146, 193, 146, 147, 193, 147, 148, 193, 148, 149, 193, 149, 150, 193, 150, 151, 193, 151, 152, 193, 152, 153, 193, 153, 154, 193, 154, 155, 193, 155, 156, 193, 156, 157, 193, 157, 158, 193, 158, 159, 193, 159, 160, 193, 160, 161, 193, 161, 162, 193, 162, 163, 193, 163, 164, 193, 164, 165, 193, 165, 166, 193, 166, 167, 193, 167, 168, 193, 168, 169, 193, 169, 170, 193, 170, 171, 193, 171, 172, 193, 172, 173, 193, 173, 174, 193, 174, 175, 193, 175, 176, 193, 176, 177, 193, 177, 178, 193, 178, 179, 193, 179, 180, 193, 180, 181, 193, 181, 182, 193, 182, 183, 193, 183, 184, 193, 184, 185, 193, 185, 186, 193, 186, 187, 193, 187, 188, 193, 188, 189, 193, 189, 190, 193, 190, 191, 193, 191, 192, 193, 192, 145]
            point3f[] points = [(0.000000, 0.000000, 0.000000), (0.045000, 0.000000, 0.000000), (0.044615, 0.005874, 0.000000), (0.043467, 0.011647, 0.000000), (0.041575, 0.017221, 0.000000), (0.038971, 0.022500, 0.000000), (0.035701, 0.027394, 0.000000), (0.031820, 0.031820, 0.000000), (0.027394, 0.035701, 0.000000), (0.022500, 0.038971, 0.000000), (0.017221, 0.041575, 0.000000), (0.011647, 0.043467, 0.000000), (0.005874, 0.044615, 0.000000), (0.000000, 0.045000, 0.000000), (-0.005874, 0.044615, 0.000000), (-0.011647, 0.043467, 0.000000), (-0.017221, 0.041575, 0.000000), (-0.022500, 0.038971, 0.000000), (-0.027394, 0.035701, 0.000000), (-0.031820, 0.031820, 0.000000), (-0.035701, 0.027394, 0.000000), (-0.038971, 0.022500, 0.000000), (-0.041575, 0.017221, 0.000000), (-0.043467, 0.011647, 0.000000), (-0.044615, 0.005874, 0.000000), (-0.045000, 0.000000, 0.000000), (-0.044615, -0.005874, 0.000000), (-0.043467, -0.011647, 0.000000), (-0.041575, -0.017221, 0.000000), (-0.038971, -0.022500, 0.000000), (-0.035701, -0.027394, 0.000000), (-0.031820, -0.031820, 0.000000), (-0.027394, -0.035701, 0.000000), (-0.022500, -0.038971, 0.000000), (-0.017221, -0.041575, 0.000000), (-0.011647, -0.043467, 0.000000), (-0.005874, -0.044615, 0.000000), (-0.000000, -0.045000, 0.000000), (0.005874, -0.044615, 0.000000), (0.011647, -0.043467, 0.000000), (0.017221, -0.041575, 0.000000), (0.022500, -0.038971, 0.000000), (0.027394, -0.035701, 0.000000), (0.031820, -0.031820, 0.000000), (0.035701, -0.027394, 0.000000), (0.038971, -0.022500, 0.000000), (0.041575, -0.017221, 0.000000), (0.043467, -0.011647, 0.000000), (0.044615, -0.005874, 0.000000), (0.075000, 0.000000, 0.080000), (0.074358, 0.009789, 0.080000), (0.072444, 0.019411, 0.080000), (0.069291, 0.028701, 0.080000), (0.064952, 0.037500, 0.080000), (0.059502, 0.045657, 0.080000), (0.053033, 0.053033, 0.080000), (0.045657, 0.059502, 0.080000), (0.037500, 0.064952, 0.080000), (0.028701, 0.069291, 0.080000), (0.019411, 0.072444, 0.080000), (0.009789, 0.074358, 0.080000), (0.000000, 0.075000, 0.080000), (-0.009789, 0.074358, 0.080000), (-0.019411, 0.072444, 0.080000), (-0.028701, 0.069291, 0.080000), (-0.037500, 0.064952, 0.080000), (-0.045657, 0.059502, 0.080000), (-0.053033, 0.053033, 0.080000), (-0.059502, 0.045657, 0.080000), (-0.064952, 0.037500, 0.080000), (-0.069291, 0.028701, 0.080000), (-0.072444, 0.019411, 0.080000), (-0.074358, 0.009789, 0.080000), (-0.075000, 0.000000, 0.080000), (-0.074358, -0.009789, 0.080000), (-0.072444, -0.019411, 0.080000), (-0.069291, -0.028701, 0.080000), (-0.064952, -0.037500, 0.080000), (-0.059502, -0.045657, 0.080000), (-0.053033, -0.053033, 0.080000), (-0.045657, -0.059502, 0.080000), (-0.037500, -0.064952, 0.080000), (-0.028701, -0.069291, 0.080000), (-0.019411, -0.072444, 0.080000), (-0.009789, -0.074358, 0.080000), (-0.000000, -0.075000, 0.080000), (0.009789, -0.074358, 0.080000), (0.019411, -0.072444, 0.080000), (0.028701, -0.069291, 0.080000), (0.037500, -0.064952, 0.080000), (0.045657, -0.059502, 0.080000), (0.053033, -0.053033, 0.080000), (0.059502, -0.045657, 0.080000), (0.064952, -0.037500, 0.080000), (0.069291, -0.028701, 0.080000), (0.072444, -0.019411, 0.080000), (0.074358, -0.009789, 0.080000), (0.071000, 0.000000, 0.080000), (0.070393, 0.009267, 0.080000), (0.068581, 0.018376, 0.080000), (0.065595, 0.027171, 0.080000), (0.061488, 0.035500, 0.080000), (0.056328, 0.043222, 0.080000), (0.050205, 0.050205, 0.080000), (0.043222, 0.056328, 0.080000), (0.035500, 0.061488, 0.080000), (0.027171, 0.065595, 0.080000), (0.018376, 0.068581, 0.080000), (0.009267, 0.070393, 0.080000), (0.000000, 0.071000, 0.080000), (-0.009267, 0.070393, 0.080000), (-0.018376, 0.068581, 0.080000), (-0.027171, 0.065595, 0.080000), (-0.035500, 0.061488, 0.080000), (-0.043222, 0.056328, 0.080000), (-0.050205, 0.050205, 0.080000), (-0.056328, 0.043222, 0.080000), (-0.061488, 0.035500, 0.080000), (-0.065595, 0.027171, 0.080000), (-0.068581, 0.018376, 0.080000), (-0.070393, 0.009267, 0.080000), (-0.071000, 0.000000, 0.080000), (-0.070393, -0.009267, 0.080000), (-0.068581, -0.018376, 0.080000), (-0.065595, -0.027171, 0.080000), (-0.061488, -0.035500, 0.080000), (-0.056328, -0.043222, 0.080000), (-0.050205, -0.050205, 0.080000), (-0.043222, -0.056328, 0.080000), (-0.035500, -0.061488, 0.080000), (-0.027171, -0.065595, 0.080000), (-0.018376, -0.068581, 0.080000), (-0.009267, -0.070393, 0.080000), (-0.000000, -0.071000, 0.080000), (0.009267, -0.070393, 0.080000), (0.018376, -0.068581, 0.080000), (0.027171, -0.065595, 0.080000), (0.035500, -0.061488, 0.080000), (0.043222, -0.056328, 0.080000), (0.050205, -0.050205, 0.080000), (0.056328, -0.043222, 0.080000), (0.061488, -0.035500, 0.080000), (0.065595, -0.027171, 0.080000), (0.068581, -0.018376, 0.080000), (0.070393, -0.009267, 0.080000), (0.041000, 0.000000, 0.004000), (0.040649, 0.005352, 0.004000), (0.039603, 0.010612, 0.004000), (0.037879, 0.015690, 0.004000), (0.035507, 0.020500, 0.004000), (0.032527, 0.024959, 0.004000), (0.028991, 0.028991, 0.004000), (0.024959, 0.032527, 0.004000), (0.020500, 0.035507, 0.004000), (0.015690, 0.037879, 0.004000), (0.010612, 0.039603, 0.004000), (0.005352, 0.040649, 0.004000), (0.000000, 0.041000, 0.004000), (-0.005352, 0.040649, 0.004000), (-0.010612, 0.039603, 0.004000), (-0.015690, 0.037879, 0.004000), (-0.020500, 0.035507, 0.004000), (-0.024959, 0.032527, 0.004000), (-0.028991, 0.028991, 0.004000), (-0.032527, 0.024959, 0.004000), (-0.035507, 0.020500, 0.004000), (-0.037879, 0.015690, 0.004000), (-0.039603, 0.010612, 0.004000), (-0.040649, 0.005352, 0.004000), (-0.041000, 0.000000, 0.004000), (-0.040649, -0.005352, 0.004000), (-0.039603, -0.010612, 0.004000), (-0.037879, -0.015690, 0.004000), (-0.035507, -0.020500, 0.004000), (-0.032527, -0.024959, 0.004000), (-0.028991, -0.028991, 0.004000), (-0.024959, -0.032527, 0.004000), (-0.020500, -0.035507, 0.004000), (-0.015690, -0.037879, 0.004000), (-0.010612, -0.039603, 0.004000), (-0.005352, -0.040649, 0.004000), (-0.000000, -0.041000, 0.004000), (0.005352, -0.040649, 0.004000), (0.010612, -0.039603, 0.004000), (0.015690, -0.037879, 0.004000), (0.020500, -0.035507, 0.004000), (0.024959, -0.032527, 0.004000), (0.028991, -0.028991, 0.004000), (0.032527, -0.024959, 0.004000), (0.035507, -0.020500, 0.004000), (0.037879, -0.015690, 0.004000), (0.039603, -0.010612, 0.004000), (0.040649, -0.005352, 0.004000), (0.000000, 0.000000, 0.004000)]
            uniform token physics:approximation = "convexHull"
            uniform token purpose = "guide"
            uniform token subdivisionScheme = "none"
        }
    }
    def Scope "Looks"
    {
    }
}
