#usda 1.0
(
    defaultPrim = "trash_bin"
    metersPerUnit = 1
    upAxis = "Z"
)
def Xform "trash_bin"
{
    def Xform "Meshes" (
        prepend apiSchemas = ["PhysicsRigidBodyAPI"]
    )
    {
        def Mesh "visual"
        {
            int[] faceVertexCounts = [3, 3, 3, 3, 3, 3, 3, 3, 3, 3, 3, 3, 3, 3, 3, 3, 3, 3, 3, 3, 3, 3, 3, 3, 3, 3, 3, 3, 3, 3, 3, 3, 3, 3, 3, 3, 3, 3, 3, 3, 3, 3, 3, 3, 3, 3, 3, 3, 3, 3, 3, 3, 3, 3, 3, 3, 3, 3, 3, 3, 3, 3, 3, 3, 3, 3, 3, 3, 3, 3, 3, 3, 3, 3, 3, 3, 3, 3, 3, 3, 3, 3, 3, 3, 3, 3, 3, 3, 3, 3, 3, 3, 3, 3, 3, 3, 3, 3, 3, 3, 3, 3, 3, 3, 3, 3, 3, 3, 3, 3, 3, 3, 3, 3, 3, 3, 3, 3, 3, 3, 3, 3, 3, 3, 3, 3, 3, 3, 3, 3, 3, 3, 3, 3, 3, 3, 3, 3, 3, 3, 3, 3, 3, 3, 3, 3, 3, 3, 3, 3, 3, 3, 3, 3, 3, 3, 3, 3, 3, 3, 3, 3, 3, 3, 3, 3, 3, 3, 3, 3, 3, 3, 3, 3, 3, 3, 3, 3, 3, 3, 3, 3, 3, 3, 3, 3, 3, 3, 3, 3, 3, 3, 3, 3, 3, 3, 3, 3, 3, 3, 3, 3, 3, 3, 3, 3, 3, 3, 3, 3, 3, 3, 3, 3, 3, 3, 3, 3, 3, 3, 3, 3, 3, 3, 3, 3, 3, 3, 3, 3, 3, 3, 3, 3, 3, 3, 3, 3, 3, 3, 3, 3, 3, 3, 3, 3, 3, 3, 3, 3, 3, 3, 3, 3, 3, 3, 3, 3, 3, 3, 3, 3, 3, 3, 3, 3, 3, 3, 3, 3, 3, 3, 3, 3, 3, 3, 3, 3, 3, 3, 3, 3, 3, 3, 3, 3, 3, 3]
            int[] faceVertexIndices = [0, 1, 37, 0, 37, 36, 108, 73, 109, 108, 72, 73, 36, 37, 73, 36, 73, 72, 144, 1, 0, 145, 108, 109, 1, 2, 38, 1, 38, 37, 109, 74, 110, 109, 73, 74, 37, 38, 74, 37, 74, 73, 144, 2, 1, 145, 109, 110, 2, 3, 39, 2, 39, 38, 110, 75, 111, 110, 74, 75, 38, 39, 75, 38, 75, 74, 144, 3, 2, 145, 110, 111, 3, 4, 40, 3, 40, 39, 111, 76, 112, 111, 75, 76, 39, 40, 76, 39, 76, 75, 144, 4, 3, 145, 111, 112, 4, 5, 41, 4, 41, 40, 112, 77, 113, 112, 76, 77, 40, 41, 77, 40, 77, 76, 144, 5, 4, 145, 112, 113, 5, 6, 42, 5, 42, 41, 113, 78, 114, 113, 77, 78, 41, 42, 78, 41, 78, 77, 144, 6, 5, 145, 113, 114, 6, 7, 43, 6, 43, 42, 114, 79, 115, 114, 78, 79, 42, 43, 79, 42, 79, 78, 144, 7, 6, 145, 114, 115, 7, 8, 44, 7, 44, 43, 115, 80, 116, 115, 79, 80, 43, 44, 80, 43, 80, 79, 144, 8, 7, 145, 115, 116, 8, 9, 45, 8, 45, 44, 116, 81, 117, 116, 80, 81, 44, 45, 81, 44, 81, 80, 144, 9, 8, 145, 116, 117, 9, 10, 46, 9, 46, 45, 117, 82, 118, 117, 81, 82, 45, 46, 82, 45, 82, 81, 144, 10, 9, 145, 117, 118, 10, 11, 47, 10, 47, 46, 118, 83, 119, 118, 82, 83, 46, 47, 83, 46, 83, 82, 144, 11, 10, 145, 118, 119, 11, 12, 48, 11, 48, 47, 119, 84, 120, 119, 83, 84, 47, 48, 84, 47, 84, 83, 144, 12, 11, 145, 119, 120, 12, 13, 49, 12, 49, 48, 120, 85, 121, 120, 84, 85, 48, 49, 85, 48, 85, 84, 144, 13, 12, 145, 120, 121, 13, 14, 50, 13, 50, 49, 121, 86, 122, 121, 85, 86, 49, 50, 86, 49, 86, 85, 144, 14, 13, 145, 121, 122, 14, 15, 51, 14, 51, 50, 122, 87, 123, 122, 86, 87, 50, 51, 87, 50, 87, 86, 144, 15, 14, 145, 122, 123, 15, 16, 52, 15, 52, 51, 123, 88, 124, 123, 87, 88, 51, 52, 88, 51, 88, 87, 144, 16, 15, 145, 123, 124, 16, 17, 53, 16, 53, 52, 124, 89, 125, 124, 88, 89, 52, 53, 89, 52, 89, 88, 144, 17, 16, 145, 124, 125, 17, 18, 54, 17, 54, 53, 125, 90, 126, 125, 89, 90, 53, 54, 90, 53, 90, 89, 144, 18, 17, 145, 125, 126, 18, 19, 55, 18, 55, 54, 126, 91, 127, 126, 90, 91, 54, 55, 91, 54, 91, 90, 144, 19, 18, 145, 126, 127, 19, 20, 56, 19, 56, 55, 127, 92, 128, 127, 91, 92, 55, 56, 92, 55, 92, 91, 144, 20, 19, 145, 127, 128, 20, 21, 57, 20, 57, 56, 128, 93, 129, 128, 92, 93, 56, 57, 93, 56, 93, 92, 144, 21, 20, 145, 128, 129, 21, 22, 58, 21, 58, 57, 129, 94, 130, 129, 93, 94, 57, 58, 94, 57, 94, 93, 144, 22, 21, 145, 129, 130, 22, 23, 59, 22, 59, 58, 130, 95, 131, 130, 94, 95, 58, 59, 95, 58, 95, 94, 144, 23, 22, 145, 130, 131, 23, 24, 60, 23, 60, 59, 131, 96, 132, 131, 95, 96, 59, 60, 96, 59, 96, 95, 144, 24, 23, 145, 131, 132, 24, 25, 61, 24, 61, 60, 132, 97, 133, 132, 96, 97, 60, 61, 97, 60, 97, 96, 144, 25, 24, 145, 132, 133, 25, 26, 62, 25, 62, 61, 133, 98, 134, 133, 97, 98, 61, 62, 98, 61, 98, 97, 144, 26, 25, 145, 133, 134, 26, 27, 63, 26, 63, 62, 134, 99, 135, 134, 98, 99, 62, 63, 99, 62, 99, 98, 144, 27, 26, 145, 134, 135, 27, 28, 64, 27, 64, 63, 135, 100, 136, 135, 99, 100, 63, 64, 100, 63, 100, 99, 144, 28, 27, 145, 135, 136, 28, 29, 65, 28, 65, 64, 136, 101, 137, 136, 100, 101, 64, 65, 101, 64, 101, 100, 144, 29, 28, 145, 136, 137, 29, 30, 66, 29, 66, 65, 137, 102, 138, 137, 101, 102, 65, 66, 102, 65, 102, 101, 144, 30, 29, 145, 137, 138, 30, 31, 67, 30, 67, 66, 138, 103, 139, 138, 102, 103, 66, 67, 103, 66, 103, 102, 144, 31, 30, 145, 138, 139, 31, 32, 68, 31, 68, 67, 139, 104, 140, 139, 103, 104, 67, 68, 104, 67, 104, 103, 144, 32, 31, 145, 139, 140, 32, 33, 69, 32, 69, 68, 140, 105, 141, 140, 104, 105, 68, 69, 105, 68, 105, 104, 144, 33, 32, 145, 140, 141, 33, 34, 70, 33, 70, 69, 141, 106, 142, 141, 105, 106, 69, 70, 106, 69, 106, 105, 144, 34, 33, 145, 141, 142, 34, 35, 71, 34, 71, 70, 142, 107, 143, 142, 106, 107, 70, 71, 107, 70, 107, 106, 144, 35, 34, 145, 142, 143, 35, 0, 36, 35, 36, 71, 143, 72, 108, 143, 107, 72, 71, 36, 72, 71, 72, 107, 144, 0, 35, 145, 143, 108]
            point3f[] points = [(0.120000, 0.140000, 0.000000), (0.119231, 0.147804, 0.000000), (0.116955, 0.155307, 0.000000), (0.113259, 0.162223, 0.000000), (0.108284, 0.168284, 0.000000), (0.102223, 0.173259, 0.000000), (0.095307, 0.176955, 0.000000), (0.087804, 0.179231, 0.000000), (0.080000, 0.180000, 0.000000), (-0.080000, 0.180000, 0.000000), (-0.087804, 0.179231, 0.000000), (-0.095307, 0.176955, 0.000000), (-0.102223, 0.173259, 0.000000), (-0.108284, 0.168284, 0.000000), (-0.113259, 0.162223, 0.000000), (-0.116955, 0.155307, 0.000000), (-0.119231, 0.147804, 0.000000), (-0.120000, 0.140000, 0.000000), (-0.120000, -0.140000, 0.000000), (-0.119231, -0.147804, 0.000000), (-0.116955, -0.155307, 0.000000), (-0.113259, -0.162223, 0.000000), (-0.108284, -0.168284, 0.000000), (-0.102223, -0.173259, 0.000000), (-0.095307, -0.176955, 0.000000), (-0.087804, -0.179231, 0.000000), (-0.080000, -0.180000, 0.000000), (0.080000, -0.180000, 0.000000), (0.087804, -0.179231, 0.000000), (0.095307, -0.176955, 0.000000), (0.102223, -0.173259, 0.000000), (0.108284, -0.168284, 0.000000), (0.113259, -0.162223, 0.000000), (0.116955, -0.155307, 0.000000), (0.119231, -0.147804, 0.000000), (0.120000, -0.140000, 0.000000), (0.120000, 0.140000, 0.390000), (0.119231, 0.147804, 0.390000), (0.116955, 0.155307, 0.390000), (0.113259, 0.162223, 0.390000), (0.108284, 0.168284, 0.390000), (0.102223, 0.173259, 0.390000), (0.095307, 0.176955, 0.390000), (0.087804, 0.179231, 0.390000), (0.080000, 0.180000, 0.390000), (-0.080000, 0.180000, 0.390000), (-0.087804, 0.179231, 0.390000), (-0.095307, 0.176955, 0.390000), (-0.102223, 0.173259, 0.390000), (-0.108284, 0.168284, 0.390000), (-0.113259, 0.162223, 0.390000), (-0.116955, 0.155307, 0.390000), (-0.119231, 0.147804, 0.390000), (-0.120000, 0.140000, 0.390000), (-0.120000, -0.140000, 0.390000), (-0.119231, -0.147804, 0.390000), (-0.116955, -0.155307, 0.390000), (-0.113259, -0.162223, 0.390000), (-0.108284, -0.168284, 0.390000), (-0.102223, -0.173259, 0.390000), (-0.095307, -0.176955, 0.390000), (-0.087804, -0.179231, 0.390000), (-0.080000, -0.180000, 0.390000), (0.080000, -0.180000, 0.390000), (0.087804, -0.179231, 0.390000), (0.095307, -0.176955, 0.390000), (0.102223, -0.173259, 0.390000), (0.108284, -0.168284, 0.390000), (0.113259, -0.162223, 0.390000), (0.116955, -0.155307, 0.390000), (0.119231, -0.147804, 0.390000), (0.120000, -0.140000, 0.390000), (0.112000, 0.140000, 0.390000), (0.111385, 0.146243, 0.390000), (0.109564, 0.152246, 0.390000), (0.106607, 0.157778, 0.390000), (0.102627, 0.162627, 0.390000), (0.097778, 0.166607, 0.390000), (0.092246, 0.169564, 0.390000), (0.086243, 0.171385, 0.390000), (0.080000, 0.172000, 0.390000), (-0.080000, 0.172000, 0.390000), (-0.086243, 0.171385, 0.390000), (-0.092246, 0.169564, 0.390000), (-0.097778, 0.166607, 0.390000), (-0.102627, 0.162627, 0.390000), (-0.106607, 0.157778, 0.390000), (-0.109564, 0.152246, 0.390000), (-0.111385, 0.146243, 0.390000), (-0.112000, 0.140000, 0.390000), (-0.112000, -0.140000, 0.390000), (-0.111385, -0.146243, 0.390000), (-0.109564, -0.152246, 0.390000), (-0.106607, -0.157778, 0.390000), (-0.102627, -0.162627, 0.390000), (-0.097778, -0.166607, 0.390000), (-0.092246, -0.169564, 0.390000), (-0.086243, -0.171385, 0.390000), (-0.080000, -0.172000, 0.390000), (0.080000, -0.172000, 0.390000), (0.086243, -0.171385, 0.390000), (0.092246, -0.169564, 0.390000), (0.097778, -0.166607, 0.390000), (0.102627, -0.162627, 0.390000), (0.106607, -0.157778, 0.390000), (0.109564, -0.152246, 0.390000), (0.111385, -0.146243, 0.390000), (0.112000, -0.140000, 0.390000), (0.112000, 0.140000, 0.008000), (0.111385, 0.146243, 0.008000), (0.109564, 0.152246, 0.008000), (0.106607, 0.157778, 0.008000), (0.102627, 0.162627, 0.008000), (0.097778, 0.166607, 0.008000), (0.092246, 0.169564, 0.008000), (0.086243, 0.171385, 0.008000), (0.080000, 0.172000, 0.008000), (-0.080000, 0.172000, 0.008000), (-0.086243, 0.171385, 0.008000), (-0.092246, 0.169564, 0.008000), (-0.097778, 0.166607, 0.008000), (-0.102627, 0.162627, 0.008000), (-0.106607, 0.157778, 0.008000), (-0.109564, 0.152246, 0.008000), (-0.111385, 0.146243, 0.008000), (-0.112000, 0.140000, 0.008000), (-0.112000, -0.140000, 0.008000), (-0.111385, -0.146243, 0.008000), (-0.109564, -0.152246, 0.008000), (-0.106607, -0.157778, 0.008000), (-0.102627, -0.162627, 0.008000), (-0.097778, -0.166607, 0.008000), (-0.092246, -0.169564, 0.008000), (-0.086243, -0.171385, 0.008000), (-0.080000, -0.172000, 0.008000), (0.080000, -0.172000, 0.008000), (0.086243, -0.171385, 0.008000), (0.092246, -0.169564, 0.008000), (0.097778, -0.166607, 0.008000), (0.102627, -0.162627, 0.008000), (0.106607, -0.157778, 0.008000), (0.109564, -0.152246, 0.008000), (0.111385, -0.146243, 0.008000), (0.112000, -0.140000, 0.008000), (0.000000, 0.000000, 0.000000), (0.000000, 0.000000, 0.008000)]
            color3f[] primvars:displayColor = [(0.06, 0.06, 0.06)]
            uniform token subdivisionScheme = "none"
        }
        def Mesh "collision" (
            prepend apiSchemas = ["PhysicsCollisionAPI", "PhysicsMeshCollisionAPI"]
        )
        {
            int[] faceVertexCounts = [3, 3, 3, 3, 3, 3, 3, 3, 3, 3, 3, 3, 3, 3, 3, 3, 3, 3, 3, 3, 3, 3, 3, 3, 3, 3, 3, 3, 3, 3, 3, 3, 3, 3, 3, 3, 3, 3, 3, 3, 3, 3, 3, 3, 3, 3, 3, 3, 3, 3, 3, 3, 3, 3, 3, 3, 3, 3, 3, 3, 3, 3, 3, 3, 3, 3, 3, 3, 3, 3, 3, 3, 3, 3, 3, 3, 3, 3, 3, 3, 3, 3, 3, 3, 3, 3, 3, 3, 3, 3, 3, 3, 3, 3, 3, 3, 3, 3, 3, 3, 3, 3, 3, 3, 3, 3, 3, 3, 3, 3, 3, 3, 3, 3, 3, 3, 3, 3, 3, 3, 3, 3, 3, 3, 3, 3, 3, 3, 3, 3, 3, 3, 3, 3, 3, 3, 3, 3, 3, 3, 3, 3, 3, 3, 3, 3, 3, 3, 3, 3, 3, 3, 3, 3, 3, 3, 3, 3, 3, 3, 3, 3, 3, 3, 3, 3, 3, 3, 3, 3, 3, 3, 3, 3, 3, 3, 3, 3, 3, 3, 3, 3, 3, 3, 3, 3, 3, 3, 3, 3, 3, 3, 3, 3, 3, 3, 3, 3, 3, 3, 3, 3, 3, 3, 3, 3, 3, 3, 3, 3, 3, 3, 3, 3, 3, 3, 3, 3, 3, 3, 3, 3, 3, 3, 3, 3, 3, 3, 3, 3, 3, 3, 3, 3, 3, 3, 3, 3, 3, 3, 3, 3, 3, 3, 3, 3, 3, 3, 3, 3, 3, 3, 3, 3, 3, 3, 3, 3, 3, 3, 3, 3, 3, 3, 3, 3, 3, 3, 3, 3, 3, 3, 3, 3, 3, 3, 3, 3, 3, 3, 3, 3, 3, 3, 3, 3, 3, 3]
            int[] faceVertexIndices = [0, 1, 37, 0, 37, 36, 108, 73, 109, 108, 72, 73, 36, 37, 73, 36, 73, 72, 144, 1, 0, 145, 108, 109, 1, 2, 38, 1, 38, 37, 109, 74, 110, 109, 73, 74, 37, 38, 74, 37, 74, 73, 144, 2, 1, 145, 109, 110, 2, 3, 39, 2, 39, 38, 110, 75, 111, 110, 74, 75, 38, 39, 75, 38, 75, 74, 144, 3, 2, 145, 110, 111, 3, 4, 40, 3, 40, 39, 111, 76, 112, 111, 75, 76, 39, 40, 76, 39, 76, 75, 144, 4, 3, 145, 111, 112, 4, 5, 41, 4, 41, 40, 112, 77, 113, 112, 76, 77, 40, 41, 77, 40, 77, 76, 144, 5, 4, 145, 112, 113, 5, 6, 42, 5, 42, 41, 113, 78, 114, 113, 77, 78, 41, 42, 78, 41, 78, 77, 144, 6, 5, 145, 113, 114, 6, 7, 43, 6, 43, 42, 114, 79, 115, 114, 78, 79, 42, 43, 79, 42, 79, 78, 144, 7, 6, 145, 114, 115, 7, 8, 44, 7, 44, 43, 115, 80, 116, 115, 79, 80, 43, 44, 80, 43, 80, 79, 144, 8, 7, 145, 115, 116, 8, 9, 45, 8, 45, 44, 116, 81, 117, 116, 80, 81, 44, 45, 81, 44, 81, 80, 144, 9, 8, 145, 116, 117, 9, 10, 46, 9, 46, 45, 117, 82, 118, 117, 81, 82, 45, 46, 82, 45, 82, 81, 144, 10, 9, 145, 117, 118, 10, 11, 47, 10, 47, 46, 118, 83, 119, 118, 82, 83, 46, 47, 83, 46, 83, 82, 144, 11, 10, 145, 118, 119, 11, 12, 48, 11, 48, 47, 119, 84, 120, 119, 83, 84, 47, 48, 84, 47, 84, 83, 144, 12, 11, 145, 119, 120, 12, 13, 49, 12, 49, 48, 120, 85, 121, 120, 84, 85, 48, 49, 85, 48, 85, 84, 144, 13, 12, 145, 120, 121, 13, 14, 50, 13, 50, 49, 121, 86, 122, 121, 85, 86, 49, 50, 86, 49, 86, 85, 144, 14, 13, 145, 121, 122, 14, 15, 51, 14, 51, 50, 122, 87, 123, 122, 86, 87, 50, 51, 87, 50, 87, 86, 144, 15, 14, 145, 122, 123, 15, 16, 52, 15, 52, 51, 123, 88, 124, 123, 87, 88, 51, 52, 88, 51, 88, 87, 144, 16, 15, 145, 123, 124, 16, 17, 53, 16, 53, 52, 124, 89, 125, 124, 88, 89, 52, 53, 89, 52, 89, 88, 144, 17, 16, 145, 124, 125, 17, 18, 54, 17, 54, 53, 125, 90, 126, 125, 89, 90, 53, 54, 90, 53, 90, 89, 144, 18, 17, 145, 125, 126, 18, 19, 55, 18, 55, 54, 126, 91, 127, 126, 90, 91, 54, 55, 91, 54, 91, 90, 144, 19, 18, 145, 126, 127, 19, 20, 56, 19, 56, 55, 127, 92, 128, 127, 91, 92, 55, 56, 92, 55, 92, 91, 144, 20, 19, 145, 127, 128, 20, 21, 57, 20, 57, 56, 128, 93, 129, 128, 92, 93, 56, 57, 93, 56, 93, 92, 144, 21, 20, 145, 128, 129, 21, 22, 58, 21, 58, 57, 129, 94, 130, 129, 93, 94, 57, 58, 94, 57, 94, 93, 144, 22, 21, 145, 129, 130, 22, 23, 59, 22, 59, 58, 130, 95, 131, 130, 94, 95, 58, 59, 95, 58, 95, 94, 144, 23, 22, 145, 130, 131, 23, 24, 60, 23, 60, 59, 131, 96, 132, 131, 95, 96, 59, 60, 96, 59, 96, 95, 144, 24, 23, 145, 131, 132, 24, 25, 61, 24, 61, 60, 132, 97, 133, 132, 96, 97, 60, 61, 97, 60, 97, 96, 144, 25, 24, 145, 132, 133, 25, 26, 62, 25, 62, 61, 133, 98, 134, 133, 97, 98, 61, 62, 98, 61, 98, 97, 144, 26, 25, 145, 133, 134, 26, 27, 63, 26, 63, 62, 134, 99, 135, 134, 98, 99, 62, 63, 99, 62, 99, 98, 144, 27, 26, 145, 134, 135, 27, 28, 64, 27, 64, 63, 135, 100, 136, 135, 99, 100, 63, 64, 100, 63, 100, 99, 144, 28, 27, 145, 135, 136, 28, 29, 65, 28, 65, 64, 136, 101, 137, 136, 100, 101, 64, 65, 101, 64, 101, 100, 144, 29, 28, 145, 136, 137, 29, 30, 66, 29, 66, 65, 137, 102, 138, 137, 101, 102, 65, 66, 102, 65, 102, 101, 144, 30, 29, 145, 137, 138, 30, 31, 67, 30, 67, 66, 138, 103, 139, 138, 102, 103, 66, 67, 103, 66, 103, 102, 144, 31, 30, 145, 138, 139, 31, 32, 68, 31, 68, 67, 139, 104, 140, 139, 103, 104, 67, 68, 104, 67, 104, 103, 144, 32, 31, 145, 139, 140, 32, 33, 69, 32, 69, 68, 140, 105, 141, 140, 104, 105, 68, 69, 105, 68, 105, 104, 144, 33, 32, 145, 140, 141, 33, 34, 70, 33, 70, 69, 141, 106, 142, 141, 105, 106, 69, 70, 106, 69, 106, 105, 144, 34, 33, 145, 141, 142, 34, 35, 71, 34, 71, 70, 142, 107, 143, 142, 106, 107, 70, 71, 107, 70, 107, 106, 144, 35, 34, 145, 142, 143, 35, 0, 36, 35, 36, 71, 143, 72, 108, 143, 107, 72, 71, 36, 72, 71, 72, 107, 144, 0, 35, 145, 143, 108]
            point3f[] points = [(0.120000, 0.140000, 0.000000), (0.119231, 0.147804, 0.000000), (0.116955, 0.155307, 0.000000), (0.113259, 0.162223, 0.000000), (0.108284, 0.168284, 0.000000), (0.102223, 0.173259, 0.000000), (0.095307, 0.176955, 0.000000), (0.087804, 0.179231, 0.000000), (0.080000, 0.180000, 0.000000), (-0.080000, 0.180000, 0.000000), (-0.087804, 0.179231, 0.000000), (-0.095307, 0.176955, 0.000000), (-0.102223, 0.173259, 0.000000), (-0.108284, 0.168284, 0.000000), (-0.113259, 0.162223, 0.000000), (-0.116955, 0.155307, 0.000000), (-0.119231, 0.147804, 0.000000), (-0.120000, 0.140000, 0.000000), (-0.120000, -0.140000, 0.000000), (-0.119231, -0.147804, 0.000000), (-0.116955, -0.155307, 0.000000), (-0.113259, -0.162223, 0.000000), (-0.108284, -0.168284, 0.000000), (-0.102223, -0.173259, 0.000000), (-0.095307, -0.176955, 0.000000), (-0.087804, -0.179231, 0.000000), (-0.080000, -0.180000, 0.000000), (0.080000, -0.180000, 0.000000), (0.087804, -0.179231, 0.000000), (0.095307, -0.176955, 0.000000), (0.102223, -0.173259, 0.000000), (0.108284, -0.168284, 0.000000), (0.113259, -0.162223, 0.000000), (0.116955, -0.155307, 0.000000), (0.119231, -0.147804, 0.000000), (0.120000, -0.140000, 0.000000), (0.120000, 0.140000, 0.390000), (0.119231, 0.147804, 0.390000), (0.116955, 0.155307, 0.390000), (0.113259, 0.162223, 0.390000), (0.108284, 0.168284, 0.390000), (0.102223, 0.173259, 0.390000), (0.095307, 0.176955, 0.390000), (0.087804, 0.179231, 0.390000), (0.080000, 0.180000, 0.390000), (-0.080000, 0.180000, 0.390000), (-0.087804, 0.179231, 0.390000), (-0.095307, 0.176955, 0.390000), (-0.102223, 0.173259, 0.390000), (-0.108284, 0.168284, 0.390000), (-0.113259, 0.162223, 0.390000), (-0.116955, 0.155307, 0.390000), (-0.119231, 0.147804, 0.390000), (-0.120000, 0.140000, 0.390000), (-0.120000, -0.140000, 0.390000), (-0.119231, -0.147804, 0.390000), (-0.116955, -0.155307, 0.390000), (-0.113259, -0.162223, 0.390000), (-0.108284, -0.168284, 0.390000), (-0.102223, -0.173259, 0.390000), (-0.095307, -0.176955, 0.390000), (-0.087804, -0.179231, 0.390000), (-0.080000, -0.180000, 0.390000), (0.080000, -0.180000, 0.390000), (0.087804, -0.179231, 0.390000), (0.095307, -0.176955, 0.390000), (0.102223, -0.173259, 0.390000), (0.108284, -0.168284, 0.390000), (0.113259, -0.162223, 0.390000), (0.116955, -0.155307, 0.390000), (0.119231, -0.147804, 0.390000), (0.120000, -0.140000, 0.390000), (0.112000, 0.140000, 0.390000), (0.111385, 0.146243, 0.390000), (0.109564, 0.152246, 0.390000), (0.106607, 0.157778, 0.390000), (0.102627, 0.162627, 0.390000), (0.097778, 0.166607, 0.390000), (0.092246, 0.169564, 0.390000), (0.086243, 0.171385, 0.390000), (0.080000, 0.172000, 0.390000), (-0.080000, 0.172000, 0.390000), (-0.086243, 0.171385, 0.390000), (-0.092246, 0.169564, 0.390000), (-0.097778, 0.166607, 0.390000), (-0.102627, 0.162627, 0.390000), (-0.106607, 0.157778, 0.390000), (-0.109564, 0.152246, 0.390000), (-0.111385, 0.146243, 0.390000), (-0.112000, 0.140000, 0.390000), (-0.112000, -0.140000, 0.390000), (-0.111385, -0.146243, 0.390000), (-0.109564, -0.152246, 0.390000), (-0.106607, -0.157778, 0.390000), (-0.102627, -0.162627, 0.390000), (-0.097778, -0.166607, 0.390000), (-0.092246, -0.169564, 0.390000), (-0.086243, -0.171385, 0.390000), (-0.080000, -0.172000, 0.390000), (0.080000, -0.172000, 0.390000), (0.086243, -0.171385, 0.390000), (0.092246, -0.169564, 0.390000), (0.097778, -0.166607, 0.390000), (0.102627, -0.162627, 0.390000), (0.106607, -0.157778, 0.390000), (0.109564, -0.152246, 0.390000), (0.111385, -0.146243, 0.390000), (0.112000, -0.140000, 0.390000), (0.112000, 0.140000, 0.008000), (0.111385, 0.146243, 0.008000), (0.109564, 0.152246, 0.008000), (0.106607, 0.157778, 0.008000), (0.102627, 0.162627, 0.008000), (0.097778, 0.166607, 0.008000), (0.092246, 0.169564, 0.008000), (0.086243, 0.171385, 0.008000), (0.080000, 0.172000, 0.008000), (-0.080000, 0.172000, 0.008000), (-0.086243, 0.171385, 0.008000), (-0.092246, 0.169564, 0.008000), (-0.097778, 0.166607, 0.008000), (-0.102627, 0.162627, 0.008000), (-0.106607, 0.157778, 0.008000), (-0.109564, 0.152246, 0.008000), (-0.111385, 0.146243, 0.008000), (-0.112000, 0.140000, 0.008000), (-0.112000, -0.140000, 0.008000), (-0.111385, -0.146243, 0.008000), (-0.109564, -0.152246, 0.008000), (-0.106607, -0.157778, 0.008000), (-0.102627, -0.162627, 0.008000), (-0.097778, -0.166607, 0.008000), (-0.092246, -0.169564, 0.008000), (-0.086243, -0.171385, 0.008000), (-0.080000, -0.172000, 0.008000), (0.080000, -0.172000, 0.008000), (0.086243, -0.171385, 0.008000), (0.092246, -0.169564, 0.008000), (0.097778, -0.166607, 0.008000), (0.102627, -0.162627, 0.008000), (0.106607, -0.157778, 0.008000), (0.109564, -0.152246, 0.008000), (0.111385, -0.146243, 0.008000), (0.112000, -0.140000, 0.008000), (0.000000, 0.000000, 0.000000), (0.000000, 0.000000, 0.008000)]
            uniform token physics:approximation = "convexHull"
            uniform token purpose = "guide"
            uniform token subdivisionScheme = "none"
        }
    }
    def Scope "Looks"
    {
    }
}
