#usda 1.0
(
    defaultPrim = "bottle_500ml"
    metersPerUnit = 1
    upAxis = "Z"
)
def Xform "bottle_500ml"
{
    def Xform "Meshes" (
        prepend apiSchemas = ["PhysicsRigidBodyAPI"]
    )
    {
        def Mesh "visual"
        {
            int[] faceVertexCounts = [3, 3, 3, 3, 3, 3, 3, 3, 3, 3, 3, 3, 3, 3, 3, 3, 3, 3, 3, 3, 3, 3, 3, 3, 3, 3, 3, 3, 3, 3, 3, 3, 3, 3, 3, 3, 3, 3, 3, 3, 3, 3, 3, 3, 3, 3, 3, 3, 3, 3, 3, 3, 3, 3, 3, 3, 3, 3, 3, 3, 3, 3, 3, 3, 3, 3, 3, 3, 3, 3, 3, 3, 3, 3, 3, 3, 3, 3, 3, 3, 3, 3, 3, 3, 3, 3, 3, 3, 3, 3, 3, 3, 3, 3, 3, 3, 3, 3, 3, 3, 3, 3, 3, 3, 3, 3, 3, 3, 3, 3, 3, 3, 3, 3, 3, 3, 3, 3, 3, 3, 3, 3, 3, 3, 3, 3, 3, 3, 3, 3, 3, 3, 3, 3, 3, 3, 3, 3, 3, 3, 3, 3, 3, 3, 3, 3, 3, 3, 3, 3, 3, 3, 3, 3, 3, 3, 3, 3, 3, 3, 3, 3, 3, 3, 3, 3, 3, 3, 3, 3, 3, 3, 3, 3, 3, 3, 3, 3, 3, 3, 3, 3, 3, 3, 3, 3, 3, 3, 3, 3, 3, 3, 3, 3, 3, 3, 3, 3, 3, 3, 3, 3, 3, 3, 3, 3, 3, 3, 3, 3, 3, 3, 3, 3, 3, 3, 3, 3, 3, 3, 3, 3, 3, 3, 3, 3, 3, 3, 3, 3, 3, 3, 3, 3, 3, 3, 3, 3, 3, 3, 3, 3, 3, 3, 3, 3, 3, 3, 3, 3, 3, 3, 3, 3, 3, 3, 3, 3, 3, 3, 3, 3, 3, 3, 3, 3, 3, 3, 3, 3, 3, 3, 3, 3, 3, 3, 3, 3, 3, 3, 3, 3, 3, 3, 3, 3, 3, 3, 3, 3, 3, 3, 3, 3, 3, 3, 3, 3, 3, 3, 3, 3, 3, 3, 3, 3, 3, 3, 3, 3, 3, 3, 3, 3, 3, 3, 3, 3, 3, 3, 3, 3, 3, 3, 3, 3, 3, 3, 3, 3, 3, 3, 3, 3, 3, 3, 3, 3, 3, 3, 3, 3, 3, 3, 3, 3, 3, 3, 3, 3, 3, 3, 3, 3, 3, 3, 3, 3, 3, 3, 3, 3, 3, 3, 3, 3, 3, 3, 3, 3, 3, 3, 3, 3, 3, 3, 3, 3, 3, 3, 3, 3, 3, 3, 3, 3, 3, 3, 3, 3, 3, 3, 3, 3, 3, 3, 3, 3, 3, 3, 3, 3, 3, 3, 3, 3, 3, 3, 3, 3, 3, 3, 3, 3, 3, 3, 3, 3, 3, 3, 3, 3, 3, 3, 3, 3, 3, 3, 3, 3, 3, 3, 3, 3, 3, 3, 3, 3, 3, 3, 3, 3, 3, 3, 3, 3, 3, 3, 3, 3, 3, 3, 3, 3, 3, 3, 3, 3, 3, 3, 3, 3, 3, 3, 3, 3, 3, 3, 3, 3, 3, 3, 3, 3, 3, 3, 3, 3, 3, 3, 3, 3, 3, 3, 3, 3, 3, 3, 3, 3, 3, 3, 3, 3, 3, 3, 3, 3, 3, 3, 3, 3, 3, 3, 3, 3, 3, 3, 3, 3, 3, 3, 3, 3, 3, 3, 3, 3, 3, 3, 3, 3, 3, 3, 3, 3, 3, 3, 3, 3, 3, 3, 3, 3, 3, 3, 3, 3, 3, 3, 3, 3, 3, 3, 3, 3, 3, 3, 3, 3, 3, 3, 3, 3, 3, 3, 3, 3, 3, 3, 3, 3, 3, 3, 3, 3, 3, 3, 3, 3, 3, 3, 3, 3, 3, 3, 3, 3, 3, 3, 3, 3, 3, 3, 3, 3, 3, 3, 3, 3, 3, 3, 3, 3, 3, 3, 3, 3, 3, 3, 3, 3, 3, 3, 3, 3, 3, 3, 3, 3, 3, 3, 3, 3, 3, 3, 3, 3, 3, 3, 3, 3, 3, 3, 3, 3, 3, 3, 3, 3, 3, 3, 3, 3, 3, 3, 3, 3, 3, 3, 3, 3, 3, 3, 3, 3, 3, 3, 3, 3, 3, 3, 3, 3, 3, 3, 3, 3, 3, 3, 3, 3, 3, 3, 3, 3, 3, 3, 3, 3, 3, 3, 3, 3, 3, 3, 3, 3, 3, 3, 3, 3, 3, 3, 3, 3, 3, 3, 3, 3, 3, 3, 3, 3, 3, 3, 3, 3, 3, 3, 3, 3, 3, 3, 3, 3, 3, 3, 3, 3, 3, 3, 3, 3, 3, 3, 3, 3, 3, 3, 3, 3, 3, 3, 3, 3, 3, 3, 3, 3, 3, 3, 3, 3, 3, 3, 3, 3, 3, 3, 3, 3, 3, 3, 3, 3, 3, 3, 3, 3, 3, 3, 3, 3, 3, 3, 3, 3, 3, 3, 3, 3, 3, 3, 3, 3, 3, 3, 3, 3, 3, 3, 3, 3, 3, 3, 3, 3, 3, 3, 3, 3, 3, 3, 3, 3, 3, 3, 3, 3, 3, 3, 3, 3, 3, 3, 3, 3, 3, 3, 3, 3, 3, 3, 3, 3, 3, 3, 3, 3, 3, 3, 3, 3, 3, 3, 3, 3, 3, 3, 3, 3, 3, 3, 3, 3, 3, 3, 3, 3, 3, 3, 3, 3, 3, 3, 3, 3, 3, 3, 3, 3, 3, 3, 3, 3, 3, 3, 3, 3, 3, 3, 3, 3, 3, 3, 3, 3, 3, 3, 3, 3, 3, 3, 3, 3, 3, 3, 3, 3, 3, 3, 3, 3, 3, 3, 3, 3, 3, 3, 3, 3, 3, 3, 3, 3, 3, 3, 3, 3, 3, 3, 3, 3, 3, 3, 3, 3, 3, 3, 3, 3, 3, 3, 3, 3, 3, 3, 3, 3, 3, 3, 3, 3, 3, 3, 3, 3, 3, 3, 3, 3, 3, 3, 3, 3, 3, 3, 3, 3, 3, 3, 3, 3, 3, 3, 3, 3, 3, 3, 3, 3, 3, 3, 3, 3, 3, 3, 3, 3, 3, 3, 3, 3, 3, 3, 3, 3, 3, 3, 3, 3, 3, 3, 3, 3, 3, 3, 3, 3, 3, 3, 3, 3, 3, 3, 3, 3, 3, 3, 3, 3, 3, 3, 3, 3, 3, 3, 3, 3, 3, 3, 3, 3, 3, 3, 3, 3, 3, 3, 3, 3, 3, 3, 3, 3, 3, 3, 3, 3, 3, 3, 3, 3, 3, 3, 3, 3, 3, 3, 3, 3, 3, 3, 3, 3, 3, 3, 3, 3, 3, 3, 3, 3, 3, 3, 3, 3, 3, 3, 3, 3, 3, 3, 3, 3, 3, 3, 3, 3, 3, 3, 3, 3, 3, 3, 3, 3, 3, 3, 3, 3, 3, 3, 3, 3, 3, 3, 3, 3, 3, 3, 3, 3, 3, 3, 3, 3, 3, 3, 3, 3, 3, 3, 3, 3, 3, 3, 3, 3, 3, 3, 3, 3, 3, 3, 3, 3, 3, 3, 3, 3, 3, 3, 3, 3, 3, 3, 3, 3, 3, 3, 3, 3, 3, 3, 3, 3, 3, 3, 3, 3, 3, 3, 3, 3, 3, 3, 3, 3, 3, 3, 3, 3, 3, 3, 3, 3, 3, 3, 3, 3, 3, 3, 3, 3, 3, 3, 3, 3, 3, 3, 3, 3, 3, 3, 3, 3, 3, 3, 3, 3, 3, 3, 3, 3, 3, 3, 3, 3, 3, 3, 3, 3, 3, 3, 3, 3, 3, 3, 3, 3, 3, 3, 3, 3, 3, 3, 3, 3, 3, 3, 3, 3, 3, 3, 3, 3, 3, 3, 3, 3, 3, 3, 3, 3, 3, 3, 3, 3, 3, 3, 3, 3, 3, 3, 3, 3, 3, 3, 3, 3, 3, 3, 3, 3, 3, 3, 3, 3, 3, 3, 3, 3, 3, 3, 3, 3, 3, 3, 3, 3, 3, 3, 3, 3, 3, 3]
            int[] faceVertexIndices = [0, 2, 1, 0, 3, 2, 0, 4, 3, 0, 5, 4, 0, 6, 5, 0, 7, 6, 0, 8, 7, 0, 9, 8, 0, 10, 9, 0, 11, 10, 0, 12, 11, 0, 13, 12, 0, 14, 13, 0, 15, 14, 0, 16, 15, 0, 17, 16, 0, 18, 17, 0, 19, 18, 0, 20, 19, 0, 21, 20, 0, 22, 21, 0, 23, 22, 0, 24, 23, 0, 25, 24, 0, 26, 25, 0, 27, 26, 0, 28, 27, 0, 29, 28, 0, 30, 29, 0, 31, 30, 0, 32, 31, 0, 33, 32, 0, 34, 33, 0, 35, 34, 0, 36, 35, 0, 37, 36, 0, 38, 37, 0, 39, 38, 0, 40, 39, 0, 41, 40, 0, 42, 41, 0, 43, 42, 0, 44, 43, 0, 45, 44, 0, 46, 45, 0, 47, 46, 0, 48, 47, 0, 1, 48, 1, 2, 50, 1, 50, 49, 2, 3, 51, 2, 51, 50, 3, 4, 52, 3, 52, 51, 4, 5, 53, 4, 53, 52, 5, 6, 54, 5, 54, 53, 6, 7, 55, 6, 55, 54, 7, 8, 56, 7, 56, 55, 8, 9, 57, 8, 57, 56, 9, 10, 58, 9, 58, 57, 10, 11, 59, 10, 59, 58, 11, 12, 60, 11, 60, 59, 12, 13, 61, 12, 61, 60, 13, 14, 62, 13, 62, 61, 14, 15, 63, 14, 63, 62, 15, 16, 64, 15, 64, 63, 16, 17, 65, 16, 65, 64, 17, 18, 66, 17, 66, 65, 18, 19, 67, 18, 67, 66, 19, 20, 68, 19, 68, 67, 20, 21, 69, 20, 69, 68, 21, 22, 70, 21, 70, 69, 22, 23, 71, 22, 71, 70, 23, 24, 72, 23, 72, 71, 24, 25, 73, 24, 73, 72, 25, 26, 74, 25, 74, 73, 26, 27, 75, 26, 75, 74, 27, 28, 76, 27, 76, 75, 28, 29, 77, 28, 77, 76, 29, 30, 78, 29, 78, 77, 30, 31, 79, 30, 79, 78, 31, 32, 80, 31, 80, 79, 32, 33, 81, 32, 81, 80, 33, 34, 82, 33, 82, 81, 34, 35, 83, 34, 83, 82, 35, 36, 84, 35, 84, 83, 36, 37, 85, 36, 85, 84, 37, 38, 86, 37, 86, 85, 38, 39, 87, 38, 87, 86, 39, 40, 88, 39, 88, 87, 40, 41, 89, 40, 89, 88, 41, 42, 90, 41, 90, 89, 42, 43, 91, 42, 91, 90, 43, 44, 92, 43, 92, 91, 44, 45, 93, 44, 93, 92, 45, 46, 94, 45, 94, 93, 46, 47, 95, 46, 95, 94, 47, 48, 96, 47, 96, 95, 48, 1, 49, 48, 49, 96, 49, 50, 98, 49, 98, 97, 50, 51, 99, 50, 99, 98, 51, 52, 100, 51, 100, 99, 52, 53, 101, 52, 101, 100, 53, 54, 102, 53, 102, 101, 54, 55, 103, 54, 103, 102, 55, 56, 104, 55, 104, 103, 56, 57, 105, 56, 105, 104, 57, 58, 106, 57, 106, 105, 58, 59, 107, 58, 107, 106, 59, 60, 108, 59, 108, 107, 60, 61, 109, 60, 109, 108, 61, 62, 110, 61, 110, 109, 62, 63, 111, 62, 111, 110, 63, 64, 112, 63, 112, 111, 64, 65, 113, 64, 113, 112, 65, 66, 114, 65, 114, 113, 66, 67, 115, 66, 115, 114, 67, 68, 116, 67, 116, 115, 68, 69, 117, 68, 117, 116, 69, 70, 118, 69, 118, 117, 70, 71, 119, 70, 119, 118, 71, 72, 120, 71, 120, 119, 72, 73, 121, 72, 121, 120, 73, 74, 122, 73, 122, 121, 74, 75, 123, 74, 123, 122, 75, 76, 124, 75, 124, 123, 76, 77, 125, 76, 125, 124, 77, 78, 126, 77, 126, 125, 78, 79, 127, 78, 127, 126, 79, 80, 128, 79, 128, 127, 80, 81, 129, 80, 129, 128, 81, 82, 130, 81, 130, 129, 82, 83, 131, 82, 131, 130, 83, 84, 132, 83, 132, 131, 84, 85, 133, 84, 133, 132, 85, 86, 134, 85, 134, 133, 86, 87, 135, 86, 135, 134, 87, 88, 136, 87, 136, 135, 88, 89, 137, 88, 137, 136, 89, 90, 138, 89, 138, 137, 90, 91, 139, 90, 139, 138, 91, 92, 140, 91, 140, 139, 92, 93, 141, 92, 141, 140, 93, 94, 142, 93, 142, 141, 94, 95, 143, 94, 143, 142, 95, 96, 144, 95, 144, 143, 96, 49, 97, 96, 97, 144, 97, 98, 146, 97, 146, 145, 98, 99, 147, 98, 147, 146, 99, 100, 148, 99, 148, 147, 100, 101, 149, 100, 149, 148, 101, 102, 150, 101, 150, 149, 102, 103, 151, 102, 151, 150, 103, 104, 152, 103, 152, 151, 104, 105, 153, 104, 153, 152, 105, 106, 154, 105, 154, 153, 106, 107, 155, 106, 155, 154, 107, 108, 156, 107, 156, 155, 108, 109, 157, 108, 157, 156, 109, 110, 158, 109, 158, 157, 110, 111, 159, 110, 159, 158, 111, 112, 160, 111, 160, 159, 112, 113, 161, 112, 161, 160, 113, 114, 162, 113, 162, 161, 114, 115, 163, 114, 163, 162, 115, 116, 164, 115, 164, 163, 116, 117, 165, 116, 165, 164, 117, 118, 166, 117, 166, 165, 118, 119, 167, 118, 167, 166, 119, 120, 168, 119, 168, 167, 120, 121, 169, 120, 169, 168, 121, 122, 170, 121, 170, 169, 122, 123, 171, 122, 171, 170, 123, 124, 172, 123, 172, 171, 124, 125, 173, 124, 173, 172, 125, 126, 174, 125, 174, 173, 126, 127, 175, 126, 175, 174, 127, 128, 176, 127, 176, 175, 128, 129, 177, 128, 177, 176, 129, 130, 178, 129, 178, 177, 130, 131, 179, 130, 179, 178, 131, 132, 180, 131, 180, 179, 132, 133, 181, 132, 181, 180, 133, 134, 182, 133, 182, 181, 134, 135, 183, 134, 183, 182, 135, 136, 184, 135, 184, 183, 136, 137, 185, 136, 185, 184, 137, 138, 186, 137, 186, 185, 138, 139, 187, 138, 187, 186, 139, 140, 188, 139, 188, 187, 140, 141, 189, 140, 189, 188, 141, 142, 190, 141, 190, 189, 142, 143, 191, 142, 191, 190, 143, 144, 192, 143, 192, 191, 144, 97, 145, 144, 145, 192, 145, 146, 194, 145, 194, 193, 146, 147, 195, 146, 195, 194, 147, 148, 196, 147, 196, 195, 148, 149, 197, 148, 197, 196, 149, 150, 198, 149, 198, 197, 150, 151, 199, 150, 199, 198, 151, 152, 200, 151, 200, 199, 152, 153, 201, 152, 201, 200, 153, 154, 202, 153, 202, 201, 154, 155, 203, 154, 203, 202, 155, 156, 204, 155, 204, 203, 156, 157, 205, 156, 205, 204, 157, 158, 206, 157, 206, 205, 158, 159, 207, 158, 207, 206, 159, 160, 208, 159, 208, 207, 160, 161, 209, 160, 209, 208, 161, 162, 210, 161, 210, 209, 162, 163, 211, 162, 211, 210, 163, 164, 212, 163, 212, 211, 164, 165, 213, 164, 213, 212, 165, 166, 214, 165, 214, 213, 166, 167, 215, 166, 215, 214, 167, 168, 216, 167, 216, 215, 168, 169, 217, 168, 217, 216, 169, 170, 218, 169, 218, 217, 170, 171, 219, 170, 219, 218, 171, 172, 220, 171, 220, 219, 172, 173, 221, 172, 221, 220, 173, 174, 222, 173, 222, 221, 174, 175, 223, 174, 223, 222, 175, 176, 224, 175, 224, 223, 176, 177, 225, 176, 225, 224, 177, 178, 226, 177, 226, 225, 178, 179, 227, 178, 227, 226, 179, 180, 228, 179, 228, 227, 180, 181, 229, 180, 229, 228, 181, 182, 230, 181, 230, 229, 182, 183, 231, 182, 231, 230, 183, 184, 232, 183, 232, 231, 184, 185, 233, 184, 233, 232, 185, 186, 234, 185, 234, 233, 186, 187, 235, 186, 235, 234, 187, 188, 236, 187, 236, 235, 188, 189, 237, 188, 237, 236, 189, 190, 238, 189, 238, 237, 190, 191, 239, 190, 239, 238, 191, 192, 240, 191, 240, 239, 192, 145, 193, 192, 193, 240, 193, 194, 242, 193, 242, 241, 194, 195, 243, 194, 243, 242, 195, 196, 244, 195, 244, 243, 196, 197, 245, 196, 245, 244, 197, 198, 246, 197, 246, 245, 198, 199, 247, 198, 247, 246, 199, 200, 248, 199, 248, 247, 200, 201, 249, 200, 249, 248, 201, 202, 250, 201, 250, 249, 202, 203, 251, 202, 251, 250, 203, 204, 252, 203, 252, 251, 204, 205, 253, 204, 253, 252, 205, 206, 254, 205, 254, 253, 206, 207, 255, 206, 255, 254, 207, 208, 256, 207, 256, 255, 208, 209, 257, 208, 257, 256, 209, 210, 258, 209, 258, 257, 210, 211, 259, 210, 259, 258, 211, 212, 260, 211, 260, 259, 212, 213, 261, 212, 261, 260, 213, 214, 262, 213, 262, 261, 214, 215, 263, 214, 263, 262, 215, 216, 264, 215, 264, 263, 216, 217, 265, 216, 265, 264, 217, 218, 266, 217, 266, 265, 218, 219, 267, 218, 267, 266, 219, 220, 268, 219, 268, 267, 220, 221, 269, 220, 269, 268, 221, 222, 270, 221, 270, 269, 222, 223, 271, 222, 271, 270, 223, 224, 272, 223, 272, 271, 224, 225, 273, 224, 273, 272, 225, 226, 274, 225, 274, 273, 226, 227, 275, 226, 275, 274, 227, 228, 276, 227, 276, 275, 228, 229, 277, 228, 277, 276, 229, 230, 278, 229, 278, 277, 230, 231, 279, 230, 279, 278, 231, 232, 280, 231, 280, 279, 232, 233, 281, 232, 281, 280, 233, 234, 282, 233, 282, 281, 234, 235, 283, 234, 283, 282, 235, 236, 284, 235, 284, 283, 236, 237, 285, 236, 285, 284, 237, 238, 286, 237, 286, 285, 238, 239, 287, 238, 287, 286, 239, 240, 288, 239, 288, 287, 240, 193, 241, 240, 241, 288, 241, 242, 290, 241, 290, 289, 242, 243, 291, 242, 291, 290, 243, 244, 292, 243, 292, 291, 244, 245, 293, 244, 293, 292, 245, 246, 294, 245, 294, 293, 246, 247, 295, 246, 295, 294, 247, 248, 296, 247, 296, 295, 248, 249, 297, 248, 297, 296, 249, 250, 298, 249, 298, 297, 250, 251, 299, 250, 299, 298, 251, 252, 300, 251, 300, 299, 252, 253, 301, 252, 301, 300, 253, 254, 302, 253, 302, 301, 254, 255, 303, 254, 303, 302, 255, 256, 304, 255, 304, 303, 256, 257, 305, 256, 305, 304, 257, 258, 306, 257, 306, 305, 258, 259, 307, 258, 307, 306, 259, 260, 308, 259, 308, 307, 260, 261, 309, 260, 309, 308, 261, 262, 310, 261, 310, 309, 262, 263, 311, 262, 311, 310, 263, 264, 312, 263, 312, 311, 264, 265, 313, 264, 313, 312, 265, 266, 314, 265, 314, 313, 266, 267, 315, 266, 315, 314, 267, 268, 316, 267, 316, 315, 268, 269, 317, 268, 317, 316, 269, 270, 318, 269, 318, 317, 270, 271, 319, 270, 319, 318, 271, 272, 320, 271, 320, 319, 272, 273, 321, 272, 321, 320, 273, 274, 322, 273, 322, 321, 274, 275, 323, 274, 323, 322, 275, 276, 324, 275, 324, 323, 276, 277, 325, 276, 325, 324, 277, 278, 326, 277, 326, 325, 278, 279, 327, 278, 327, 326, 279, 280, 328, 279, 328, 327, 280, 281, 329, 280, 329, 328, 281, 282, 330, 281, 330, 329, 282, 283, 331, 282, 331, 330, 283, 284, 332, 283, 332, 331, 284, 285, 333, 284, 333, 332, 285, 286, 334, 285, 334, 333, 286, 287, 335, 286, 335, 334, 287, 288, 336, 287, 336, 335, 288, 241, 289, 288, 289, 336, 289, 290, 338, 289, 338, 337, 290, 291, 339, 290, 339, 338, 291, 292, 340, 291, 340, 339, 292, 293, 341, 292, 341, 340, 293, 294, 342, 293, 342, 341, 294, 295, 343, 294, 343, 342, 295, 296, 344, 295, 344, 343, 296, 297, 345, 296, 345, 344, 297, 298, 346, 297, 346, 345, 298, 299, 347, 298, 347, 346, 299, 300, 348, 299, 348, 347, 300, 301, 349, 300, 349, 348, 301, 302, 350, 301, 350, 349, 302, 303, 351, 302, 351, 350, 303, 304, 352, 303, 352, 351, 304, 305, 353, 304, 353, 352, 305, 306, 354, 305, 354, 353, 306, 307, 355, 306, 355, 354, 307, 308, 356, 307, 356, 355, 308, 309, 357, 308, 357, 356, 309, 310, 358, 309, 358, 357, 310, 311, 359, 310, 359, 358, 311, 312, 360, 311, 360, 359, 312, 313, 361, 312, 361, 360, 313, 314, 362, 313, 362, 361, 314, 315, 363, 314, 363, 362, 315, 316, 364, 315, 364, 363, 316, 317, 365, 316, 365, 364, 317, 318, 366, 317, 366, 365, 318, 319, 367, 318, 367, 366, 319, 320, 368, 319, 368, 367, 320, 321, 369, 320, 369, 368, 321, 322, 370, 321, 370, 369, 322, 323, 371, 322, 371, 370, 323, 324, 372, 323, 372, 371, 324, 325, 373, 324, 373, 372, 325, 326, 374, 325, 374, 373, 326, 327, 375, 326, 375, 374, 327, 328, 376, 327, 376, 375, 328, 329, 377, 328, 377, 376, 329, 330, 378, 329, 378, 377, 330, 331, 379, 330, 379, 378, 331, 332, 380, 331, 380, 379, 332, 333, 381, 332, 381, 380, 333, 334, 382, 333, 382, 381, 334, 335, 383, 334, 383, 382, 335, 336, 384, 335, 384, 383, 336, 289, 337, 336, 337, 384, 337, 338, 386, 337, 386, 385, 338, 339, 387, 338, 387, 386, 339, 340, 388, 339, 388, 387, 340, 341, 389, 340, 389, 388, 341, 342, 390, 341, 390, 389, 342, 343, 391, 342, 391, 390, 343, 344, 392, 343, 392, 391, 344, 345, 393, 344, 393, 392, 345, 346, 394, 345, 394, 393, 346, 347, 395, 346, 395, 394, 347, 348, 396, 347, 396, 395, 348, 349, 397, 348, 397, 396, 349, 350, 398, 349, 398, 397, 350, 351, 399, 350, 399, 398, 351, 352, 400, 351, 400, 399, 352, 353, 401, 352, 401, 400, 353, 354, 402, 353, 402, 401, 354, 355, 403, 354, 403, 402, 355, 356, 404, 355, 404, 403, 356, 357, 405, 356, 405, 404, 357, 358, 406, 357, 406, 405, 358, 359, 407, 358, 407, 406, 359, 360, 408, 359, 408, 407, 360, 361, 409, 360, 409, 408, 361, 362, 410, 361, 410, 409, 362, 363, 411, 362, 411, 410, 363, 364, 412, 363, 412, 411, 364, 365, 413, 364, 413, 412, 365, 366, 414, 365, 414, 413, 366, 367, 415, 366, 415, 414, 367, 368, 416, 367, 416, 415, 368, 369, 417, 368, 417, 416, 369, 370, 418, 369, 418, 417, 370, 371, 419, 370, 419, 418, 371, 372, 420, 371, 420, 419, 372, 373, 421, 372, 421, 420, 373, 374, 422, 373, 422, 421, 374, 375, 423, 374, 423, 422, 375, 376, 424, 375, 424, 423, 376, 377, 425, 376, 425, 424, 377, 378, 426, 377, 426, 425, 378, 379, 427, 378, 427, 426, 379, 380, 428, 379, 428, 427, 380, 381, 429, 380, 429, 428, 381, 382, 430, 381, 430, 429, 382, 383, 431, 382, 431, 430, 383, 384, 432, 383, 432, 431, 384, 337, 385, 384, 385, 432, 385, 386, 434, 385, 434, 433, 386, 387, 435, 386, 435, 434, 387, 388, 436, 387, 436, 435, 388, 389, 437, 388, 437, 436, 389, 390, 438, 389, 438, 437, 390, 391, 439, 390, 439, 438, 391, 392, 440, 391, 440, 439, 392, 393, 441, 392, 441, 440, 393, 394, 442, 393, 442, 441, 394, 395, 443, 394, 443, 442, 395, 396, 444, 395, 444, 443, 396, 397, 445, 396, 445, 444, 397, 398, 446, 397, 446, 445, 398, 399, 447, 398, 447, 446, 399, 400, 448, 399, 448, 447, 400, 401, 449, 400, 449, 448, 401, 402, 450, 401, 450, 449, 402, 403, 451, 402, 451, 450, 403, 404, 452, 403, 452, 451, 404, 405, 453, 404, 453, 452, 405, 406, 454, 405, 454, 453, 406, 407, 455, 406, 455, 454, 407, 408, 456, 407, 456, 455, 408, 409, 457, 408, 457, 456, 409, 410, 458, 409, 458, 457, 410, 411, 459, 410, 459, 458, 411, 412, 460, 411, 460, 459, 412, 413, 461, 412, 461, 460, 413, 414, 462, 413, 462, 461, 414, 415, 463, 414, 463, 462, 415, 416, 464, 415, 464, 463, 416, 417, 465, 416, 465, 464, 417, 418, 466, 417, 466, 465, 418, 419, 467, 418, 467, 466, 419, 420, 468, 419, 468, 467, 420, 421, 469, 420, 469, 468, 421, 422, 470, 421, 470, 469, 422, 423, 471, 422, 471, 470, 423, 424, 472, 423, 472, 471, 424, 425, 473, 424, 473, 472, 425, 426, 474, 425, 474, 473, 426, 427, 475, 426, 475, 474, 427, 428, 476, 427, 476, 475, 428, 429, 477, 428, 477, 476, 429, 430, 478, 429, 478, 477, 430, 431, 479, 430, 479, 478, 431, 432, 480, 431, 480, 479, 432, 385, 433, 432, 433, 480, 433, 434, 482, 433, 482, 481, 434, 435, 483, 434, 483, 482, 435, 436, 484, 435, 484, 483, 436, 437, 485, 436, 485, 484, 437, 438, 486, 437, 486, 485, 438, 439, 487, 438, 487, 486, 439, 440, 488, 439, 488, 487, 440, 441, 489, 440, 489, 488, 441, 442, 490, 441, 490, 489, 442, 443, 491, 442, 491, 490, 443, 444, 492, 443, 492, 491, 444, 445, 493, 444, 493, 492, 445, 446, 494, 445, 494, 493, 446, 447, 495, 446, 495, 494, 447, 448, 496, 447, 496, 495, 448, 449, 497, 448, 497, 496, 449, 450, 498, 449, 498, 497, 450, 451, 499, 450, 499, 498, 451, 452, 500, 451, 500, 499, 452, 453, 501, 452, 501, 500, 453, 454, 502, 453, 502, 501, 454, 455, 503, 454, 503, 502, 455, 456, 504, 455, 504, 503, 456, 457, 505, 456, 505, 504, 457, 458, 506, 457, 506, 505, 458, 459, 507, 458, 507, 506, 459, 460, 508, 459, 508, 507, 460, 461, 509, 460, 509, 508, 461, 462, 510, 461, 510, 509, 462, 463, 511, 462, 511, 510, 463, 464, 512, 463, 512, 511, 464, 465, 513, 464, 513, 512, 465, 466, 514, 465, 514, 513, 466, 467, 515, 466, 515, 514, 467, 468, 516, 467, 516, 515, 468, 469, 517, 468, 517, 516, 469, 470, 518, 469, 518, 517, 470, 471, 519, 470, 519, 518, 471, 472, 520, 471, 520, 519, 472, 473, 521, 472, 521, 520, 473, 474, 522, 473, 522, 521, 474, 475, 523, 474, 523, 522, 475, 476, 524, 475, 524, 523, 476, 477, 525, 476, 525, 524, 477, 478, 526, 477, 526, 525, 478, 479, 527, 478, 527, 526, 479, 480, 528, 479, 528, 527, 480, 433, 481, 480, 481, 528, 529, 481, 482, 529, 482, 483, 529, 483, 484, 529, 484, 485, 529, 485, 486, 529, 486, 487, 529, 487, 488, 529, 488, 489, 529, 489, 490, 529, 490, 491, 529, 491, 492, 529, 492, 493, 529, 493, 494, 529, 494, 495, 529, 495, 496, 529, 496, 497, 529, 497, 498, 529, 498, 499, 529, 499, 500, 529, 500, 501, 529, 501, 502, 529, 502, 503, 529, 503, 504, 529, 504, 505, 529, 505, 506, 529, 506, 507, 529, 507, 508, 529, 508, 509, 529, 509, 510, 529, 510, 511, 529, 511, 512, 529, 512, 513, 529, 513, 514, 529, 514, 515, 529, 515, 516, 529, 516, 517, 529, 517, 518, 529, 518, 519, 529, 519, 520, 529, 520, 521, 529, 521, 522, 529, 522, 523, 529, 523, 524, 529, 524, 525, 529, 525, 526, 529, 526, 527, 529, 527, 528, 529, 528, 481, 530, 532, 531, 530, 533, 532, 530, 534, 533, 530, 535, 534, 530, 536, 535, 530, 537, 536, 530, 538, 537, 530, 539, 538, 530, 540, 539, 530, 541, 540, 530, 542, 541, 530, 543, 542, 530, 544, 543, 530, 545, 544, 530, 546, 545, 530, 547, 546, 530, 548, 547, 530, 549, 548, 530, 550, 549, 530, 551, 550, 530, 552, 551, 530, 553, 552, 530, 554, 553, 530, 555, 554, 530, 556, 555, 530, 557, 556, 530, 558, 557, 530, 559, 558, 530, 560, 559, 530, 561, 560, 530, 562, 561, 530, 563, 562, 530, 564, 563, 530, 565, 564, 530, 566, 565, 530, 567, 566, 530, 568, 567, 530, 569, 568, 530, 570, 569, 530, 571, 570, 530, 572, 571, 530, 573, 572, 530, 574, 573, 530, 575, 574, 530, 576, 575, 530, 577, 576, 530, 578, 577, 530, 531, 578, 531, 532, 580, 531, 580, 579, 532, 533, 581, 532, 581, 580, 533, 534, 582, 533, 582, 581, 534, 535, 583, 534, 583, 582, 535, 536, 584, 535, 584, 583, 536, 537, 585, 536, 585, 584, 537, 538, 586, 537, 586, 585, 538, 539, 587, 538, 587, 586, 539, 540, 588, 539, 588, 587, 540, 541, 589, 540, 589, 588, 541, 542, 590, 541, 590, 589, 542, 543, 591, 542, 591, 590, 543, 544, 592, 543, 592, 591, 544, 545, 593, 544, 593, 592, 545, 546, 594, 545, 594, 593, 546, 547, 595, 546, 595, 594, 547, 548, 596, 547, 596, 595, 548, 549, 597, 548, 597, 596, 549, 550, 598, 549, 598, 597, 550, 551, 599, 550, 599, 598, 551, 552, 600, 551, 600, 599, 552, 553, 601, 552, 601, 600, 553, 554, 602, 553, 602, 601, 554, 555, 603, 554, 603, 602, 555, 556, 604, 555, 604, 603, 556, 557, 605, 556, 605, 604, 557, 558, 606, 557, 606, 605, 558, 559, 607, 558, 607, 606, 559, 560, 608, 559, 608, 607, 560, 561, 609, 560, 609, 608, 561, 562, 610, 561, 610, 609, 562, 563, 611, 562, 611, 610, 563, 564, 612, 563, 612, 611, 564, 565, 613, 564, 613, 612, 565, 566, 614, 565, 614, 613, 566, 567, 615, 566, 615, 614, 567, 568, 616, 567, 616, 615, 568, 569, 617, 568, 617, 616, 569, 570, 618, 569, 618, 617, 570, 571, 619, 570, 619, 618, 571, 572, 620, 571, 620, 619, 572, 573, 621, 572, 621, 620, 573, 574, 622, 573, 622, 621, 574, 575, 623, 574, 623, 622, 575, 576, 624, 575, 624, 623, 576, 577, 625, 576, 625, 624, 577, 578, 626, 577, 626, 625, 578, 531, 579, 578, 579, 626, 627, 579, 580, 627, 580, 581, 627, 581, 582, 627, 582, 583, 627, 583, 584, 627, 584, 585, 627, 585, 586, 627, 586, 587, 627, 587, 588, 627, 588, 589, 627, 589, 590, 627, 590, 591, 627, 591, 592, 627, 592, 593, 627, 593, 594, 627, 594, 595, 627, 595, 596, 627, 596, 597, 627, 597, 598, 627, 598, 599, 627, 599, 600, 627, 600, 601, 627, 601, 602, 627, 602, 603, 627, 603, 604, 627, 604, 605, 627, 605, 606, 627, 606, 607, 627, 607, 608, 627, 608, 609, 627, 609, 610, 627, 610, 611, 627, 611, 612, 627, 612, 613, 627, 613, 614, 627, 614, 615, 627, 615, 616, 627, 616, 617, 627, 617, 618, 627, 618, 619, 627, 619, 620, 627, 620, 621, 627, 621, 622, 627, 622, 623, 627, 623, 624, 627, 624, 625, 627, 625, 626, 627, 626, 579]
            point3f[] points = [(0.000000, 0.000000, 0.000000), (0.032500, 0.000000, 0.000000), (0.032222, 0.004242, 0.000000), (0.031393, 0.008412, 0.000000), (0.030026, 0.012437, 0.000000), (0.028146, 0.016250, 0.000000), (0.025784, 0.019785, 0.000000), (0.022981, 0.022981, 0.000000), (0.019785, 0.025784, 0.000000), (0.016250, 0.028146, 0.000000), (0.012437, 0.030026, 0.000000), (0.008412, 0.031393, 0.000000), (0.004242, 0.032222, 0.000000), (0.000000, 0.032500, 0.000000), (-0.004242, 0.032222, 0.000000), (-0.008412, 0.031393, 0.000000), (-0.012437, 0.030026, 0.000000), (-0.016250, 0.028146, 0.000000), (-0.019785, 0.025784, 0.000000), (-0.022981, 0.022981, 0.000000), (-0.025784, 0.019785, 0.000000), (-0.028146, 0.016250, 0.000000), (-0.030026, 0.012437, 0.000000), (-0.031393, 0.008412, 0.000000), (-0.032222, 0.004242, 0.000000), (-0.032500, 0.000000, 0.000000), (-0.032222, -0.004242, 0.000000), (-0.031393, -0.008412, 0.000000), (-0.030026, -0.012437, 0.000000), (-0.028146, -0.016250, 0.000000), (-0.025784, -0.019785, 0.000000), (-0.022981, -0.022981, 0.000000), (-0.019785, -0.025784, 0.000000), (-0.016250, -0.028146, 0.000000), (-0.012437, -0.030026, 0.000000), (-0.008412, -0.031393, 0.000000), (-0.004242, -0.032222, 0.000000), (-0.000000, -0.032500, 0.000000), (0.004242, -0.032222, 0.000000), (0.008412, -0.031393, 0.000000), (0.012437, -0.030026, 0.000000), (0.016250, -0.028146, 0.000000), (0.019785, -0.025784, 0.000000), (0.022981, -0.022981, 0.000000), (0.025784, -0.019785, 0.000000), (0.028146, -0.016250, 0.000000), (0.030026, -0.012437, 0.000000), (0.031393, -0.008412, 0.000000), (0.032222, -0.004242, 0.000000), (0.032500, 0.000000, 0.145000), (0.032222, 0.004242, 0.145000), (0.031393, 0.008412, 0.145000), (0.030026, 0.012437, 0.145000), (0.028146, 0.016250, 0.145000), (0.025784, 0.019785, 0.145000), (0.022981, 0.022981, 0.145000), (0.019785, 0.025784, 0.145000), (0.016250, 0.028146, 0.145000), (0.012437, 0.030026, 0.145000), (0.008412, 0.031393, 0.145000), (0.004242, 0.032222, 0.145000), (0.000000, 0.032500, 0.145000), (-0.004242, 0.032222, 0.145000), (-0.008412, 0.031393, 0.145000), (-0.012437, 0.030026, 0.145000), (-0.016250, 0.028146, 0.145000), (-0.019785, 0.025784, 0.145000), (-0.022981, 0.022981, 0.145000), (-0.025784, 0.019785, 0.145000), (-0.028146, 0.016250, 0.145000), (-0.030026, 0.012437, 0.145000), (-0.031393, 0.008412, 0.145000), (-0.032222, 0.004242, 0.145000), (-0.032500, 0.000000, 0.145000), (-0.032222, -0.004242, 0.145000), (-0.031393, -0.008412, 0.145000), (-0.030026, -0.012437, 0.145000), (-0.028146, -0.016250, 0.145000), (-0.025784, -0.019785, 0.145000), (-0.022981, -0.022981, 0.145000), (-0.019785, -0.025784, 0.145000), (-0.016250, -0.028146, 0.145000), (-0.012437, -0.030026, 0.145000), (-0.008412, -0.031393, 0.145000), (-0.004242, -0.032222, 0.145000), (-0.000000, -0.032500, 0.145000), (0.004242, -0.032222, 0.145000), (0.008412, -0.031393, 0.145000), (0.012437, -0.030026, 0.145000), (0.016250, -0.028146, 0.145000), (0.019785, -0.025784, 0.145000), (0.022981, -0.022981, 0.145000), (0.025784, -0.019785, 0.145000), (0.028146, -0.016250, 0.145000), (0.030026, -0.012437, 0.145000), (0.031393, -0.008412, 0.145000), (0.032222, -0.004242, 0.145000), (0.032343, 0.000000, 0.150000), (0.032066, 0.004222, 0.150000), (0.031241, 0.008371, 0.150000), (0.029881, 0.012377, 0.150000), (0.028010, 0.016172, 0.150000), (0.025660, 0.019689, 0.150000), (0.022870, 0.022870, 0.150000), (0.019689, 0.025660, 0.150000), (0.016172, 0.028010, 0.150000), (0.012377, 0.029881, 0.150000), (0.008371, 0.031241, 0.150000), (0.004222, 0.032066, 0.150000), (0.000000, 0.032343, 0.150000), (-0.004222, 0.032066, 0.150000), (-0.008371, 0.031241, 0.150000), (-0.012377, 0.029881, 0.150000), (-0.016172, 0.028010, 0.150000), (-0.019689, 0.025660, 0.150000), (-0.022870, 0.022870, 0.150000), (-0.025660, 0.019689, 0.150000), (-0.028010, 0.016172, 0.150000), (-0.029881, 0.012377, 0.150000), (-0.031241, 0.008371, 0.150000), (-0.032066, 0.004222, 0.150000), (-0.032343, 0.000000, 0.150000), (-0.032066, -0.004222, 0.150000), (-0.031241, -0.008371, 0.150000), (-0.029881, -0.012377, 0.150000), (-0.028010, -0.016172, 0.150000), (-0.025660, -0.019689, 0.150000), (-0.022870, -0.022870, 0.150000), (-0.019689, -0.025660, 0.150000), (-0.016172, -0.028010, 0.150000), (-0.012377, -0.029881, 0.150000), (-0.008371, -0.031241, 0.150000), (-0.004222, -0.032066, 0.150000), (-0.000000, -0.032343, 0.150000), (0.004222, -0.032066, 0.150000), (0.008371, -0.031241, 0.150000), (0.012377, -0.029881, 0.150000), (0.016172, -0.028010, 0.150000), (0.019689, -0.025660, 0.150000), (0.022870, -0.022870, 0.150000), (0.025660, -0.019689, 0.150000), (0.028010, -0.016172, 0.150000), (0.029881, -0.012377, 0.150000), (0.031241, -0.008371, 0.150000), (0.032066, -0.004222, 0.150000), (0.031865, 0.000000, 0.155000), (0.031592, 0.004159, 0.155000), (0.030779, 0.008247, 0.155000), (0.029439, 0.012194, 0.155000), (0.027596, 0.015932, 0.155000), (0.025280, 0.019398, 0.155000), (0.022532, 0.022532, 0.155000), (0.019398, 0.025280, 0.155000), (0.015932, 0.027596, 0.155000), (0.012194, 0.029439, 0.155000), (0.008247, 0.030779, 0.155000), (0.004159, 0.031592, 0.155000), (0.000000, 0.031865, 0.155000), (-0.004159, 0.031592, 0.155000), (-0.008247, 0.030779, 0.155000), (-0.012194, 0.029439, 0.155000), (-0.015932, 0.027596, 0.155000), (-0.019398, 0.025280, 0.155000), (-0.022532, 0.022532, 0.155000), (-0.025280, 0.019398, 0.155000), (-0.027596, 0.015932, 0.155000), (-0.029439, 0.012194, 0.155000), (-0.030779, 0.008247, 0.155000), (-0.031592, 0.004159, 0.155000), (-0.031865, 0.000000, 0.155000), (-0.031592, -0.004159, 0.155000), (-0.030779, -0.008247, 0.155000), (-0.029439, -0.012194, 0.155000), (-0.027596, -0.015932, 0.155000), (-0.025280, -0.019398, 0.155000), (-0.022532, -0.022532, 0.155000), (-0.019398, -0.025280, 0.155000), (-0.015932, -0.027596, 0.155000), (-0.012194, -0.029439, 0.155000), (-0.008247, -0.030779, 0.155000), (-0.004159, -0.031592, 0.155000), (-0.000000, -0.031865, 0.155000), (0.004159, -0.031592, 0.155000), (0.008247, -0.030779, 0.155000), (0.012194, -0.029439, 0.155000), (0.015932, -0.027596, 0.155000), (0.019398, -0.025280, 0.155000), (0.022532, -0.022532, 0.155000), (0.025280, -0.019398, 0.155000), (0.027596, -0.015932, 0.155000), (0.029439, -0.012194, 0.155000), (0.030779, -0.008247, 0.155000), (0.031592, -0.004159, 0.155000), (0.031040, 0.000000, 0.160000), (0.030775, 0.004052, 0.160000), (0.029983, 0.008034, 0.160000), (0.028678, 0.011879, 0.160000), (0.026882, 0.015520, 0.160000), (0.024626, 0.018896, 0.160000), (0.021949, 0.021949, 0.160000), (0.018896, 0.024626, 0.160000), (0.015520, 0.026882, 0.160000), (0.011879, 0.028678, 0.160000), (0.008034, 0.029983, 0.160000), (0.004052, 0.030775, 0.160000), (0.000000, 0.031040, 0.160000), (-0.004052, 0.030775, 0.160000), (-0.008034, 0.029983, 0.160000), (-0.011879, 0.028678, 0.160000), (-0.015520, 0.026882, 0.160000), (-0.018896, 0.024626, 0.160000), (-0.021949, 0.021949, 0.160000), (-0.024626, 0.018896, 0.160000), (-0.026882, 0.015520, 0.160000), (-0.028678, 0.011879, 0.160000), (-0.029983, 0.008034, 0.160000), (-0.030775, 0.004052, 0.160000), (-0.031040, 0.000000, 0.160000), (-0.030775, -0.004052, 0.160000), (-0.029983, -0.008034, 0.160000), (-0.028678, -0.011879, 0.160000), (-0.026882, -0.015520, 0.160000), (-0.024626, -0.018896, 0.160000), (-0.021949, -0.021949, 0.160000), (-0.018896, -0.024626, 0.160000), (-0.015520, -0.026882, 0.160000), (-0.011879, -0.028678, 0.160000), (-0.008034, -0.029983, 0.160000), (-0.004052, -0.030775, 0.160000), (-0.000000, -0.031040, 0.160000), (0.004052, -0.030775, 0.160000), (0.008034, -0.029983, 0.160000), (0.011879, -0.028678, 0.160000), (0.015520, -0.026882, 0.160000), (0.018896, -0.024626, 0.160000), (0.021949, -0.021949, 0.160000), (0.024626, -0.018896, 0.160000), (0.026882, -0.015520, 0.160000), (0.028678, -0.011879, 0.160000), (0.029983, -0.008034, 0.160000), (0.030775, -0.004052, 0.160000), (0.029821, 0.000000, 0.165000), (0.029565, 0.003892, 0.165000), (0.028804, 0.007718, 0.165000), (0.027551, 0.011412, 0.165000), (0.025825, 0.014910, 0.165000), (0.023658, 0.018154, 0.165000), (0.021086, 0.021086, 0.165000), (0.018154, 0.023658, 0.165000), (0.014910, 0.025825, 0.165000), (0.011412, 0.027551, 0.165000), (0.007718, 0.028804, 0.165000), (0.003892, 0.029565, 0.165000), (0.000000, 0.029821, 0.165000), (-0.003892, 0.029565, 0.165000), (-0.007718, 0.028804, 0.165000), (-0.011412, 0.027551, 0.165000), (-0.014910, 0.025825, 0.165000), (-0.018154, 0.023658, 0.165000), (-0.021086, 0.021086, 0.165000), (-0.023658, 0.018154, 0.165000), (-0.025825, 0.014910, 0.165000), (-0.027551, 0.011412, 0.165000), (-0.028804, 0.007718, 0.165000), (-0.029565, 0.003892, 0.165000), (-0.029821, 0.000000, 0.165000), (-0.029565, -0.003892, 0.165000), (-0.028804, -0.007718, 0.165000), (-0.027551, -0.011412, 0.165000), (-0.025825, -0.014910, 0.165000), (-0.023658, -0.018154, 0.165000), (-0.021086, -0.021086, 0.165000), (-0.018154, -0.023658, 0.165000), (-0.014910, -0.025825, 0.165000), (-0.011412, -0.027551, 0.165000), (-0.007718, -0.028804, 0.165000), (-0.003892, -0.029565, 0.165000), (-0.000000, -0.029821, 0.165000), (0.003892, -0.029565, 0.165000), (0.007718, -0.028804, 0.165000), (0.011412, -0.027551, 0.165000), (0.014910, -0.025825, 0.165000), (0.018154, -0.023658, 0.165000), (0.021086, -0.021086, 0.165000), (0.023658, -0.018154, 0.165000), (0.025825, -0.014910, 0.165000), (0.027551, -0.011412, 0.165000), (0.028804, -0.007718, 0.165000), (0.029565, -0.003892, 0.165000), (0.028112, 0.000000, 0.170000), (0.027872, 0.003669, 0.170000), (0.027155, 0.007276, 0.170000), (0.025973, 0.010758, 0.170000), (0.024346, 0.014056, 0.170000), (0.022303, 0.017114, 0.170000), (0.019879, 0.019879, 0.170000), (0.017114, 0.022303, 0.170000), (0.014056, 0.024346, 0.170000), (0.010758, 0.025973, 0.170000), (0.007276, 0.027155, 0.170000), (0.003669, 0.027872, 0.170000), (0.000000, 0.028112, 0.170000), (-0.003669, 0.027872, 0.170000), (-0.007276, 0.027155, 0.170000), (-0.010758, 0.025973, 0.170000), (-0.014056, 0.024346, 0.170000), (-0.017114, 0.022303, 0.170000), (-0.019879, 0.019879, 0.170000), (-0.022303, 0.017114, 0.170000), (-0.024346, 0.014056, 0.170000), (-0.025973, 0.010758, 0.170000), (-0.027155, 0.007276, 0.170000), (-0.027872, 0.003669, 0.170000), (-0.028112, 0.000000, 0.170000), (-0.027872, -0.003669, 0.170000), (-0.027155, -0.007276, 0.170000), (-0.025973, -0.010758, 0.170000), (-0.024346, -0.014056, 0.170000), (-0.022303, -0.017114, 0.170000), (-0.019879, -0.019879, 0.170000), (-0.017114, -0.022303, 0.170000), (-0.014056, -0.024346, 0.170000), (-0.010758, -0.025973, 0.170000), (-0.007276, -0.027155, 0.170000), (-0.003669, -0.027872, 0.170000), (-0.000000, -0.028112, 0.170000), (0.003669, -0.027872, 0.170000), (0.007276, -0.027155, 0.170000), (0.010758, -0.025973, 0.170000), (0.014056, -0.024346, 0.170000), (0.017114, -0.022303, 0.170000), (0.019879, -0.019879, 0.170000), (0.022303, -0.017114, 0.170000), (0.024346, -0.014056, 0.170000), (0.025973, -0.010758, 0.170000), (0.027155, -0.007276, 0.170000), (0.027872, -0.003669, 0.170000), (0.025729, 0.000000, 0.175000), (0.025509, 0.003358, 0.175000), (0.024852, 0.006659, 0.175000), (0.023770, 0.009846, 0.175000), (0.022282, 0.012864, 0.175000), (0.020412, 0.015663, 0.175000), (0.018193, 0.018193, 0.175000), (0.015663, 0.020412, 0.175000), (0.012864, 0.022282, 0.175000), (0.009846, 0.023770, 0.175000), (0.006659, 0.024852, 0.175000), (0.003358, 0.025509, 0.175000), (0.000000, 0.025729, 0.175000), (-0.003358, 0.025509, 0.175000), (-0.006659, 0.024852, 0.175000), (-0.009846, 0.023770, 0.175000), (-0.012864, 0.022282, 0.175000), (-0.015663, 0.020412, 0.175000), (-0.018193, 0.018193, 0.175000), (-0.020412, 0.015663, 0.175000), (-0.022282, 0.012864, 0.175000), (-0.023770, 0.009846, 0.175000), (-0.024852, 0.006659, 0.175000), (-0.025509, 0.003358, 0.175000), (-0.025729, 0.000000, 0.175000), (-0.025509, -0.003358, 0.175000), (-0.024852, -0.006659, 0.175000), (-0.023770, -0.009846, 0.175000), (-0.022282, -0.012864, 0.175000), (-0.020412, -0.015663, 0.175000), (-0.018193, -0.018193, 0.175000), (-0.015663, -0.020412, 0.175000), (-0.012864, -0.022282, 0.175000), (-0.009846, -0.023770, 0.175000), (-0.006659, -0.024852, 0.175000), (-0.003358, -0.025509, 0.175000), (-0.000000, -0.025729, 0.175000), (0.003358, -0.025509, 0.175000), (0.006659, -0.024852, 0.175000), (0.009846, -0.023770, 0.175000), (0.012864, -0.022282, 0.175000), (0.015663, -0.020412, 0.175000), (0.018193, -0.018193, 0.175000), (0.020412, -0.015663, 0.175000), (0.022282, -0.012864, 0.175000), (0.023770, -0.009846, 0.175000), (0.024852, -0.006659, 0.175000), (0.025509, -0.003358, 0.175000), (0.022182, 0.000000, 0.180000), (0.021993, 0.002895, 0.180000), (0.021427, 0.005741, 0.180000), (0.020494, 0.008489, 0.180000), (0.019211, 0.011091, 0.180000), (0.017599, 0.013504, 0.180000), (0.015685, 0.015685, 0.180000), (0.013504, 0.017599, 0.180000), (0.011091, 0.019211, 0.180000), (0.008489, 0.020494, 0.180000), (0.005741, 0.021427, 0.180000), (0.002895, 0.021993, 0.180000), (0.000000, 0.022182, 0.180000), (-0.002895, 0.021993, 0.180000), (-0.005741, 0.021427, 0.180000), (-0.008489, 0.020494, 0.180000), (-0.011091, 0.019211, 0.180000), (-0.013504, 0.017599, 0.180000), (-0.015685, 0.015685, 0.180000), (-0.017599, 0.013504, 0.180000), (-0.019211, 0.011091, 0.180000), (-0.020494, 0.008489, 0.180000), (-0.021427, 0.005741, 0.180000), (-0.021993, 0.002895, 0.180000), (-0.022182, 0.000000, 0.180000), (-0.021993, -0.002895, 0.180000), (-0.021427, -0.005741, 0.180000), (-0.020494, -0.008489, 0.180000), (-0.019211, -0.011091, 0.180000), (-0.017599, -0.013504, 0.180000), (-0.015685, -0.015685, 0.180000), (-0.013504, -0.017599, 0.180000), (-0.011091, -0.019211, 0.180000), (-0.008489, -0.020494, 0.180000), (-0.005741, -0.021427, 0.180000), (-0.002895, -0.021993, 0.180000), (-0.000000, -0.022182, 0.180000), (0.002895, -0.021993, 0.180000), (0.005741, -0.021427, 0.180000), (0.008489, -0.020494, 0.180000), (0.011091, -0.019211, 0.180000), (0.013504, -0.017599, 0.180000), (0.015685, -0.015685, 0.180000), (0.017599, -0.013504, 0.180000), (0.019211, -0.011091, 0.180000), (0.020494, -0.008489, 0.180000), (0.021427, -0.005741, 0.180000), (0.021993, -0.002895, 0.180000), (0.012500, 0.000000, 0.185000), (0.012393, 0.001632, 0.185000), (0.012074, 0.003235, 0.185000), (0.011548, 0.004784, 0.185000), (0.010825, 0.006250, 0.185000), (0.009917, 0.007610, 0.185000), (0.008839, 0.008839, 0.185000), (0.007610, 0.009917, 0.185000), (0.006250, 0.010825, 0.185000), (0.004784, 0.011548, 0.185000), (0.003235, 0.012074, 0.185000), (0.001632, 0.012393, 0.185000), (0.000000, 0.012500, 0.185000), (-0.001632, 0.012393, 0.185000), (-0.003235, 0.012074, 0.185000), (-0.004784, 0.011548, 0.185000), (-0.006250, 0.010825, 0.185000), (-0.007610, 0.009917, 0.185000), (-0.008839, 0.008839, 0.185000), (-0.009917, 0.007610, 0.185000), (-0.010825, 0.006250, 0.185000), (-0.011548, 0.004784, 0.185000), (-0.012074, 0.003235, 0.185000), (-0.012393, 0.001632, 0.185000), (-0.012500, 0.000000, 0.185000), (-0.012393, -0.001632, 0.185000), (-0.012074, -0.003235, 0.185000), (-0.011548, -0.004784, 0.185000), (-0.010825, -0.006250, 0.185000), (-0.009917, -0.007610, 0.185000), (-0.008839, -0.008839, 0.185000), (-0.007610, -0.009917, 0.185000), (-0.006250, -0.010825, 0.185000), (-0.004784, -0.011548, 0.185000), (-0.003235, -0.012074, 0.185000), (-0.001632, -0.012393, 0.185000), (-0.000000, -0.012500, 0.185000), (0.001632, -0.012393, 0.185000), (0.003235, -0.012074, 0.185000), (0.004784, -0.011548, 0.185000), (0.006250, -0.010825, 0.185000), (0.007610, -0.009917, 0.185000), (0.008839, -0.008839, 0.185000), (0.009917, -0.007610, 0.185000), (0.010825, -0.006250, 0.185000), (0.011548, -0.004784, 0.185000), (0.012074, -0.003235, 0.185000), (0.012393, -0.001632, 0.185000), (0.012500, 0.000000, 0.195000), (0.012393, 0.001632, 0.195000), (0.012074, 0.003235, 0.195000), (0.011548, 0.004784, 0.195000), (0.010825, 0.006250, 0.195000), (0.009917, 0.007610, 0.195000), (0.008839, 0.008839, 0.195000), (0.007610, 0.009917, 0.195000), (0.006250, 0.010825, 0.195000), (0.004784, 0.011548, 0.195000), (0.003235, 0.012074, 0.195000), (0.001632, 0.012393, 0.195000), (0.000000, 0.012500, 0.195000), (-0.001632, 0.012393, 0.195000), (-0.003235, 0.012074, 0.195000), (-0.004784, 0.011548, 0.195000), (-0.006250, 0.010825, 0.195000), (-0.007610, 0.009917, 0.195000), (-0.008839, 0.008839, 0.195000), (-0.009917, 0.007610, 0.195000), (-0.010825, 0.006250, 0.195000), (-0.011548, 0.004784, 0.195000), (-0.012074, 0.003235, 0.195000), (-0.012393, 0.001632, 0.195000), (-0.012500, 0.000000, 0.195000), (-0.012393, -0.001632, 0.195000), (-0.012074, -0.003235, 0.195000), (-0.011548, -0.004784, 0.195000), (-0.010825, -0.006250, 0.195000), (-0.009917, -0.007610, 0.195000), (-0.008839, -0.008839, 0.195000), (-0.007610, -0.009917, 0.195000), (-0.006250, -0.010825, 0.195000), (-0.004784, -0.011548, 0.195000), (-0.003235, -0.012074, 0.195000), (-0.001632, -0.012393, 0.195000), (-0.000000, -0.012500, 0.195000), (0.001632, -0.012393, 0.195000), (0.003235, -0.012074, 0.195000), (0.004784, -0.011548, 0.195000), (0.006250, -0.010825, 0.195000), (0.007610, -0.009917, 0.195000), (0.008839, -0.008839, 0.195000), (0.009917, -0.007610, 0.195000), (0.010825, -0.006250, 0.195000), (0.011548, -0.004784, 0.195000), (0.012074, -0.003235, 0.195000), (0.012393, -0.001632, 0.195000), (0.000000, 0.000000, 0.195000), (0.000000, 0.000000, 0.195000), (0.015000, 0.000000, 0.195000), (0.014872, 0.001958, 0.195000), (0.014489, 0.003882, 0.195000), (0.013858, 0.005740, 0.195000), (0.012990, 0.007500, 0.195000), (0.011900, 0.009131, 0.195000), (0.010607, 0.010607, 0.195000), (0.009131, 0.011900, 0.195000), (0.007500, 0.012990, 0.195000), (0.005740, 0.013858, 0.195000), (0.003882, 0.014489, 0.195000), (0.001958, 0.014872, 0.195000), (0.000000, 0.015000, 0.195000), (-0.001958, 0.014872, 0.195000), (-0.003882, 0.014489, 0.195000), (-0.005740, 0.013858, 0.195000), (-0.007500, 0.012990, 0.195000), (-0.009131, 0.011900, 0.195000), (-0.010607, 0.010607, 0.195000), (-0.011900, 0.009131, 0.195000), (-0.012990, 0.007500, 0.195000), (-0.013858, 0.005740, 0.195000), (-0.014489, 0.003882, 0.195000), (-0.014872, 0.001958, 0.195000), (-0.015000, 0.000000, 0.195000), (-0.014872, -0.001958, 0.195000), (-0.014489, -0.003882, 0.195000), (-0.013858, -0.005740, 0.195000), (-0.012990, -0.007500, 0.195000), (-0.011900, -0.009131, 0.195000), (-0.010607, -0.010607, 0.195000), (-0.009131, -0.011900, 0.195000), (-0.007500, -0.012990, 0.195000), (-0.005740, -0.013858, 0.195000), (-0.003882, -0.014489, 0.195000), (-0.001958, -0.014872, 0.195000), (-0.000000, -0.015000, 0.195000), (0.001958, -0.014872, 0.195000), (0.003882, -0.014489, 0.195000), (0.005740, -0.013858, 0.195000), (0.007500, -0.012990, 0.195000), (0.009131, -0.011900, 0.195000), (0.010607, -0.010607, 0.195000), (0.011900, -0.009131, 0.195000), (0.012990, -0.007500, 0.195000), (0.013858, -0.005740, 0.195000), (0.014489, -0.003882, 0.195000), (0.014872, -0.001958, 0.195000), (0.015000, 0.000000, 0.212000), (0.014872, 0.001958, 0.212000), (0.014489, 0.003882, 0.212000), (0.013858, 0.005740, 0.212000), (0.012990, 0.007500, 0.212000), (0.011900, 0.009131, 0.212000), (0.010607, 0.010607, 0.212000), (0.009131, 0.011900, 0.212000), (0.007500, 0.012990, 0.212000), (0.005740, 0.013858, 0.212000), (0.003882, 0.014489, 0.212000), (0.001958, 0.014872, 0.212000), (0.000000, 0.015000, 0.212000), (-0.001958, 0.014872, 0.212000), (-0.003882, 0.014489, 0.212000), (-0.005740, 0.013858, 0.212000), (-0.007500, 0.012990, 0.212000), (-0.009131, 0.011900, 0.212000), (-0.010607, 0.010607, 0.212000), (-0.011900, 0.009131, 0.212000), (-0.012990, 0.007500, 0.212000), (-0.013858, 0.005740, 0.212000), (-0.014489, 0.003882, 0.212000), (-0.014872, 0.001958, 0.212000), (-0.015000, 0.000000, 0.212000), (-0.014872, -0.001958, 0.212000), (-0.014489, -0.003882, 0.212000), (-0.013858, -0.005740, 0.212000), (-0.012990, -0.007500, 0.212000), (-0.011900, -0.009131, 0.212000), (-0.010607, -0.010607, 0.212000), (-0.009131, -0.011900, 0.212000), (-0.007500, -0.012990, 0.212000), (-0.005740, -0.013858, 0.212000), (-0.003882, -0.014489, 0.212000), (-0.001958, -0.014872, 0.212000), (-0.000000, -0.015000, 0.212000), (0.001958, -0.014872, 0.212000), (0.003882, -0.014489, 0.212000), (0.005740, -0.013858, 0.212000), (0.007500, -0.012990, 0.212000), (0.009131, -0.011900, 0.212000), (0.010607, -0.010607, 0.212000), (0.011900, -0.009131, 0.212000), (0.012990, -0.007500, 0.212000), (0.013858, -0.005740, 0.212000), (0.014489, -0.003882, 0.212000), (0.014872, -0.001958, 0.212000), (0.000000, 0.000000, 0.212000)]
            color3f[] primvars:displayColor = [(0.62, 0.8, 0.95)]
            uniform token subdivisionScheme = "none"
        }
        def Mesh "collision" (
            prepend apiSchemas = ["PhysicsCollisionAPI", "PhysicsMeshCollisionAPI"]
        )
        {
            int[] faceVertexCounts = [3, 3, 3, 3, 3, 3, 3, 3, 3, 3, 3, 3, 3, 3, 3, 3, 3, 3, 3, 3, 3, 3, 3, 3, 3, 3, 3, 3, 3, 3, 3, 3, 3, 3, 3, 3, 3, 3, 3, 3, 3, 3, 3, 3, 3, 3, 3, 3, 3, 3, 3, 3, 3, 3, 3, 3, 3, 3, 3, 3, 3, 3, 3, 3, 3, 3, 3, 3, 3, 3, 3, 3, 3, 3, 3, 3, 3, 3, 3, 3, 3, 3, 3, 3, 3, 3, 3, 3, 3, 3, 3, 3, 3, 3, 3, 3, 3, 3, 3, 3, 3, 3, 3, 3, 3, 3, 3, 3, 3, 3, 3, 3, 3, 3, 3, 3, 3, 3, 3, 3, 3, 3, 3, 3, 3, 3, 3, 3, 3, 3, 3, 3, 3, 3, 3, 3, 3, 3, 3, 3, 3, 3, 3, 3, 3, 3, 3, 3, 3, 3, 3, 3, 3, 3, 3, 3, 3, 3, 3, 3, 3, 3, 3, 3, 3, 3, 3, 3, 3, 3, 3, 3, 3, 3, 3, 3, 3, 3, 3, 3, 3, 3, 3, 3, 3, 3, 3, 3, 3, 3, 3, 3, 3, 3, 3, 3, 3, 3, 3, 3, 3, 3, 3, 3, 3, 3, 3, 3, 3, 3, 3, 3, 3, 3, 3, 3, 3, 3, 3, 3, 3, 3, 3, 3, 3, 3, 3, 3, 3, 3, 3, 3, 3, 3, 3, 3, 3, 3, 3, 3, 3, 3, 3, 3, 3, 3, 3, 3, 3, 3, 3, 3, 3, 3, 3, 3, 3, 3, 3, 3, 3, 3, 3, 3, 3, 3, 3, 3, 3, 3, 3, 3, 3, 3, 3, 3, 3, 3, 3, 3, 3, 3, 3, 3, 3, 3, 3, 3, 3, 3, 3, 3, 3, 3, 3, 3, 3, 3, 3, 3, 3, 3, 3, 3, 3, 3, 3, 3, 3, 3, 3, 3, 3, 3, 3, 3, 3, 3, 3, 3, 3, 3, 3, 3, 3, 3, 3, 3, 3, 3, 3, 3, 3, 3, 3, 3, 3, 3, 3, 3, 3, 3, 3, 3, 3, 3, 3, 3, 3, 3, 3, 3, 3, 3, 3, 3, 3, 3, 3, 3, 3, 3, 3, 3, 3, 3, 3, 3, 3, 3, 3, 3, 3, 3, 3, 3, 3, 3, 3, 3, 3, 3, 3, 3, 3, 3, 3, 3, 3, 3, 3, 3, 3, 3, 3, 3, 3, 3, 3, 3, 3, 3, 3, 3, 3, 3, 3, 3, 3, 3, 3, 3, 3, 3, 3, 3, 3, 3, 3, 3, 3, 3, 3, 3, 3, 3, 3, 3, 3, 3, 3, 3, 3, 3, 3, 3, 3, 3, 3, 3, 3, 3, 3, 3, 3, 3, 3, 3, 3, 3, 3, 3, 3, 3, 3, 3, 3, 3, 3, 3, 3, 3, 3, 3, 3, 3, 3, 3, 3, 3, 3, 3, 3, 3, 3, 3, 3, 3, 3, 3, 3, 3, 3, 3, 3, 3, 3, 3, 3, 3, 3, 3, 3, 3, 3, 3, 3, 3, 3, 3, 3, 3, 3, 3, 3, 3, 3, 3, 3, 3, 3, 3, 3, 3, 3, 3, 3, 3, 3, 3, 3, 3, 3, 3, 3, 3, 3, 3, 3, 3, 3, 3, 3, 3, 3, 3, 3, 3, 3, 3, 3, 3, 3, 3, 3, 3, 3, 3, 3, 3, 3, 3, 3, 3, 3, 3, 3, 3, 3, 3, 3, 3, 3, 3, 3, 3, 3, 3, 3, 3, 3, 3, 3, 3, 3, 3, 3, 3, 3, 3, 3, 3, 3, 3, 3, 3, 3, 3, 3, 3, 3, 3, 3, 3, 3, 3, 3, 3, 3, 3, 3, 3, 3, 3, 3, 3, 3, 3, 3, 3, 3, 3, 3, 3, 3, 3, 3, 3, 3, 3, 3, 3, 3, 3, 3, 3, 3, 3, 3, 3, 3, 3, 3, 3, 3, 3, 3, 3, 3, 3, 3, 3, 3, 3, 3, 3, 3, 3, 3, 3, 3, 3, 3, 3, 3, 3, 3, 3, 3, 3, 3, 3, 3, 3, 3, 3, 3, 3, 3, 3, 3, 3, 3, 3, 3, 3, 3, 3, 3, 3, 3, 3, 3, 3, 3, 3, 3, 3, 3, 3, 3, 3, 3, 3, 3, 3, 3, 3, 3, 3, 3, 3, 3, 3, 3, 3, 3, 3, 3, 3, 3, 3, 3, 3, 3, 3, 3, 3, 3, 3, 3, 3, 3, 3, 3, 3, 3, 3, 3, 3, 3, 3, 3, 3, 3, 3, 3, 3, 3, 3, 3, 3, 3, 3, 3, 3, 3, 3, 3, 3, 3, 3, 3, 3, 3, 3, 3, 3, 3, 3, 3, 3, 3, 3, 3, 3, 3, 3, 3, 3, 3, 3, 3, 3, 3, 3, 3, 3, 3, 3, 3, 3, 3, 3, 3, 3, 3, 3, 3, 3, 3, 3, 3, 3, 3, 3, 3, 3, 3, 3, 3, 3, 3, 3, 3, 3, 3, 3, 3, 3, 3, 3, 3, 3, 3, 3, 3, 3, 3, 3, 3, 3, 3, 3, 3, 3, 3, 3, 3, 3, 3, 3, 3, 3, 3, 3, 3, 3, 3, 3, 3, 3, 3, 3, 3, 3, 3, 3, 3, 3, 3, 3, 3, 3, 3, 3, 3, 3, 3, 3, 3, 3, 3, 3, 3, 3, 3, 3, 3, 3, 3, 3, 3, 3, 3, 3, 3, 3, 3, 3, 3, 3, 3, 3, 3, 3, 3, 3, 3, 3, 3, 3, 3, 3, 3, 3, 3, 3, 3, 3, 3, 3, 3, 3, 3, 3, 3, 3, 3, 3, 3, 3, 3, 3, 3, 3, 3, 3, 3, 3, 3, 3, 3, 3, 3, 3, 3, 3, 3, 3, 3, 3, 3, 3, 3, 3, 3, 3, 3, 3, 3, 3, 3, 3, 3, 3, 3, 3, 3, 3, 3, 3, 3, 3, 3, 3, 3, 3, 3, 3, 3, 3, 3, 3, 3, 3, 3, 3, 3, 3, 3, 3, 3, 3, 3, 3, 3, 3, 3, 3, 3, 3, 3, 3, 3, 3, 3, 3, 3, 3, 3, 3, 3, 3, 3, 3, 3, 3, 3, 3, 3, 3, 3, 3, 3, 3, 3, 3, 3, 3, 3, 3, 3, 3, 3, 3, 3, 3, 3, 3, 3, 3, 3, 3, 3, 3, 3, 3, 3, 3, 3, 3, 3, 3, 3, 3, 3, 3, 3, 3, 3, 3, 3, 3, 3, 3, 3, 3, 3, 3, 3, 3, 3, 3, 3, 3, 3, 3, 3, 3, 3, 3, 3, 3, 3, 3, 3, 3, 3, 3, 3, 3, 3, 3, 3, 3, 3, 3, 3, 3, 3, 3, 3, 3, 3, 3, 3, 3, 3, 3, 3, 3, 3, 3, 3, 3, 3, 3, 3, 3, 3, 3, 3, 3, 3, 3, 3, 3, 3, 3, 3, 3, 3, 3, 3, 3, 3, 3, 3, 3, 3, 3, 3, 3, 3, 3, 3, 3, 3, 3, 3, 3, 3, 3, 3, 3, 3, 3, 3, 3, 3, 3, 3, 3, 3, 3, 3, 3, 3, 3, 3, 3, 3, 3, 3, 3, 3, 3, 3, 3, 3, 3, 3, 3, 3, 3, 3, 3, 3, 3, 3, 3, 3, 3, 3, 3, 3, 3, 3, 3, 3, 3, 3, 3, 3, 3, 3, 3, 3, 3, 3, 3, 3, 3, 3, 3, 3, 3, 3, 3, 3, 3, 3, 3, 3, 3, 3, 3, 3, 3, 3, 3, 3, 3, 3, 3, 3, 3, 3, 3, 3, 3, 3, 3, 3, 3, 3, 3, 3, 3, 3, 3, 3, 3, 3, 3, 3, 3, 3, 3, 3, 3, 3, 3, 3, 3, 3, 3]
            int[] faceVertexIndices = [0, 2, 1, 0, 3, 2, 0, 4, 3, 0, 5, 4, 0, 6, 5, 0, 7, 6, 0, 8, 7, 0, 9, 8, 0, 10, 9, 0, 11, 10, 0, 12, 11, 0, 13, 12, 0, 14, 13, 0, 15, 14, 0, 16, 15, 0, 17, 16, 0, 18, 17, 0, 19, 18, 0, 20, 19, 0, 21, 20, 0, 22, 21, 0, 23, 22, 0, 24, 23, 0, 25, 24, 0, 26, 25, 0, 27, 26, 0, 28, 27, 0, 29, 28, 0, 30, 29, 0, 31, 30, 0, 32, 31, 0, 33, 32, 0, 34, 33, 0, 35, 34, 0, 36, 35, 0, 37, 36, 0, 38, 37, 0, 39, 38, 0, 40, 39, 0, 41, 40, 0, 42, 41, 0, 43, 42, 0, 44, 43, 0, 45, 44, 0, 46, 45, 0, 47, 46, 0, 48, 47, 0, 1, 48, 1, 2, 50, 1, 50, 49, 2, 3, 51, 2, 51, 50, 3, 4, 52, 3, 52, 51, 4, 5, 53, 4, 53, 52, 5, 6, 54, 5, 54, 53, 6, 7, 55, 6, 55, 54, 7, 8, 56, 7, 56, 55, 8, 9, 57, 8, 57, 56, 9, 10, 58, 9, 58, 57, 10, 11, 59, 10, 59, 58, 11, 12, 60, 11, 60, 59, 12, 13, 61, 12, 61, 60, 13, 14, 62, 13, 62, 61, 14, 15, 63, 14, 63, 62, 15, 16, 64, 15, 64, 63, 16, 17, 65, 16, 65, 64, 17, 18, 66, 17, 66, 65, 18, 19, 67, 18, 67, 66, 19, 20, 68, 19, 68, 67, 20, 21, 69, 20, 69, 68, 21, 22, 70, 21, 70, 69, 22, 23, 71, 22, 71, 70, 23, 24, 72, 23, 72, 71, 24, 25, 73, 24, 73, 72, 25, 26, 74, 25, 74, 73, 26, 27, 75, 26, 75, 74, 27, 28, 76, 27, 76, 75, 28, 29, 77, 28, 77, 76, 29, 30, 78, 29, 78, 77, 30, 31, 79, 30, 79, 78, 31, 32, 80, 31, 80, 79, 32, 33, 81, 32, 81, 80, 33, 34, 82, 33, 82, 81, 34, 35, 83, 34, 83, 82, 35, 36, 84, 35, 84, 83, 36, 37, 85, 36, 85, 84, 37, 38, 86, 37, 86, 85, 38, 39, 87, 38, 87, 86, 39, 40, 88, 39, 88, 87, 40, 41, 89, 40, 89, 88, 41, 42, 90, 41, 90, 89, 42, 43, 91, 42, 91, 90, 43, 44, 92, 43, 92, 91, 44, 45, 93, 44, 93, 92, 45, 46, 94, 45, 94, 93, 46, 47, 95, 46, 95, 94, 47, 48, 96, 47, 96, 95, 48, 1, 49, 48, 49, 96, 49, 50, 98, 49, 98, 97, 50, 51, 99, 50, 99, 98, 51, 52, 100, 51, 100, 99, 52, 53, 101, 52, 101, 100, 53, 54, 102, 53, 102, 101, 54, 55, 103, 54, 103, 102, 55, 56, 104, 55, 104, 103, 56, 57, 105, 56, 105, 104, 57, 58, 106, 57, 106, 105, 58, 59, 107, 58, 107, 106, 59, 60, 108, 59, 108, 107, 60, 61, 109, 60, 109, 108, 61, 62, 110, 61, 110, 109, 62, 63, 111, 62, 111, 110, 63, 64, 112, 63, 112, 111, 64, 65, 113, 64, 113, 112, 65, 66, 114, 65, 114, 113, 66, 67, 115, 66, 115, 114, 67, 68, 116, 67, 116, 115, 68, 69, 117, 68, 117, 116, 69, 70, 118, 69, 118, 117, 70, 71, 119, 70, 119, 118, 71, 72, 120, 71, 120, 119, 72, 73, 121, 72, 121, 120, 73, 74, 122, 73, 122, 121, 74, 75, 123, 74, 123, 122, 75, 76, 124, 75, 124, 123, 76, 77, 125, 76, 125, 124, 77, 78, 126, 77, 126, 125, 78, 79, 127, 78, 127, 126, 79, 80, 128, 79, 128, 127, 80, 81, 129, 80, 129, 128, 81, 82, 130, 81, 130, 129, 82, 83, 131, 82, 131, 130, 83, 84, 132, 83, 132, 131, 84, 85, 133, 84, 133, 132, 85, 86, 134, 85, 134, 133, 86, 87, 135, 86, 135, 134, 87, 88, 136, 87, 136, 135, 88, 89, 137, 88, 137, 136, 89, 90, 138, 89, 138, 137, 90, 91, 139, 90, 139, 138, 91, 92, 140, 91, 140, 139, 92, 93, 141, 92, 141, 140, 93, 94, 142, 93, 142, 141, 94, 95, 143, 94, 143, 142, 95, 96, 144, 95, 144, 143, 96, 49, 97, 96, 97, 144, 97, 98, 146, 97, 146, 145, 98, 99, 147, 98, 147, 146, 99, 100, 148, 99, 148, 147, 100, 101, 149, 100, 149, 148, 101, 102, 150, 101, 150, 149, 102, 103, 151, 102, 151, 150, 103, 104, 152, 103, 152, 151, 104, 105, 153, 104, 153, 152, 105, 106, 154, 105, 154, 153, 106, 107, 155, 106, 155, 154, 107, 108, 156, 107, 156, 155, 108, 109, 157, 108, 157, 156, 109, 110, 158, 109, 158, 157, 110, 111, 159, 110, 159, 158, 111, 112, 160, 111, 160, 159, 112, 113, 161, 112, 161, 160, 113, 114, 162, 113, 162, 161, 114, 115, 163, 114, 163, 162, 115, 116, 164, 115, 164, 163, 116, 117, 165, 116, 165, 164, 117, 118, 166, 117, 166, 165, 118, 119, 167, 118, 167, 166, 119, 120, 168, 119, 168, 167, 120, 121, 169, 120, 169, 168, 121, 122, 170, 121, 170, 169, 122, 123, 171, 122, 171, 170, 123, 124, 172, 123, 172, 171, 124, 125, 173, 124, 173, 172, 125, 126, 174, 125, 174, 173, 126, 127, 175, 126, 175, 174, 127, 128, 176, 127, 176, 175, 128, 129, 177, 128, 177, 176, 129, 130, 178, 129, 178, 177, 130, 131, 179, 130, 179, 178, 131, 132, 180, 131, 180, 179, 132, 133, 181, 132, 181, 180, 133, 134, 182, 133, 182, 181, 134, 135, 183, 134, 183, 182, 135, 136, 184, 135, 184, 183, 136, 137, 185, 136, 185, 184, 137, 138, 186, 137, 186, 185, 138, 139, 187, 138, 187, 186, 139, 140, 188, 139, 188, 187, 140, 141, 189, 140, 189, 188, 141, 142, 190, 141, 190, 189, 142, 143, 191, 142, 191, 190, 143, 144, 192, 143, 192, 191, 144, 97, 145, 144, 145, 192, 145, 146, 194, 145, 194, 193, 146, 147, 195, 146, 195, 194, 147, 148, 196, 147, 196, 195, 148, 149, 197, 148, 197, 196, 149, 150, 198, 149, 198, 197, 150, 151, 199, 150, 199, 198, 151, 152, 200, 151, 200, 199, 152, 153, 201, 152, 201, 200, 153, 154, 202, 153, 202, 201, 154, 155, 203, 154, 203, 202, 155, 156, 204, 155, 204, 203, 156, 157, 205, 156, 205, 204, 157, 158, 206, 157, 206, 205, 158, 159, 207, 158, 207, 206, 159, 160, 208, 159, 208, 207, 160, 161, 209, 160, 209, 208, 161, 162, 210, 161, 210, 209, 162, 163, 211, 162, 211, 210, 163, 164, 212, 163, 212, 211, 164, 165, 213, 164, 213, 212, 165, 166, 214, 165, 214, 213, 166, 167, 215, 166, 215, 214, 167, 168, 216, 167, 216, 215, 168, 169, 217, 168, 217, 216, 169, 170, 218, 169, 218, 217, 170, 171, 219, 170, 219, 218, 171, 172, 220, 171, 220, 219, 172, 173, 221, 172, 221, 220, 173, 174, 222, 173, 222, 221, 174, 175, 223, 174, 223, 222, 175, 176, 224, 175, 224, 223, 176, 177, 225, 176, 225, 224, 177, 178, 226, 177, 226, 225, 178, 179, 227, 178, 227, 226, 179, 180, 228, 179, 228, 227, 180, 181, 229, 180, 229, 228, 181, 182, 230, 181, 230, 229, 182, 183, 231, 182, 231, 230, 183, 184, 232, 183, 232, 231, 184, 185, 233, 184, 233, 232, 185, 186, 234, 185, 234, 233, 186, 187, 235, 186, 235, 234, 187, 188, 236, 187, 236, 235, 188, 189, 237, 188, 237, 236, 189, 190, 238, 189, 238, 237, 190, 191, 239, 190, 239, 238, 191, 192, 240, 191, 240, 239, 192, 145, 193, 192, 193, 240, 193, 194, 242, 193, 242, 241, 194, 195, 243, 194, 243, 242, 195, 196, 244, 195, 244, 243, 196, 197, 245, 196, 245, 244, 197, 198, 246, 197, 246, 245, 198, 199, 247, 198, 247, 246, 199, 200, 248, 199, 248, 247, 200, 201, 249, 200, 249, 248, 201, 202, 250, 201, 250, 249, 202, 203, 251, 202, 251, 250, 203, 204, 252, 203, 252, 251, 204, 205, 253, 204, 253, 252, 205, 206, 254, 205, 254, 253, 206, 207, 255, 206, 255, 254, 207, 208, 256, 207, 256, 255, 208, 209, 257, 208, 257, 256, 209, 210, 258, 209, 258, 257, 210, 211, 259, 210, 259, 258, 211, 212, 260, 211, 260, 259, 212, 213, 261, 212, 261, 260, 213, 214, 262, 213, 262, 261, 214, 215, 263, 214, 263, 262, 215, 216, 264, 215, 264, 263, 216, 217, 265, 216, 265, 264, 217, 218, 266, 217, 266, 265, 218, 219, 267, 218, 267, 266, 219, 220, 268, 219, 268, 267, 220, 221, 269, 220, 269, 268, 221, 222, 270, 221, 270, 269, 222, 223, 271, 222, 271, 270, 223, 224, 272, 223, 272, 271, 224, 225, 273, 224, 273, 272, 225, 226, 274, 225, 274, 273, 226, 227, 275, 226, 275, 274, 227, 228, 276, 227, 276, 275, 228, 229, 277, 228, 277, 276, 229, 230, 278, 229, 278, 277, 230, 231, 279, 230, 279, 278, 231, 232, 280, 231, 280, 279, 232, 233, 281, 232, 281, 280, 233, 234, 282, 233, 282, 281, 234, 235, 283, 234, 283, 282, 235, 236, 284, 235, 284, 283, 236, 237, 285, 236, 285, 284, 237, 238, 286, 237, 286, 285, 238, 239, 287, 238, 287, 286, 239, 240, 288, 239, 288, 287, 240, 193, 241, 240, 241, 288, 241, 242, 290, 241, 290, 289, 242, 243, 291, 242, 291, 290, 243, 244, 292, 243, 292, 291, 244, 245, 293, 244, 293, 292, 245, 246, 294, 245, 294, 293, 246, 247, 295, 246, 295, 294, 247, 248, 296, 247, 296, 295, 248, 249, 297, 248, 297, 296, 249, 250, 298, 249, 298, 297, 250, 251, 299, 250, 299, 298, 251, 252, 300, 251, 300, 299, 252, 253, 301, 252, 301, 300, 253, 254, 302, 253, 302, 301, 254, 255, 303, 254, 303, 302, 255, 256, 304, 255, 304, 303, 256, 257, 305, 256, 305, 304, 257, 258, 306, 257, 306, 305, 258, 259, 307, 258, 307, 306, 259, 260, 308, 259, 308, 307, 260, 261, 309, 260, 309, 308, 261, 262, 310, 261, 310, 309, 262, 263, 311, 262, 311, 310, 263, 264, 312, 263, 312, 311, 264, 265, 313, 264, 313, 312, 265, 266, 314, 265, 314, 313, 266, 267, 315, 266, 315, 314, 267, 268, 316, 267, 316, 315, 268, 269, 317, 268, 317, 316, 269, 270, 318, 269, 318, 317, 270, 271, 319, 270, 319, 318, 271, 272, 320, 271, 320, 319, 272, 273, 321, 272, 321, 320, 273, 274, 322, 273, 322, 321, 274, 275, 323, 274, 323, 322, 275, 276, 324, 275, 324, 323, 276, 277, 325, 276, 325, 324, 277, 278, 326, 277, 326, 325, 278, 279, 327, 278, 327, 326, 279, 280, 328, 279, 328, 327, 280, 281, 329, 280, 329, 328, 281, 282, 330, 281, 330, 329, 282, 283, 331, 282, 331, 330, 283, 284, 332, 283, 332, 331, 284, 285, 333, 284, 333, 332, 285, 286, 334, 285, 334, 333, 286, 287, 335, 286, 335, 334, 287, 288, 336, 287, 336, 335, 288, 241, 289, 288, 289, 336, 289, 290, 338, 289, 338, 337, 290, 291, 339, 290, 339, 338, 291, 292, 340, 291, 340, 339, 292, 293, 341, 292, 341, 340, 293, 294, 342, 293, 342, 341, 294, 295, 343, 294, 343, 342, 295, 296, 344, 295, 344, 343, 296, 297, 345, 296, 345, 344, 297, 298, 346, 297, 346, 345, 298, 299, 347, 298, 347, 346, 299, 300, 348, 299, 348, 347, 300, 301, 349, 300, 349, 348, 301, 302, 350, 301, 350, 349, 302, 303, 351, 302, 351, 350, 303, 304, 352, 303, 352, 351, 304, 305, 353, 304, 353, 352, 305, 306, 354, 305, 354, 353, 306, 307, 355, 306, 355, 354, 307, 308, 356, 307, 356, 355, 308, 309, 357, 308, 357, 356, 309, 310, 358, 309, 358, 357, 310, 311, 359, 310, 359, 358, 311, 312, 360, 311, 360, 359, 312, 313, 361, 312, 361, 360, 313, 314, 362, 313, 362, 361, 314, 315, 363, 314, 363, 362, 315, 316, 364, 315, 364, 363, 316, 317, 365, 316, 365, 364, 317, 318, 366, 317, 366, 365, 318, 319, 367, 318, 367, 366, 319, 320, 368, 319, 368, 367, 320, 321, 369, 320, 369, 368, 321, 322, 370, 321, 370, 369, 322, 323, 371, 322, 371, 370, 323, 324, 372, 323, 372, 371, 324, 325, 373, 324, 373, 372, 325, 326, 374, 325, 374, 373, 326, 327, 375, 326, 375, 374, 327, 328, 376, 327, 376, 375, 328, 329, 377, 328, 377, 376, 329, 330, 378, 329, 378, 377, 330, 331, 379, 330, 379, 378, 331, 332, 380, 331, 380, 379, 332, 333, 381, 332, 381, 380, 333, 334, 382, 333, 382, 381, 334, 335, 383, 334, 383, 382, 335, 336, 384, 335, 384, 383, 336, 289, 337, 336, 337, 384, 337, 338, 386, 337, 386, 385, 338, 339, 387, 338, 387, 386, 339, 340, 388, 339, 388, 387, 340, 341, 389, 340, 389, 388, 341, 342, 390, 341, 390, 389, 342, 343, 391, 342, 391, 390, 343, 344, 392, 343, 392, 391, 344, 345, 393, 344, 393, 392, 345, 346, 394, 345, 394, 393, 346, 347, 395, 346, 395, 394, 347, 348, 396, 347, 396, 395, 348, 349, 397, 348, 397, 396, 349, 350, 398, 349, 398, 397, 350, 351, 399, 350, 399, 398, 351, 352, 400, 351, 400, 399, 352, 353, 401, 352, 401, 400, 353, 354, 402, 353, 402, 401, 354, 355, 403, 354, 403, 402, 355, 356, 404, 355, 404, 403, 356, 357, 405, 356, 405, 404, 357, 358, 406, 357, 406, 405, 358, 359, 407, 358, 407, 406, 359, 360, 408, 359, 408, 407, 360, 361, 409, 360, 409, 408, 361, 362, 410, 361, 410, 409, 362, 363, 411, 362, 411, 410, 363, 364, 412, 363, 412, 411, 364, 365, 413, 364, 413, 412, 365, 366, 414, 365, 414, 413, 366, 367, 415, 366, 415, 414, 367, 368, 416, 367, 416, 415, 368, 369, 417, 368, 417, 416, 369, 370, 418, 369, 418, 417, 370, 371, 419, 370, 419, 418, 371, 372, 420, 371, 420, 419, 372, 373, 421, 372, 421, 420, 373, 374, 422, 373, 422, 421, 374, 375, 423, 374, 423, 422, 375, 376, 424, 375, 424, 423, 376, 377, 425, 376, 425, 424, 377, 378, 426, 377, 426, 425, 378, 379, 427, 378, 427, 426, 379, 380, 428, 379, 428, 427, 380, 381, 429, 380, 429, 428, 381, 382, 430, 381, 430, 429, 382, 383, 431, 382, 431, 430, 383, 384, 432, 383, 432, 431, 384, 337, 385, 384, 385, 432, 385, 386, 434, 385, 434, 433, 386, 387, 435, 386, 435, 434, 387, 388, 436, 387, 436, 435, 388, 389, 437, 388, 437, 436, 389, 390, 438, 389, 438, 437, 390, 391, 439, 390, 439, 438, 391, 392, 440, 391, 440, 439, 392, 393, 441, 392, 441, 440, 393, 394, 442, 393, 442, 441, 394, 395, 443, 394, 443, 442, 395, 396, 444, 395, 444, 443, 396, 397, 445, 396, 445, 444, 397, 398, 446, 397, 446, 445, 398, 399, 447, 398, 447, 446, 399, 400, 448, 399, 448, 447, 400, 401, 449, 400, 449, 448, 401, 402, 450, 401, 450, 449, 402, 403, 451, 402, 451, 450, 403, 404, 452, 403, 452, 451, 404, 405, 453, 404, 453, 452, 405, 406, 454, 405, 454, 453, 406, 407, 455, 406, 455, 454, 407, 408, 456, 407, 456, 455, 408, 409, 457, 408, 457, 456, 409, 410, 458, 409, 458, 457, 410, 411, 459, 410, 459, 458, 411, 412, 460, 411, 460, 459, 412, 413, 461, 412, 461, 460, 413, 414, 462, 413, 462, 461, 414, 415, 463, 414, 463, 462, 415, 416, 464, 415, 464, 463, 416, 417, 465, 416, 465, 464, 417, 418, 466, 417, 466, 465, 418, 419, 467, 418, 467, 466, 419, 420, 468, 419, 468, 467, 420, 421, 469, 420, 469, 468, 421, 422, 470, 421, 470, 469, 422, 423, 471, 422, 471, 470, 423, 424, 472, 423, 472, 471, 424, 425, 473, 424, 473, 472, 425, 426, 474, 425, 474, 473, 426, 427, 475, 426, 475, 474, 427, 428, 476, 427, 476, 475, 428, 429, 477, 428, 477, 476, 429, 430, 478, 429, 478, 477, 430, 431, 479, 430, 479, 478, 431, 432, 480, 431, 480, 479, 432, 385, 433, 432, 433, 480, 433, 434, 482, 433, 482, 481, 434, 435, 483, 434, 483, 482, 435, 436, 484, 435, 484, 483, 436, 437, 485, 436, 485, 484, 437, 438, 486, 437, 486, 485, 438, 439, 487, 438, 487, 486, 439, 440, 488, 439, 488, 487, 440, 441, 489, 440, 489, 488, 441, 442, 490, 441, 490, 489, 442, 443, 491, 442, 491, 490, 443, 444, 492, 443, 492, 491, 444, 445, 493, 444, 493, 492, 445, 446, 494, 445, 494, 493, 446, 447, 495, 446, 495, 494, 447, 448, 496, 447, 496, 495, 448, 449, 497, 448, 497, 496, 449, 450, 498, 449, 498, 497, 450, 451, 499, 450, 499, 498, 451, 452, 500, 451, 500, 499, 452, 453, 501, 452, 501, 500, 453, 454, 502, 453, 502, 501, 454, 455, 503, 454, 503, 502, 455, 456, 504, 455, 504, 503, 456, 457, 505, 456, 505, 504, 457, 458, 506, 457, 506, 505, 458, 459, 507, 458, 507, 506, 459, 460, 508, 459, 508, 507, 460, 461, 509, 460, 509, 508, 461, 462, 510, 461, 510, 509, 462, 463, 511, 462, 511, 510, 463, 464, 512, 463, 512, 511, 464, 465, 513, 464, 513, 512, 465, 466, 514, 465, 514, 513, 466, 467, 515, 466, 515, 514, 467, 468, 516, 467, 516, 515, 468, 469, 517, 468, 517, 516, 469, 470, 518, 469, 518, 517, 470, 471, 519, 470, 519, 518, 471, 472, 520, 471, 520, 519, 472, 473, 521, 472, 521, 520, 473, 474, 522, 473, 522, 521, 474, 475, 523, 474, 523, 522, 475, 476, 524, 475, 524, 523, 476, 477, 525, 476, 525, 524, 477, 478, 526, 477, 526, 525, 478, 479, 527, 478, 527, 526, 479, 480, 528, 479, 528, 527, 480, 433, 481, 480, 481, 528, 529, 481, 482, 529, 482, 483, 529, 483, 484, 529, 484, 485, 529, 485, 486, 529, 486, 487, 529, 487, 488, 529, 488, 489, 529, 489, 490, 529, 490, 491, 529, 491, 492, 529, 492, 493, 529, 493, 494, 529, 494, 495, 529, 495, 496, 529, 496, 497, 529, 497, 498, 529, 498, 499, 529, 499, 500, 529, 500, 501, 529, 501, 502, 529, 502, 503, 529, 503, 504, 529, 504, 505, 529, 505, 506, 529, 506, 507, 529, 507, 508, 529, 508, 509, 529, 509, 510, 529, 510, 511, 529, 511, 512, 529, 512, 513, 529, 513, 514, 529, 514, 515, 529, 515, 516, 529, 516, 517, 529, 517, 518, 529, 518, 519, 529, 519, 520, 529, 520, 521, 529, 521, 522, 529, 522, 523, 529, 523, 524, 529, 524, 525, 529, 525, 526, 529, 526, 527, 529, 527, 528, 529, 528, 481, 530, 532, 531, 530, 533, 532, 530, 534, 533, 530, 535, 534, 530, 536, 535, 530, 537, 536, 530, 538, 537, 530, 539, 538, 530, 540, 539, 530, 541, 540, 530, 542, 541, 530, 543, 542, 530, 544, 543, 530, 545, 544, 530, 546, 545, 530, 547, 546, 530, 548, 547, 530, 549, 548, 530, 550, 549, 530, 551, 550, 530, 552, 551, 530, 553, 552, 530, 554, 553, 530, 555, 554, 530, 556, 555, 530, 557, 556, 530, 558, 557, 530, 559, 558, 530, 560, 559, 530, 561, 560, 530, 562, 561, 530, 563, 562, 530, 564, 563, 530, 565, 564, 530, 566, 565, 530, 567, 566, 530, 568, 567, 530, 569, 568, 530, 570, 569, 530, 571, 570, 530, 572, 571, 530, 573, 572, 530, 574, 573, 530, 575, 574, 530, 576, 575, 530, 577, 576, 530, 578, 577, 530, 531, 578, 531, 532, 580, 531, 580, 579, 532, 533, 581, 532, 581, 580, 533, 534, 582, 533, 582, 581, 534, 535, 583, 534, 583, 582, 535, 536, 584, 535, 584, 583, 536, 537, 585, 536, 585, 584, 537, 538, 586, 537, 586, 585, 538, 539, 587, 538, 587, 586, 539, 540, 588, 539, 588, 587, 540, 541, 589, 540, 589, 588, 541, 542, 590, 541, 590, 589, 542, 543, 591, 542, 591, 590, 543, 544, 592, 543, 592, 591, 544, 545, 593, 544, 593, 592, 545, 546, 594, 545, 594, 593, 546, 547, 595, 546, 595, 594, 547, 548, 596, 547, 596, 595, 548, 549, 597, 548, 597, 596, 549, 550, 598, 549, 598, 597, 550, 551, 599, 550, 599, 598, 551, 552, 600, 551, 600, 599, 552, 553, 601, 552, 601, 600, 553, 554, 602, 553, 602, 601, 554, 555, 603, 554, 603, 602, 555, 556, 604, 555, 604, 603, 556, 557, 605, 556, 605, 604, 557, 558, 606, 557, 606, 605, 558, 559, 607, 558, 607, 606, 559, 560, 608, 559, 608, 607, 560, 561, 609, 560, 609, 608, 561, 562, 610, 561, 610, 609, 562, 563, 611, 562, 611, 610, 563, 564, 612, 563, 612, 611, 564, 565, 613, 564, 613, 612, 565, 566, 614, 565, 614, 613, 566, 567, 615, 566, 615, 614, 567, 568, 616, 567, 616, 615, 568, 569, 617, 568, 617, 616, 569, 570, 618, 569, 618, 617, 570, 571, 619, 570, 619, 618, 571, 572, 620, 571, 620, 619, 572, 573, 621, 572, 621, 620, 573, 574, 622, 573, 622, 621, 574, 575, 623, 574, 623, 622, 575, 576, 624, 575, 624, 623, 576, 577, 625, 576, 625, 624, 577, 578, 626, 577, 626, 625, 578, 531, 579, 578, 579, 626, 627, 579, 580, 627, 580, 581, 627, 581, 582, 627, 582, 583, 627, 583, 584, 627, 584, 585, 627, 585, 586, 627, 586, 587, 627, 587, 588, 627, 588, 589, 627, 589, 590, 627, 590, 591, 627, 591, 592, 627, 592, 593, 627, 593, 594, 627, 594, 595, 627, 595, 596, 627, 596, 597, 627, 597, 598, 627, 598, 599, 627, 599, 600, 627, 600, 601, 627, 601, 602, 627, 602, 603, 627, 603, 604, 627, 604, 605, 627, 605, 606, 627, 606, 607, 627, 607, 608, 627, 608, 609, 627, 609, 610, 627, 610, 611, 627, 611, 612, 627, 612, 613, 627, 613, 614, 627, 614, 615, 627, 615, 616, 627, 616, 617, 627, 617, 618, 627, 618, 619, 627, 619, 620, 627, 620, 621, 627, 621, 622, 627, 622, 623, 627, 623, 624, 627, 624, 625, 627, 625, 626, 627, 626, 579]
            point3f[] points = [(0.000000, 0.000000, 0.000000), (0.032500, 0.000000, 0.000000), (0.032222, 0.004242, 0.000000), (0.031393, 0.008412, 0.000000), (0.030026, 0.012437, 0.000000), (0.028146, 0.016250, 0.000000), (0.025784, 0.019785, 0.000000), (0.022981, 0.022981, 0.000000), (0.019785, 0.025784, 0.000000), (0.016250, 0.028146, 0.000000), (0.012437, 0.030026, 0.000000), (0.008412, 0.031393, 0.000000), (0.004242, 0.032222, 0.000000), (0.000000, 0.032500, 0.000000), (-0.004242, 0.032222, 0.000000), (-0.008412, 0.031393, 0.000000), (-0.012437, 0.030026, 0.000000), (-0.016250, 0.028146, 0.000000), (-0.019785, 0.025784, 0.000000), (-0.022981, 0.022981, 0.000000), (-0.025784, 0.019785, 0.000000), (-0.028146, 0.016250, 0.000000), (-0.030026, 0.012437, 0.000000), (-0.031393, 0.008412, 0.000000), (-0.032222, 0.004242, 0.000000), (-0.032500, 0.000000, 0.000000), (-0.032222, -0.004242, 0.000000), (-0.031393, -0.008412, 0.000000), (-0.030026, -0.012437, 0.000000), (-0.028146, -0.016250, 0.000000), (-0.025784, -0.019785, 0.000000), (-0.022981, -0.022981, 0.000000), (-0.019785, -0.025784, 0.000000), (-0.016250, -0.028146, 0.000000), (-0.012437, -0.030026, 0.000000), (-0.008412, -0.031393, 0.000000), (-0.004242, -0.032222, 0.000000), (-0.000000, -0.032500, 0.000000), (0.004242, -0.032222, 0.000000), (0.008412, -0.031393, 0.000000), (0.012437, -0.030026, 0.000000), (0.016250, -0.028146, 0.000000), (0.019785, -0.025784, 0.000000), (0.022981, -0.022981, 0.000000), (0.025784, -0.019785, 0.000000), (0.028146, -0.016250, 0.000000), (0.030026, -0.012437, 0.000000), (0.031393, -0.008412, 0.000000), (0.032222, -0.004242, 0.000000), (0.032500, 0.000000, 0.145000), (0.032222, 0.004242, 0.145000), (0.031393, 0.008412, 0.145000), (0.030026, 0.012437, 0.145000), (0.028146, 0.016250, 0.145000), (0.025784, 0.019785, 0.145000), (0.022981, 0.022981, 0.145000), (0.019785, 0.025784, 0.145000), (0.016250, 0.028146, 0.145000), (0.012437, 0.030026, 0.145000), (0.008412, 0.031393, 0.145000), (0.004242, 0.032222, 0.145000), (0.000000, 0.032500, 0.145000), (-0.004242, 0.032222, 0.145000), (-0.008412, 0.031393, 0.145000), (-0.012437, 0.030026, 0.145000), (-0.016250, 0.028146, 0.145000), (-0.019785, 0.025784, 0.145000), (-0.022981, 0.022981, 0.145000), (-0.025784, 0.019785, 0.145000), (-0.028146, 0.016250, 0.145000), (-0.030026, 0.012437, 0.145000), (-0.031393, 0.008412, 0.145000), (-0.032222, 0.004242, 0.145000), (-0.032500, 0.000000, 0.145000), (-0.032222, -0.004242, 0.145000), (-0.031393, -0.008412, 0.145000), (-0.030026, -0.012437, 0.145000), (-0.028146, -0.016250, 0.145000), (-0.025784, -0.019785, 0.145000), (-0.022981, -0.022981, 0.145000), (-0.019785, -0.025784, 0.145000), (-0.016250, -0.028146, 0.145000), (-0.012437, -0.030026, 0.145000), (-0.008412, -0.031393, 0.145000), (-0.004242, -0.032222, 0.145000), (-0.000000, -0.032500, 0.145000), (0.004242, -0.032222, 0.145000), (0.008412, -0.031393, 0.145000), (0.012437, -0.030026, 0.145000), (0.016250, -0.028146, 0.145000), (0.019785, -0.025784, 0.145000), (0.022981, -0.022981, 0.145000), (0.025784, -0.019785, 0.145000), (0.028146, -0.016250, 0.145000), (0.030026, -0.012437, 0.145000), (0.031393, -0.008412, 0.145000), (0.032222, -0.004242, 0.145000), (0.032343, 0.000000, 0.150000), (0.032066, 0.004222, 0.150000), (0.031241, 0.008371, 0.150000), (0.029881, 0.012377, 0.150000), (0.028010, 0.016172, 0.150000), (0.025660, 0.019689, 0.150000), (0.022870, 0.022870, 0.150000), (0.019689, 0.025660, 0.150000), (0.016172, 0.028010, 0.150000), (0.012377, 0.029881, 0.150000), (0.008371, 0.031241, 0.150000), (0.004222, 0.032066, 0.150000), (0.000000, 0.032343, 0.150000), (-0.004222, 0.032066, 0.150000), (-0.008371, 0.031241, 0.150000), (-0.012377, 0.029881, 0.150000), (-0.016172, 0.028010, 0.150000), (-0.019689, 0.025660, 0.150000), (-0.022870, 0.022870, 0.150000), (-0.025660, 0.019689, 0.150000), (-0.028010, 0.016172, 0.150000), (-0.029881, 0.012377, 0.150000), (-0.031241, 0.008371, 0.150000), (-0.032066, 0.004222, 0.150000), (-0.032343, 0.000000, 0.150000), (-0.032066, -0.004222, 0.150000), (-0.031241, -0.008371, 0.150000), (-0.029881, -0.012377, 0.150000), (-0.028010, -0.016172, 0.150000), (-0.025660, -0.019689, 0.150000), (-0.022870, -0.022870, 0.150000), (-0.019689, -0.025660, 0.150000), (-0.016172, -0.028010, 0.150000), (-0.012377, -0.029881, 0.150000), (-0.008371, -0.031241, 0.150000), (-0.004222, -0.032066, 0.150000), (-0.000000, -0.032343, 0.150000), (0.004222, -0.032066, 0.150000), (0.008371, -0.031241, 0.150000), (0.012377, -0.029881, 0.150000), (0.016172, -0.028010, 0.150000), (0.019689, -0.025660, 0.150000), (0.022870, -0.022870, 0.150000), (0.025660, -0.019689, 0.150000), (0.028010, -0.016172, 0.150000), (0.029881, -0.012377, 0.150000), (0.031241, -0.008371, 0.150000), (0.032066, -0.004222, 0.150000), (0.031865, 0.000000, 0.155000), (0.031592, 0.004159, 0.155000), (0.030779, 0.008247, 0.155000), (0.029439, 0.012194, 0.155000), (0.027596, 0.015932, 0.155000), (0.025280, 0.019398, 0.155000), (0.022532, 0.022532, 0.155000), (0.019398, 0.025280, 0.155000), (0.015932, 0.027596, 0.155000), (0.012194, 0.029439, 0.155000), (0.008247, 0.030779, 0.155000), (0.004159, 0.031592, 0.155000), (0.000000, 0.031865, 0.155000), (-0.004159, 0.031592, 0.155000), (-0.008247, 0.030779, 0.155000), (-0.012194, 0.029439, 0.155000), (-0.015932, 0.027596, 0.155000), (-0.019398, 0.025280, 0.155000), (-0.022532, 0.022532, 0.155000), (-0.025280, 0.019398, 0.155000), (-0.027596, 0.015932, 0.155000), (-0.029439, 0.012194, 0.155000), (-0.030779, 0.008247, 0.155000), (-0.031592, 0.004159, 0.155000), (-0.031865, 0.000000, 0.155000), (-0.031592, -0.004159, 0.155000), (-0.030779, -0.008247, 0.155000), (-0.029439, -0.012194, 0.155000), (-0.027596, -0.015932, 0.155000), (-0.025280, -0.019398, 0.155000), (-0.022532, -0.022532, 0.155000), (-0.019398, -0.025280, 0.155000), (-0.015932, -0.027596, 0.155000), (-0.012194, -0.029439, 0.155000), (-0.008247, -0.030779, 0.155000), (-0.004159, -0.031592, 0.155000), (-0.000000, -0.031865, 0.155000), (0.004159, -0.031592, 0.155000), (0.008247, -0.030779, 0.155000), (0.012194, -0.029439, 0.155000), (0.015932, -0.027596, 0.155000), (0.019398, -0.025280, 0.155000), (0.022532, -0.022532, 0.155000), (0.025280, -0.019398, 0.155000), (0.027596, -0.015932, 0.155000), (0.029439, -0.012194, 0.155000), (0.030779, -0.008247, 0.155000), (0.031592, -0.004159, 0.155000), (0.031040, 0.000000, 0.160000), (0.030775, 0.004052, 0.160000), (0.029983, 0.008034, 0.160000), (0.028678, 0.011879, 0.160000), (0.026882, 0.015520, 0.160000), (0.024626, 0.018896, 0.160000), (0.021949, 0.021949, 0.160000), (0.018896, 0.024626, 0.160000), (0.015520, 0.026882, 0.160000), (0.011879, 0.028678, 0.160000), (0.008034, 0.029983, 0.160000), (0.004052, 0.030775, 0.160000), (0.000000, 0.031040, 0.160000), (-0.004052, 0.030775, 0.160000), (-0.008034, 0.029983, 0.160000), (-0.011879, 0.028678, 0.160000), (-0.015520, 0.026882, 0.160000), (-0.018896, 0.024626, 0.160000), (-0.021949, 0.021949, 0.160000), (-0.024626, 0.018896, 0.160000), (-0.026882, 0.015520, 0.160000), (-0.028678, 0.011879, 0.160000), (-0.029983, 0.008034, 0.160000), (-0.030775, 0.004052, 0.160000), (-0.031040, 0.000000, 0.160000), (-0.030775, -0.004052, 0.160000), (-0.029983, -0.008034, 0.160000), (-0.028678, -0.011879, 0.160000), (-0.026882, -0.015520, 0.160000), (-0.024626, -0.018896, 0.160000), (-0.021949, -0.021949, 0.160000), (-0.018896, -0.024626, 0.160000), (-0.015520, -0.026882, 0.160000), (-0.011879, -0.028678, 0.160000), (-0.008034, -0.029983, 0.160000), (-0.004052, -0.030775, 0.160000), (-0.000000, -0.031040, 0.160000), (0.004052, -0.030775, 0.160000), (0.008034, -0.029983, 0.160000), (0.011879, -0.028678, 0.160000), (0.015520, -0.026882, 0.160000), (0.018896, -0.024626, 0.160000), (0.021949, -0.021949, 0.160000), (0.024626, -0.018896, 0.160000), (0.026882, -0.015520, 0.160000), (0.028678, -0.011879, 0.160000), (0.029983, -0.008034, 0.160000), (0.030775, -0.004052, 0.160000), (0.029821, 0.000000, 0.165000), (0.029565, 0.003892, 0.165000), (0.028804, 0.007718, 0.165000), (0.027551, 0.011412, 0.165000), (0.025825, 0.014910, 0.165000), (0.023658, 0.018154, 0.165000), (0.021086, 0.021086, 0.165000), (0.018154, 0.023658, 0.165000), (0.014910, 0.025825, 0.165000), (0.011412, 0.027551, 0.165000), (0.007718, 0.028804, 0.165000), (0.003892, 0.029565, 0.165000), (0.000000, 0.029821, 0.165000), (-0.003892, 0.029565, 0.165000), (-0.007718, 0.028804, 0.165000), (-0.011412, 0.027551, 0.165000), (-0.014910, 0.025825, 0.165000), (-0.018154, 0.023658, 0.165000), (-0.021086, 0.021086, 0.165000), (-0.023658, 0.018154, 0.165000), (-0.025825, 0.014910, 0.165000), (-0.027551, 0.011412, 0.165000), (-0.028804, 0.007718, 0.165000), (-0.029565, 0.003892, 0.165000), (-0.029821, 0.000000, 0.165000), (-0.029565, -0.003892, 0.165000), (-0.028804, -0.007718, 0.165000), (-0.027551, -0.011412, 0.165000), (-0.025825, -0.014910, 0.165000), (-0.023658, -0.018154, 0.165000), (-0.021086, -0.021086, 0.165000), (-0.018154, -0.023658, 0.165000), (-0.014910, -0.025825, 0.165000), (-0.011412, -0.027551, 0.165000), (-0.007718, -0.028804, 0.165000), (-0.003892, -0.029565, 0.165000), (-0.000000, -0.029821, 0.165000), (0.003892, -0.029565, 0.165000), (0.007718, -0.028804, 0.165000), (0.011412, -0.027551, 0.165000), (0.014910, -0.025825, 0.165000), (0.018154, -0.023658, 0.165000), (0.021086, -0.021086, 0.165000), (0.023658, -0.018154, 0.165000), (0.025825, -0.014910, 0.165000), (0.027551, -0.011412, 0.165000), (0.028804, -0.007718, 0.165000), (0.029565, -0.003892, 0.165000), (0.028112, 0.000000, 0.170000), (0.027872, 0.003669, 0.170000), (0.027155, 0.007276, 0.170000), (0.025973, 0.010758, 0.170000), (0.024346, 0.014056, 0.170000), (0.022303, 0.017114, 0.170000), (0.019879, 0.019879, 0.170000), (0.017114, 0.022303, 0.170000), (0.014056, 0.024346, 0.170000), (0.010758, 0.025973, 0.170000), (0.007276, 0.027155, 0.170000), (0.003669, 0.027872, 0.170000), (0.000000, 0.028112, 0.170000), (-0.003669, 0.027872, 0.170000), (-0.007276, 0.027155, 0.170000), (-0.010758, 0.025973, 0.170000), (-0.014056, 0.024346, 0.170000), (-0.017114, 0.022303, 0.170000), (-0.019879, 0.019879, 0.170000), (-0.022303, 0.017114, 0.170000), (-0.024346, 0.014056, 0.170000), (-0.025973, 0.010758, 0.170000), (-0.027155, 0.007276, 0.170000), (-0.027872, 0.003669, 0.170000), (-0.028112, 0.000000, 0.170000), (-0.027872, -0.003669, 0.170000), (-0.027155, -0.007276, 0.170000), (-0.025973, -0.010758, 0.170000), (-0.024346, -0.014056, 0.170000), (-0.022303, -0.017114, 0.170000), (-0.019879, -0.019879, 0.170000), (-0.017114, -0.022303, 0.170000), (-0.014056, -0.024346, 0.170000), (-0.010758, -0.025973, 0.170000), (-0.007276, -0.027155, 0.170000), (-0.003669, -0.027872, 0.170000), (-0.000000, -0.028112, 0.170000), (0.003669, -0.027872, 0.170000), (0.007276, -0.027155, 0.170000), (0.010758, -0.025973, 0.170000), (0.014056, -0.024346, 0.170000), (0.017114, -0.022303, 0.170000), (0.019879, -0.019879, 0.170000), (0.022303, -0.017114, 0.170000), (0.024346, -0.014056, 0.170000), (0.025973, -0.010758, 0.170000), (0.027155, -0.007276, 0.170000), (0.027872, -0.003669, 0.170000), (0.025729, 0.000000, 0.175000), (0.025509, 0.003358, 0.175000), (0.024852, 0.006659, 0.175000), (0.023770, 0.009846, 0.175000), (0.022282, 0.012864, 0.175000), (0.020412, 0.015663, 0.175000), (0.018193, 0.018193, 0.175000), (0.015663, 0.020412, 0.175000), (0.012864, 0.022282, 0.175000), (0.009846, 0.023770, 0.175000), (0.006659, 0.024852, 0.175000), (0.003358, 0.025509, 0.175000), (0.000000, 0.025729, 0.175000), (-0.003358, 0.025509, 0.175000), (-0.006659, 0.024852, 0.175000), (-0.009846, 0.023770, 0.175000), (-0.012864, 0.022282, 0.175000), (-0.015663, 0.020412, 0.175000), (-0.018193, 0.018193, 0.175000), (-0.020412, 0.015663, 0.175000), (-0.022282, 0.012864, 0.175000), (-0.023770, 0.009846, 0.175000), (-0.024852, 0.006659, 0.175000), (-0.025509, 0.003358, 0.175000), (-0.025729, 0.000000, 0.175000), (-0.025509, -0.003358, 0.175000), (-0.024852, -0.006659, 0.175000), (-0.023770, -0.009846, 0.175000), (-0.022282, -0.012864, 0.175000), (-0.020412, -0.015663, 0.175000), (-0.018193, -0.018193, 0.175000), (-0.015663, -0.020412, 0.175000), (-0.012864, -0.022282, 0.175000), (-0.009846, -0.023770, 0.175000), (-0.006659, -0.024852, 0.175000), (-0.003358, -0.025509, 0.175000), (-0.000000, -0.025729, 0.175000), (0.003358, -0.025509, 0.175000), (0.006659, -0.024852, 0.175000), (0.009846, -0.023770, 0.175000), (0.012864, -0.022282, 0.175000), (0.015663, -0.020412, 0.175000), (0.018193, -0.018193, 0.175000), (0.020412, -0.015663, 0.175000), (0.022282, -0.012864, 0.175000), (0.023770, -0.009846, 0.175000), (0.024852, -0.006659, 0.175000), (0.025509, -0.003358, 0.175000), (0.022182, 0.000000, 0.180000), (0.021993, 0.002895, 0.180000), (0.021427, 0.005741, 0.180000), (0.020494, 0.008489, 0.180000), (0.019211, 0.011091, 0.180000), (0.017599, 0.013504, 0.180000), (0.015685, 0.015685, 0.180000), (0.013504, 0.017599, 0.180000), (0.011091, 0.019211, 0.180000), (0.008489, 0.020494, 0.180000), (0.005741, 0.021427, 0.180000), (0.002895, 0.021993, 0.180000), (0.000000, 0.022182, 0.180000), (-0.002895, 0.021993, 0.180000), (-0.005741, 0.021427, 0.180000), (-0.008489, 0.020494, 0.180000), (-0.011091, 0.019211, 0.180000), (-0.013504, 0.017599, 0.180000), (-0.015685, 0.015685, 0.180000), (-0.017599, 0.013504, 0.180000), (-0.019211, 0.011091, 0.180000), (-0.020494, 0.008489, 0.180000), (-0.021427, 0.005741, 0.180000), (-0.021993, 0.002895, 0.180000), (-0.022182, 0.000000, 0.180000), (-0.021993, -0.002895, 0.180000), (-0.021427, -0.005741, 0.180000), (-0.020494, -0.008489, 0.180000), (-0.019211, -0.011091, 0.180000), (-0.017599, -0.013504, 0.180000), (-0.015685, -0.015685, 0.180000), (-0.013504, -0.017599, 0.180000), (-0.011091, -0.019211, 0.180000), (-0.008489, -0.020494, 0.180000), (-0.005741, -0.021427, 0.180000), (-0.002895, -0.021993, 0.180000), (-0.000000, -0.022182, 0.180000), (0.002895, -0.021993, 0.180000), (0.005741, -0.021427, 0.180000), (0.008489, -0.020494, 0.180000), (0.011091, -0.019211, 0.180000), (0.013504, -0.017599, 0.180000), (0.015685, -0.015685, 0.180000), (0.017599, -0.013504, 0.180000), (0.019211, -0.011091, 0.180000), (0.020494, -0.008489, 0.180000), (0.021427, -0.005741, 0.180000), (0.021993, -0.002895, 0.180000), (0.012500, 0.000000, 0.185000), (0.012393, 0.001632, 0.185000), (0.012074, 0.003235, 0.185000), (0.011548, 0.004784, 0.185000), (0.010825, 0.006250, 0.185000), (0.009917, 0.007610, 0.185000), (0.008839, 0.008839, 0.185000), (0.007610, 0.009917, 0.185000), (0.006250, 0.010825, 0.185000), (0.004784, 0.011548, 0.185000), (0.003235, 0.012074, 0.185000), (0.001632, 0.012393, 0.185000), (0.000000, 0.012500, 0.185000), (-0.001632, 0.012393, 0.185000), (-0.003235, 0.012074, 0.185000), (-0.004784, 0.011548, 0.185000), (-0.006250, 0.010825, 0.185000), (-0.007610, 0.009917, 0.185000), (-0.008839, 0.008839, 0.185000), (-0.009917, 0.007610, 0.185000), (-0.010825, 0.006250, 0.185000), (-0.011548, 0.004784, 0.185000), (-0.012074, 0.003235, 0.185000), (-0.012393, 0.001632, 0.185000), (-0.012500, 0.000000, 0.185000), (-0.012393, -0.001632, 0.185000), (-0.012074, -0.003235, 0.185000), (-0.011548, -0.004784, 0.185000), (-0.010825, -0.006250, 0.185000), (-0.009917, -0.007610, 0.185000), (-0.008839, -0.008839, 0.185000), (-0.007610, -0.009917, 0.185000), (-0.006250, -0.010825, 0.185000), (-0.004784, -0.011548, 0.185000), (-0.003235, -0.012074, 0.185000), (-0.001632, -0.012393, 0.185000), (-0.000000, -0.012500, 0.185000), (0.001632, -0.012393, 0.185000), (0.003235, -0.012074, 0.185000), (0.004784, -0.011548, 0.185000), (0.006250, -0.010825, 0.185000), (0.007610, -0.009917, 0.185000), (0.008839, -0.008839, 0.185000), (0.009917, -0.007610, 0.185000), (0.010825, -0.006250, 0.185000), (0.011548, -0.004784, 0.185000), (0.012074, -0.003235, 0.185000), (0.012393, -0.001632, 0.185000), (0.012500, 0.000000, 0.195000), (0.012393, 0.001632, 0.195000), (0.012074, 0.003235, 0.195000), (0.011548, 0.004784, 0.195000), (0.010825, 0.006250, 0.195000), (0.009917, 0.007610, 0.195000), (0.008839, 0.008839, 0.195000), (0.007610, 0.009917, 0.195000), (0.006250, 0.010825, 0.195000), (0.004784, 0.011548, 0.195000), (0.003235, 0.012074, 0.195000), (0.001632, 0.012393, 0.195000), (0.000000, 0.012500, 0.195000), (-0.001632, 0.012393, 0.195000), (-0.003235, 0.012074, 0.195000), (-0.004784, 0.011548, 0.195000), (-0.006250, 0.010825, 0.195000), (-0.007610, 0.009917, 0.195000), (-0.008839, 0.008839, 0.195000), (-0.009917, 0.007610, 0.195000), (-0.010825, 0.006250, 0.195000), (-0.011548, 0.004784, 0.195000), (-0.012074, 0.003235, 0.195000), (-0.012393, 0.001632, 0.195000), (-0.012500, 0.000000, 0.195000), (-0.012393, -0.001632, 0.195000), (-0.012074, -0.003235, 0.195000), (-0.011548, -0.004784, 0.195000), (-0.010825, -0.006250, 0.195000), (-0.009917, -0.007610, 0.195000), (-0.008839, -0.008839, 0.195000), (-0.007610, -0.009917, 0.195000), (-0.006250, -0.010825, 0.195000), (-0.004784, -0.011548, 0.195000), (-0.003235, -0.012074, 0.195000), (-0.001632, -0.012393, 0.195000), (-0.000000, -0.012500, 0.195000), (0.001632, -0.012393, 0.195000), (0.003235, -0.012074, 0.195000), (0.004784, -0.011548, 0.195000), (0.006250, -0.010825, 0.195000), (0.007610, -0.009917, 0.195000), (0.008839, -0.008839, 0.195000), (0.009917, -0.007610, 0.195000), (0.010825, -0.006250, 0.195000), (0.011548, -0.004784, 0.195000), (0.012074, -0.003235, 0.195000), (0.012393, -0.001632, 0.195000), (0.000000, 0.000000, 0.195000), (0.000000, 0.000000, 0.195000), (0.015000, 0.000000, 0.195000), (0.014872, 0.001958, 0.195000), (0.014489, 0.003882, 0.195000), (0.013858, 0.005740, 0.195000), (0.012990, 0.007500, 0.195000), (0.011900, 0.009131, 0.195000), (0.010607, 0.010607, 0.195000), (0.009131, 0.011900, 0.195000), (0.007500, 0.012990, 0.195000), (0.005740, 0.013858, 0.195000), (0.003882, 0.014489, 0.195000), (0.001958, 0.014872, 0.195000), (0.000000, 0.015000, 0.195000), (-0.001958, 0.014872, 0.195000), (-0.003882, 0.014489, 0.195000), (-0.005740, 0.013858, 0.195000), (-0.007500, 0.012990, 0.195000), (-0.009131, 0.011900, 0.195000), (-0.010607, 0.010607, 0.195000), (-0.011900, 0.009131, 0.195000), (-0.012990, 0.007500, 0.195000), (-0.013858, 0.005740, 0.195000), (-0.014489, 0.003882, 0.195000), (-0.014872, 0.001958, 0.195000), (-0.015000, 0.000000, 0.195000), (-0.014872, -0.001958, 0.195000), (-0.014489, -0.003882, 0.195000), (-0.013858, -0.005740, 0.195000), (-0.012990, -0.007500, 0.195000), (-0.011900, -0.009131, 0.195000), (-0.010607, -0.010607, 0.195000), (-0.009131, -0.011900, 0.195000), (-0.007500, -0.012990, 0.195000), (-0.005740, -0.013858, 0.195000), (-0.003882, -0.014489, 0.195000), (-0.001958, -0.014872, 0.195000), (-0.000000, -0.015000, 0.195000), (0.001958, -0.014872, 0.195000), (0.003882, -0.014489, 0.195000), (0.005740, -0.013858, 0.195000), (0.007500, -0.012990, 0.195000), (0.009131, -0.011900, 0.195000), (0.010607, -0.010607, 0.195000), (0.011900, -0.009131, 0.195000), (0.012990, -0.007500, 0.195000), (0.013858, -0.005740, 0.195000), (0.014489, -0.003882, 0.195000), (0.014872, -0.001958, 0.195000), (0.015000, 0.000000, 0.212000), (0.014872, 0.001958, 0.212000), (0.014489, 0.003882, 0.212000), (0.013858, 0.005740, 0.212000), (0.012990, 0.007500, 0.212000), (0.011900, 0.009131, 0.212000), (0.010607, 0.010607, 0.212000), (0.009131, 0.011900, 0.212000), (0.007500, 0.012990, 0.212000), (0.005740, 0.013858, 0.212000), (0.003882, 0.014489, 0.212000), (0.001958, 0.014872, 0.212000), (0.000000, 0.015000, 0.212000), (-0.001958, 0.014872, 0.212000), (-0.003882, 0.014489, 0.212000), (-0.005740, 0.013858, 0.212000), (-0.007500, 0.012990, 0.212000), (-0.009131, 0.011900, 0.212000), (-0.010607, 0.010607, 0.212000), (-0.011900, 0.009131, 0.212000), (-0.012990, 0.007500, 0.212000), (-0.013858, 0.005740, 0.212000), (-0.014489, 0.003882, 0.212000), (-0.014872, 0.001958, 0.212000), (-0.015000, 0.000000, 0.212000), (-0.014872, -0.001958, 0.212000), (-0.014489, -0.003882, 0.212000), (-0.013858, -0.005740, 0.212000), (-0.012990, -0.007500, 0.212000), (-0.011900, -0.009131, 0.212000), (-0.010607, -0.010607, 0.212000), (-0.009131, -0.011900, 0.212000), (-0.007500, -0.012990, 0.212000), (-0.005740, -0.013858, 0.212000), (-0.003882, -0.014489, 0.212000), (-0.001958, -0.014872, 0.212000), (-0.000000, -0.015000, 0.212000), (0.001958, -0.014872, 0.212000), (0.003882, -0.014489, 0.212000), (0.005740, -0.013858, 0.212000), (0.007500, -0.012990, 0.212000), (0.009131, -0.011900, 0.212000), (0.010607, -0.010607, 0.212000), (0.011900, -0.009131, 0.212000), (0.012990, -0.007500, 0.212000), (0.013858, -0.005740, 0.212000), (0.014489, -0.003882, 0.212000), (0.014872, -0.001958, 0.212000), (0.000000, 0.000000, 0.212000)]
            uniform token physics:approximation = "convexHull"
            uniform token purpose = "guide"
            uniform token subdivisionScheme = "none"
        }
    }
    def Scope "Looks"
    {
    }
}
