#usda 1.0
(
    defaultPrim = "counter_m040"
    metersPerUnit = 1
    upAxis = "Z"
)
def Xform "counter_m040"
{
    def Xform "Meshes" (
        prepend apiSchemas = ["PhysicsRigidBodyAPI"]
    )
    {
        def Mesh "visual"
        {
            int[] faceVertexCounts = [4, 4, 4, 4, 4, 4, 4, 4, 4, 4, 4, 4]
            int[] faceVertexIndices = [0, 1, 3, 2, 4, 6, 7, 5, 0, 4, 5, 1, 2, 3, 7, 6, 0, 2, 6, 4, 1, 5, 7, 3, 8, 9, 11, 10, 12, 14, 15, 13, 8, 12, 13, 9, 10, 11, 15, 14, 8, 10, 14, 12, 9, 13, 15, 11]
            point3f[] points = [(-0.315000, -1.300000, 0.000000), (-0.315000, -1.300000, 0.790000), (-0.315000, 1.300000, 0.000000), (-0.315000, 1.300000, 0.790000), (0.315000, -1.300000, 0.000000), (0.315000, -1.300000, 0.790000), (0.315000, 1.300000, 0.000000), (0.315000, 1.300000, 0.790000), (0.315000, -1.300000, 0.000000), (0.315000, -1.300000, 1.070000), (0.315000, 1.300000, 0.000000), (0.315000, 1.300000, 1.070000), (0.725000, -1.300000, 0.000000), (0.725000, -1.300000, 1.070000), (0.725000, 1.300000, 0.000000), (0.725000, 1.300000, 1.070000)]
            color3f[] primvars:displayColor = [(0.93, 0.93, 0.91)]
            uniform token subdivisionScheme = "none"
        }
        def Mesh "collision" (
            prepend apiSchemas = ["PhysicsCollisionAPI", "PhysicsMeshCollisionAPI"]
        )
        {
            int[] faceVertexCounts = [4, 4, 4, 4, 4, 4, 4, 4, 4, 4, 4, 4]
            int[] faceVertexIndices = [0, 1, 3, 2, 4, 6, 7, 5, 0, 4, 5, 1, 2, 3, 7, 6, 0, 2, 6, 4, 1, 5, 7, 3, 8, 9, 11, 10, 12, 14, 15, 13, 8, 12, 13, 9, 10, 11, 15, 14, 8, 10, 14, 12, 9, 13, 15, 11]
            point3f[] points = [(-0.315000, -1.300000, 0.000000), (-0.315000, -1.300000, 0.790000), (-0.315000, 1.300000, 0.000000), (-0.315000, 1.300000, 0.790000), (0.315000, -1.300000, 0.000000), (0.315000, -1.300000, 0.790000), (0.315000, 1.300000, 0.000000), (0.315000, 1.300000, 0.790000), (0.315000, -1.300000, 0.000000), (0.315000, -1.300000, 1.070000), (0.315000, 1.300000, 0.000000), (0.315000, 1.300000, 1.070000), (0.725000, -1.300000, 0.000000), (0.725000, -1.300000, 1.070000), (0.725000, 1.300000, 0.000000), (0.725000, 1.300000, 1.070000)]
            uniform token physics:approximation = "convexHull"
            uniform token purpose = "guide"
            uniform token subdivisionScheme = "none"
        }
    }
    def Scope "Looks"
    {
    }
}
