#usda 1.0
(
    defaultPrim = "sink_counter_m004"
    metersPerUnit = 1
    upAxis = "Z"
)
def Xform "sink_counter_m004"
{
    def Xform "Meshes" (
        prepend apiSchemas = ["PhysicsRigidBodyAPI"]
    )
    {
        def Mesh "visual"
        {
            int[] faceVertexCounts = [4, 4, 4, 4, 4, 4, 4, 4, 4, 4, 4, 4, 4, 4, 4, 4, 4, 4, 4, 4, 4, 4, 4, 4, 4, 4, 4, 4, 4, 4, 4, 4, 4, 4, 4, 4, 4, 4, 4, 4, 4, 4, 4, 4, 4, 4, 4, 4, 4, 4, 4, 4, 4, 4, 4, 4, 4, 4, 4, 4, 4, 4, 4, 4, 4, 4, 4, 4, 4, 4, 4, 4, 4, 4, 4, 4, 4, 4, 4, 4, 4, 4, 4, 4, 4, 4, 4, 4, 4, 4, 4, 4, 4, 4, 4, 4, 4, 4, 4, 4, 4, 4, 4, 4, 4, 4, 4, 4, 4, 4, 4, 4, 4, 4, 4, 4, 4, 4, 4, 4, 4, 4, 4, 4, 4, 4, 4, 4, 4, 4, 4, 4, 4, 4, 4, 4, 4, 4, 4, 4, 4, 4, 4, 4, 4, 4, 4, 4, 4, 4, 4, 4, 4, 4, 4, 4]
            int[] faceVertexIndices = [0, 1, 3, 2, 4, 6, 7, 5, 0, 4, 5, 1, 2, 3, 7, 6, 0, 2, 6, 4, 1, 5, 7, 3, 8, 9, 11, 10, 12, 14, 15, 13, 8, 12, 13, 9, 10, 11, 15, 14, 8, 10, 14, 12, 9, 13, 15, 11, 16, 17, 19, 18, 20, 22, 23, 21, 16, 20, 21, 17, 18, 19, 23, 22, 16, 18, 22, 20, 17, 21, 23, 19, 24, 25, 27, 26, 28, 30, 31, 29, 24, 28, 29, 25, 26, 27, 31, 30, 24, 26, 30, 28, 25, 29, 31, 27, 32, 33, 35, 34, 36, 38, 39, 37, 32, 36, 37, 33, 34, 35, 39, 38, 32, 34, 38, 36, 33, 37, 39, 35, 40, 41, 43, 42, 44, 46, 47, 45, 40, 44, 45, 41, 42, 43, 47, 46, 40, 42, 46, 44, 41, 45, 47, 43, 48, 49, 51, 50, 52, 54, 55, 53, 48, 52, 53, 49, 50, 51, 55, 54, 48, 50, 54, 52, 49, 53, 55, 51, 56, 57, 59, 58, 60, 62, 63, 61, 56, 60, 61, 57, 58, 59, 63, 62, 56, 58, 62, 60, 57, 61, 63, 59, 64, 65, 67, 66, 68, 70, 71, 69, 64, 68, 69, 65, 66, 67, 71, 70, 64, 66, 70, 68, 65, 69, 71, 67, 72, 73, 75, 74, 76, 78, 79, 77, 72, 76, 77, 73, 74, 75, 79, 78, 72, 74, 78, 76, 73, 77, 79, 75, 80, 81, 83, 82, 84, 86, 87, 85, 80, 84, 85, 81, 82, 83, 87, 86, 80, 82, 86, 84, 81, 85, 87, 83, 88, 89, 91, 90, 92, 94, 95, 93, 88, 92, 93, 89, 90, 91, 95, 94, 88, 90, 94, 92, 89, 93, 95, 91, 96, 97, 99, 98, 100, 102, 103, 101, 96, 100, 101, 97, 98, 99, 103, 102, 96, 98, 102, 100, 97, 101, 103, 99, 104, 105, 107, 106, 108, 110, 111, 109, 104, 108, 109, 105, 106, 107, 111, 110, 104, 106, 110, 108, 105, 109, 111, 107, 112, 113, 115, 114, 116, 118, 119, 117, 112, 116, 117, 113, 114, 115, 119, 118, 112, 114, 118, 116, 113, 117, 119, 115, 120, 121, 123, 122, 124, 126, 127, 125, 120, 124, 125, 121, 122, 123, 127, 126, 120, 122, 126, 124, 121, 125, 127, 123, 128, 129, 131, 130, 132, 134, 135, 133, 128, 132, 133, 129, 130, 131, 135, 134, 128, 130, 134, 132, 129, 133, 135, 131, 136, 137, 139, 138, 140, 142, 143, 141, 136, 140, 141, 137, 138, 139, 143, 142, 136, 138, 142, 140, 137, 141, 143, 139, 144, 145, 147, 146, 148, 150, 151, 149, 144, 148, 149, 145, 146, 147, 151, 150, 144, 146, 150, 148, 145, 149, 151, 147, 152, 153, 155, 154, 156, 158, 159, 157, 152, 156, 157, 153, 154, 155, 159, 158, 152, 154, 158, 156, 153, 157, 159, 155, 160, 161, 163, 162, 164, 166, 167, 165, 160, 164, 165, 161, 162, 163, 167, 166, 160, 162, 166, 164, 161, 165, 167, 163, 168, 169, 171, 170, 172, 174, 175, 173, 168, 172, 173, 169, 170, 171, 175, 174, 168, 170, 174, 172, 169, 173, 175, 171, 176, 177, 179, 178, 180, 182, 183, 181, 176, 180, 181, 177, 178, 179, 183, 182, 176, 178, 182, 180, 177, 181, 183, 179, 184, 185, 187, 186, 188, 190, 191, 189, 184, 188, 189, 185, 186, 187, 191, 190, 184, 186, 190, 188, 185, 189, 191, 187, 192, 193, 195, 194, 196, 198, 199, 197, 192, 196, 197, 193, 194, 195, 199, 198, 192, 194, 198, 196, 193, 197, 199, 195, 200, 201, 203, 202, 204, 206, 207, 205, 200, 204, 205, 201, 202, 203, 207, 206, 200, 202, 206, 204, 201, 205, 207, 203]
            point3f[] points = [(-1.040000, -0.205000, 0.000000), (-1.040000, -0.205000, 0.756000), (-1.040000, 0.205000, 0.000000), (-1.040000, 0.205000, 0.756000), (1.040000, -0.205000, 0.000000), (1.040000, -0.205000, 0.756000), (1.040000, 0.205000, 0.000000), (1.040000, 0.205000, 0.756000), (-1.040000, -0.205000, 0.756000), (-1.040000, -0.205000, 0.856000), (-1.040000, 0.205000, 0.756000), (-1.040000, 0.205000, 0.856000), (-0.230000, -0.205000, 0.756000), (-0.230000, -0.205000, 0.856000), (-0.230000, 0.205000, 0.756000), (-0.230000, 0.205000, 0.856000), (0.310000, -0.205000, 0.756000), (0.310000, -0.205000, 0.856000), (0.310000, 0.205000, 0.756000), (0.310000, 0.205000, 0.856000), (1.040000, -0.205000, 0.756000), (1.040000, -0.205000, 0.856000), (1.040000, 0.205000, 0.756000), (1.040000, 0.205000, 0.856000), (-0.230000, -0.205000, 0.756000), (-0.230000, -0.205000, 0.856000), (-0.230000, -0.165000, 0.756000), (-0.230000, -0.165000, 0.856000), (0.310000, -0.205000, 0.756000), (0.310000, -0.205000, 0.856000), (0.310000, -0.165000, 0.756000), (0.310000, -0.165000, 0.856000), (-0.230000, 0.165000, 0.756000), (-0.230000, 0.165000, 0.856000), (-0.230000, 0.205000, 0.756000), (-0.230000, 0.205000, 0.856000), (0.310000, 0.165000, 0.756000), (0.310000, 0.165000, 0.856000), (0.310000, 0.205000, 0.756000), (0.310000, 0.205000, 0.856000), (-0.230000, -0.165000, 0.756000), (-0.230000, -0.165000, 0.766000), (-0.230000, 0.165000, 0.756000), (-0.230000, 0.165000, 0.766000), (0.310000, -0.165000, 0.756000), (0.310000, -0.165000, 0.766000), (0.310000, 0.165000, 0.756000), (0.310000, 0.165000, 0.766000), (-0.230000, -0.135000, 0.756000), (-0.230000, -0.135000, 0.856000), (-0.230000, 0.135000, 0.756000), (-0.230000, 0.135000, 0.856000), (-0.220000, -0.135000, 0.756000), (-0.220000, -0.135000, 0.856000), (-0.220000, 0.135000, 0.756000), (-0.220000, 0.135000, 0.856000), (0.300000, -0.135000, 0.756000), (0.300000, -0.135000, 0.856000), (0.300000, 0.135000, 0.756000), (0.300000, 0.135000, 0.856000), (0.310000, -0.135000, 0.756000), (0.310000, -0.135000, 0.856000), (0.310000, 0.135000, 0.756000), (0.310000, 0.135000, 0.856000), (-0.200000, -0.165000, 0.756000), (-0.200000, -0.165000, 0.856000), (-0.200000, -0.155000, 0.756000), (-0.200000, -0.155000, 0.856000), (0.280000, -0.165000, 0.756000), (0.280000, -0.165000, 0.856000), (0.280000, -0.155000, 0.756000), (0.280000, -0.155000, 0.856000), (-0.200000, 0.155000, 0.756000), (-0.200000, 0.155000, 0.856000), (-0.200000, 0.165000, 0.756000), (-0.200000, 0.165000, 0.856000), (0.280000, 0.155000, 0.756000), (0.280000, 0.155000, 0.856000), (0.280000, 0.165000, 0.756000), (0.280000, 0.165000, 0.856000), (0.310518, 0.135352, 0.756000), (0.310518, 0.135352, 0.856000), (0.300710, 0.133401, 0.756000), (0.300710, 0.133401, 0.856000), (0.308329, 0.146354, 0.756000), (0.308329, 0.146354, 0.856000), (0.298521, 0.144403, 0.756000), (0.298521, 0.144403, 0.856000), (0.308060, 0.147004, 0.756000), (0.308060, 0.147004, 0.856000), (0.299746, 0.141448, 0.756000), (0.299746, 0.141448, 0.856000), (0.301828, 0.156331, 0.756000), (0.301828, 0.156331, 0.856000), (0.293513, 0.150775, 0.756000), (0.293513, 0.150775, 0.856000), (0.301331, 0.156828, 0.756000), (0.301331, 0.156828, 0.856000), (0.295775, 0.148513, 0.756000), (0.295775, 0.148513, 0.856000), (0.292004, 0.163060, 0.756000), (0.292004, 0.163060, 0.856000), (0.286448, 0.154746, 0.756000), (0.286448, 0.154746, 0.856000), (0.291354, 0.163329, 0.756000), (0.291354, 0.163329, 0.856000), (0.289403, 0.153521, 0.756000), (0.289403, 0.153521, 0.856000), (0.280352, 0.165518, 0.756000), (0.280352, 0.165518, 0.856000), (0.278401, 0.155710, 0.756000), (0.278401, 0.155710, 0.856000), (-0.200352, 0.165518, 0.756000), (-0.200352, 0.165518, 0.856000), (-0.198401, 0.155710, 0.756000), (-0.198401, 0.155710, 0.856000), (-0.211354, 0.163329, 0.756000), (-0.211354, 0.163329, 0.856000), (-0.209403, 0.153521, 0.756000), (-0.209403, 0.153521, 0.856000), (-0.212004, 0.163060, 0.756000), (-0.212004, 0.163060, 0.856000), (-0.206448, 0.154746, 0.756000), (-0.206448, 0.154746, 0.856000), (-0.221331, 0.156828, 0.756000), (-0.221331, 0.156828, 0.856000), (-0.215775, 0.148513, 0.756000), (-0.215775, 0.148513, 0.856000), (-0.221828, 0.156331, 0.756000), (-0.221828, 0.156331, 0.856000), (-0.213513, 0.150775, 0.756000), (-0.213513, 0.150775, 0.856000), (-0.228060, 0.147004, 0.756000), (-0.228060, 0.147004, 0.856000), (-0.219746, 0.141448, 0.756000), (-0.219746, 0.141448, 0.856000), (-0.228329, 0.146354, 0.756000), (-0.228329, 0.146354, 0.856000), (-0.218521, 0.144403, 0.756000), (-0.218521, 0.144403, 0.856000), (-0.230518, 0.135352, 0.756000), (-0.230518, 0.135352, 0.856000), (-0.220710, 0.133401, 0.756000), (-0.220710, 0.133401, 0.856000), (-0.230518, -0.135352, 0.756000), (-0.230518, -0.135352, 0.856000), (-0.220710, -0.133401, 0.756000), (-0.220710, -0.133401, 0.856000), (-0.228329, -0.146354, 0.756000), (-0.228329, -0.146354, 0.856000), (-0.218521, -0.144403, 0.756000), (-0.218521, -0.144403, 0.856000), (-0.228060, -0.147004, 0.756000), (-0.228060, -0.147004, 0.856000), (-0.219746, -0.141448, 0.756000), (-0.219746, -0.141448, 0.856000), (-0.221828, -0.156331, 0.756000), (-0.221828, -0.156331, 0.856000), (-0.213513, -0.150775, 0.756000), (-0.213513, -0.150775, 0.856000), (-0.221331, -0.156828, 0.756000), (-0.221331, -0.156828, 0.856000), (-0.215775, -0.148513, 0.756000), (-0.215775, -0.148513, 0.856000), (-0.212004, -0.163060, 0.756000), (-0.212004, -0.163060, 0.856000), (-0.206448, -0.154746, 0.756000), (-0.206448, -0.154746, 0.856000), (-0.211354, -0.163329, 0.756000), (-0.211354, -0.163329, 0.856000), (-0.209403, -0.153521, 0.756000), (-0.209403, -0.153521, 0.856000), (-0.200352, -0.165518, 0.756000), (-0.200352, -0.165518, 0.856000), (-0.198401, -0.155710, 0.756000), (-0.198401, -0.155710, 0.856000), (0.280352, -0.165518, 0.756000), (0.280352, -0.165518, 0.856000), (0.278401, -0.155710, 0.756000), (0.278401, -0.155710, 0.856000), (0.291354, -0.163329, 0.756000), (0.291354, -0.163329, 0.856000), (0.289403, -0.153521, 0.756000), (0.289403, -0.153521, 0.856000), (0.292004, -0.163060, 0.756000), (0.292004, -0.163060, 0.856000), (0.286448, -0.154746, 0.756000), (0.286448, -0.154746, 0.856000), (0.301331, -0.156828, 0.756000), (0.301331, -0.156828, 0.856000), (0.295775, -0.148513, 0.756000), (0.295775, -0.148513, 0.856000), (0.301828, -0.156331, 0.756000), (0.301828, -0.156331, 0.856000), (0.293513, -0.150775, 0.756000), (0.293513, -0.150775, 0.856000), (0.308060, -0.147004, 0.756000), (0.308060, -0.147004, 0.856000), (0.299746, -0.141448, 0.756000), (0.299746, -0.141448, 0.856000), (0.308329, -0.146354, 0.756000), (0.308329, -0.146354, 0.856000), (0.298521, -0.144403, 0.756000), (0.298521, -0.144403, 0.856000), (0.310518, -0.135352, 0.756000), (0.310518, -0.135352, 0.856000), (0.300710, -0.133401, 0.756000), (0.300710, -0.133401, 0.856000)]
            color3f[] primvars:displayColor = [(0.93, 0.93, 0.91)]
            uniform token subdivisionScheme = "none"
        }
        def Mesh "collision" (
            prepend apiSchemas = ["PhysicsCollisionAPI", "PhysicsMeshCollisionAPI"]
        )
        {
            int[] faceVertexCounts = [4, 4, 4, 4, 4, 4, 4, 4, 4, 4, 4, 4, 4, 4, 4, 4, 4, 4, 4, 4, 4, 4, 4, 4, 4, 4, 4, 4, 4, 4, 4, 4, 4, 4, 4, 4, 4, 4, 4, 4, 4, 4, 4, 4, 4, 4, 4, 4, 4, 4, 4, 4, 4, 4, 4, 4, 4, 4, 4, 4, 4, 4, 4, 4, 4, 4, 4, 4, 4, 4, 4, 4, 4, 4, 4, 4, 4, 4, 4, 4, 4, 4, 4, 4, 4, 4, 4, 4, 4, 4, 4, 4, 4, 4, 4, 4, 4, 4, 4, 4, 4, 4, 4, 4, 4, 4, 4, 4, 4, 4, 4, 4, 4, 4, 4, 4, 4, 4, 4, 4, 4, 4, 4, 4, 4, 4, 4, 4, 4, 4, 4, 4, 4, 4, 4, 4, 4, 4, 4, 4, 4, 4, 4, 4, 4, 4, 4, 4, 4, 4, 4, 4, 4, 4, 4, 4]
            int[] faceVertexIndices = [0, 1, 3, 2, 4, 6, 7, 5, 0, 4, 5, 1, 2, 3, 7, 6, 0, 2, 6, 4, 1, 5, 7, 3, 8, 9, 11, 10, 12, 14, 15, 13, 8, 12, 13, 9, 10, 11, 15, 14, 8, 10, 14, 12, 9, 13, 15, 11, 16, 17, 19, 18, 20, 22, 23, 21, 16, 20, 21, 17, 18, 19, 23, 22, 16, 18, 22, 20, 17, 21, 23, 19, 24, 25, 27, 26, 28, 30, 31, 29, 24, 28, 29, 25, 26, 27, 31, 30, 24, 26, 30, 28, 25, 29, 31, 27, 32, 33, 35, 34, 36, 38, 39, 37, 32, 36, 37, 33, 34, 35, 39, 38, 32, 34, 38, 36, 33, 37, 39, 35, 40, 41, 43, 42, 44, 46, 47, 45, 40, 44, 45, 41, 42, 43, 47, 46, 40, 42, 46, 44, 41, 45, 47, 43, 48, 49, 51, 50, 52, 54, 55, 53, 48, 52, 53, 49, 50, 51, 55, 54, 48, 50, 54, 52, 49, 53, 55, 51, 56, 57, 59, 58, 60, 62, 63, 61, 56, 60, 61, 57, 58, 59, 63, 62, 56, 58, 62, 60, 57, 61, 63, 59, 64, 65, 67, 66, 68, 70, 71, 69, 64, 68, 69, 65, 66, 67, 71, 70, 64, 66, 70, 68, 65, 69, 71, 67, 72, 73, 75, 74, 76, 78, 79, 77, 72, 76, 77, 73, 74, 75, 79, 78, 72, 74, 78, 76, 73, 77, 79, 75, 80, 81, 83, 82, 84, 86, 87, 85, 80, 84, 85, 81, 82, 83, 87, 86, 80, 82, 86, 84, 81, 85, 87, 83, 88, 89, 91, 90, 92, 94, 95, 93, 88, 92, 93, 89, 90, 91, 95, 94, 88, 90, 94, 92, 89, 93, 95, 91, 96, 97, 99, 98, 100, 102, 103, 101, 96, 100, 101, 97, 98, 99, 103, 102, 96, 98, 102, 100, 97, 101, 103, 99, 104, 105, 107, 106, 108, 110, 111, 109, 104, 108, 109, 105, 106, 107, 111, 110, 104, 106, 110, 108, 105, 109, 111, 107, 112, 113, 115, 114, 116, 118, 119, 117, 112, 116, 117, 113, 114, 115, 119, 118, 112, 114, 118, 116, 113, 117, 119, 115, 120, 121, 123, 122, 124, 126, 127, 125, 120, 124, 125, 121, 122, 123, 127, 126, 120, 122, 126, 124, 121, 125, 127, 123, 128, 129, 131, 130, 132, 134, 135, 133, 128, 132, 133, 129, 130, 131, 135, 134, 128, 130, 134, 132, 129, 133, 135, 131, 136, 137, 139, 138, 140, 142, 143, 141, 136, 140, 141, 137, 138, 139, 143, 142, 136, 138, 142, 140, 137, 141, 143, 139, 144, 145, 147, 146, 148, 150, 151, 149, 144, 148, 149, 145, 146, 147, 151, 150, 144, 146, 150, 148, 145, 149, 151, 147, 152, 153, 155, 154, 156, 158, 159, 157, 152, 156, 157, 153, 154, 155, 159, 158, 152, 154, 158, 156, 153, 157, 159, 155, 160, 161, 163, 162, 164, 166, 167, 165, 160, 164, 165, 161, 162, 163, 167, 166, 160, 162, 166, 164, 161, 165, 167, 163, 168, 169, 171, 170, 172, 174, 175, 173, 168, 172, 173, 169, 170, 171, 175, 174, 168, 170, 174, 172, 169, 173, 175, 171, 176, 177, 179, 178, 180, 182, 183, 181, 176, 180, 181, 177, 178, 179, 183, 182, 176, 178, 182, 180, 177, 181, 183, 179, 184, 185, 187, 186, 188, 190, 191, 189, 184, 188, 189, 185, 186, 187, 191, 190, 184, 186, 190, 188, 185, 189, 191, 187, 192, 193, 195, 194, 196, 198, 199, 197, 192, 196, 197, 193, 194, 195, 199, 198, 192, 194, 198, 196, 193, 197, 199, 195, 200, 201, 203, 202, 204, 206, 207, 205, 200, 204, 205, 201, 202, 203, 207, 206, 200, 202, 206, 204, 201, 205, 207, 203]
            point3f[] points = [(-1.040000, -0.205000, 0.000000), (-1.040000, -0.205000, 0.756000), (-1.040000, 0.205000, 0.000000), (-1.040000, 0.205000, 0.756000), (1.040000, -0.205000, 0.000000), (1.040000, -0.205000, 0.756000), (1.040000, 0.205000, 0.000000), (1.040000, 0.205000, 0.756000), (-1.040000, -0.205000, 0.756000), (-1.040000, -0.205000, 0.856000), (-1.040000, 0.205000, 0.756000), (-1.040000, 0.205000, 0.856000), (-0.230000, -0.205000, 0.756000), (-0.230000, -0.205000, 0.856000), (-0.230000, 0.205000, 0.756000), (-0.230000, 0.205000, 0.856000), (0.310000, -0.205000, 0.756000), (0.310000, -0.205000, 0.856000), (0.310000, 0.205000, 0.756000), (0.310000, 0.205000, 0.856000), (1.040000, -0.205000, 0.756000), (1.040000, -0.205000, 0.856000), (1.040000, 0.205000, 0.756000), (1.040000, 0.205000, 0.856000), (-0.230000, -0.205000, 0.756000), (-0.230000, -0.205000, 0.856000), (-0.230000, -0.165000, 0.756000), (-0.230000, -0.165000, 0.856000), (0.310000, -0.205000, 0.756000), (0.310000, -0.205000, 0.856000), (0.310000, -0.165000, 0.756000), (0.310000, -0.165000, 0.856000), (-0.230000, 0.165000, 0.756000), (-0.230000, 0.165000, 0.856000), (-0.230000, 0.205000, 0.756000), (-0.230000, 0.205000, 0.856000), (0.310000, 0.165000, 0.756000), (0.310000, 0.165000, 0.856000), (0.310000, 0.205000, 0.756000), (0.310000, 0.205000, 0.856000), (-0.230000, -0.165000, 0.756000), (-0.230000, -0.165000, 0.766000), (-0.230000, 0.165000, 0.756000), (-0.230000, 0.165000, 0.766000), (0.310000, -0.165000, 0.756000), (0.310000, -0.165000, 0.766000), (0.310000, 0.165000, 0.756000), (0.310000, 0.165000, 0.766000), (-0.230000, -0.135000, 0.756000), (-0.230000, -0.135000, 0.856000), (-0.230000, 0.135000, 0.756000), (-0.230000, 0.135000, 0.856000), (-0.220000, -0.135000, 0.756000), (-0.220000, -0.135000, 0.856000), (-0.220000, 0.135000, 0.756000), (-0.220000, 0.135000, 0.856000), (0.300000, -0.135000, 0.756000), (0.300000, -0.135000, 0.856000), (0.300000, 0.135000, 0.756000), (0.300000, 0.135000, 0.856000), (0.310000, -0.135000, 0.756000), (0.310000, -0.135000, 0.856000), (0.310000, 0.135000, 0.756000), (0.310000, 0.135000, 0.856000), (-0.200000, -0.165000, 0.756000), (-0.200000, -0.165000, 0.856000), (-0.200000, -0.155000, 0.756000), (-0.200000, -0.155000, 0.856000), (0.280000, -0.165000, 0.756000), (0.280000, -0.165000, 0.856000), (0.280000, -0.155000, 0.756000), (0.280000, -0.155000, 0.856000), (-0.200000, 0.155000, 0.756000), (-0.200000, 0.155000, 0.856000), (-0.200000, 0.165000, 0.756000), (-0.200000, 0.165000, 0.856000), (0.280000, 0.155000, 0.756000), (0.280000, 0.155000, 0.856000), (0.280000, 0.165000, 0.756000), (0.280000, 0.165000, 0.856000), (0.310518, 0.135352, 0.756000), (0.310518, 0.135352, 0.856000), (0.300710, 0.133401, 0.756000), (0.300710, 0.133401, 0.856000), (0.308329, 0.146354, 0.756000), (0.308329, 0.146354, 0.856000), (0.298521, 0.144403, 0.756000), (0.298521, 0.144403, 0.856000), (0.308060, 0.147004, 0.756000), (0.308060, 0.147004, 0.856000), (0.299746, 0.141448, 0.756000), (0.299746, 0.141448, 0.856000), (0.301828, 0.156331, 0.756000), (0.301828, 0.156331, 0.856000), (0.293513, 0.150775, 0.756000), (0.293513, 0.150775, 0.856000), (0.301331, 0.156828, 0.756000), (0.301331, 0.156828, 0.856000), (0.295775, 0.148513, 0.756000), (0.295775, 0.148513, 0.856000), (0.292004, 0.163060, 0.756000), (0.292004, 0.163060, 0.856000), (0.286448, 0.154746, 0.756000), (0.286448, 0.154746, 0.856000), (0.291354, 0.163329, 0.756000), (0.291354, 0.163329, 0.856000), (0.289403, 0.153521, 0.756000), (0.289403, 0.153521, 0.856000), (0.280352, 0.165518, 0.756000), (0.280352, 0.165518, 0.856000), (0.278401, 0.155710, 0.756000), (0.278401, 0.155710, 0.856000), (-0.200352, 0.165518, 0.756000), (-0.200352, 0.165518, 0.856000), (-0.198401, 0.155710, 0.756000), (-0.198401, 0.155710, 0.856000), (-0.211354, 0.163329, 0.756000), (-0.211354, 0.163329, 0.856000), (-0.209403, 0.153521, 0.756000), (-0.209403, 0.153521, 0.856000), (-0.212004, 0.163060, 0.756000), (-0.212004, 0.163060, 0.856000), (-0.206448, 0.154746, 0.756000), (-0.206448, 0.154746, 0.856000), (-0.221331, 0.156828, 0.756000), (-0.221331, 0.156828, 0.856000), (-0.215775, 0.148513, 0.756000), (-0.215775, 0.148513, 0.856000), (-0.221828, 0.156331, 0.756000), (-0.221828, 0.156331, 0.856000), (-0.213513, 0.150775, 0.756000), (-0.213513, 0.150775, 0.856000), (-0.228060, 0.147004, 0.756000), (-0.228060, 0.147004, 0.856000), (-0.219746, 0.141448, 0.756000), (-0.219746, 0.141448, 0.856000), (-0.228329, 0.146354, 0.756000), (-0.228329, 0.146354, 0.856000), (-0.218521, 0.144403, 0.756000), (-0.218521, 0.144403, 0.856000), (-0.230518, 0.135352, 0.756000), (-0.230518, 0.135352, 0.856000), (-0.220710, 0.133401, 0.756000), (-0.220710, 0.133401, 0.856000), (-0.230518, -0.135352, 0.756000), (-0.230518, -0.135352, 0.856000), (-0.220710, -0.133401, 0.756000), (-0.220710, -0.133401, 0.856000), (-0.228329, -0.146354, 0.756000), (-0.228329, -0.146354, 0.856000), (-0.218521, -0.144403, 0.756000), (-0.218521, -0.144403, 0.856000), (-0.228060, -0.147004, 0.756000), (-0.228060, -0.147004, 0.856000), (-0.219746, -0.141448, 0.756000), (-0.219746, -0.141448, 0.856000), (-0.221828, -0.156331, 0.756000), (-0.221828, -0.156331, 0.856000), (-0.213513, -0.150775, 0.756000), (-0.213513, -0.150775, 0.856000), (-0.221331, -0.156828, 0.756000), (-0.221331, -0.156828, 0.856000), (-0.215775, -0.148513, 0.756000), (-0.215775, -0.148513, 0.856000), (-0.212004, -0.163060, 0.756000), (-0.212004, -0.163060, 0.856000), (-0.206448, -0.154746, 0.756000), (-0.206448, -0.154746, 0.856000), (-0.211354, -0.163329, 0.756000), (-0.211354, -0.163329, 0.856000), (-0.209403, -0.153521, 0.756000), (-0.209403, -0.153521, 0.856000), (-0.200352, -0.165518, 0.756000), (-0.200352, -0.165518, 0.856000), (-0.198401, -0.155710, 0.756000), (-0.198401, -0.155710, 0.856000), (0.280352, -0.165518, 0.756000), (0.280352, -0.165518, 0.856000), (0.278401, -0.155710, 0.756000), (0.278401, -0.155710, 0.856000), (0.291354, -0.163329, 0.756000), (0.291354, -0.163329, 0.856000), (0.289403, -0.153521, 0.756000), (0.289403, -0.153521, 0.856000), (0.292004, -0.163060, 0.756000), (0.292004, -0.163060, 0.856000), (0.286448, -0.154746, 0.756000), (0.286448, -0.154746, 0.856000), (0.301331, -0.156828, 0.756000), (0.301331, -0.156828, 0.856000), (0.295775, -0.148513, 0.756000), (0.295775, -0.148513, 0.856000), (0.301828, -0.156331, 0.756000), (0.301828, -0.156331, 0.856000), (0.293513, -0.150775, 0.756000), (0.293513, -0.150775, 0.856000), (0.308060, -0.147004, 0.756000), (0.308060, -0.147004, 0.856000), (0.299746, -0.141448, 0.756000), (0.299746, -0.141448, 0.856000), (0.308329, -0.146354, 0.756000), (0.308329, -0.146354, 0.856000), (0.298521, -0.144403, 0.756000), (0.298521, -0.144403, 0.856000), (0.310518, -0.135352, 0.756000), (0.310518, -0.135352, 0.856000), (0.300710, -0.133401, 0.756000), (0.300710, -0.133401, 0.856000)]
            uniform token physics:approximation = "convexHull"
            uniform token purpose = "guide"
            uniform token subdivisionScheme = "none"
        }
    }
    def Scope "Looks"
    {
    }
}
