#usda 1.0
(
    defaultPrim = "cart_p040"
    metersPerUnit = 1
    upAxis = "Z"
)
def Xform "cart_p040"
{
    def Xform "Meshes" (
        prepend apiSchemas = ["PhysicsRigidBodyAPI"]
    )
    {
        def Mesh "visual"
        {
            int[] faceVertexCounts = [4, 4, 4, 4, 4, 4, 4, 4, 4, 4, 4, 4, 16, 16, 4, 4, 4, 4, 4, 4, 4, 4, 4, 4, 4, 4, 4, 4, 4, 4, 16, 16, 4, 4, 4, 4, 4, 4, 4, 4, 4, 4, 4, 4, 4, 4, 4, 4, 16, 16, 4, 4, 4, 4, 4, 4, 4, 4, 4, 4, 4, 4, 4, 4, 4, 4, 16, 16, 4, 4, 4, 4, 4, 4, 4, 4, 4, 4, 4, 4, 4, 4, 4, 4, 16, 16, 4, 4, 4, 4, 4, 4, 4, 4, 4, 4, 4, 4, 4, 4, 4, 4, 16, 16, 4, 4, 4, 4, 4, 4, 4, 4, 4, 4, 4, 4, 4, 4, 4, 4, 16, 16, 4, 4, 4, 4, 4, 4, 4, 4, 4, 4, 4, 4, 4, 4, 4, 4]
            int[] faceVertexIndices = [0, 1, 3, 2, 4, 6, 7, 5, 0, 4, 5, 1, 2, 3, 7, 6, 0, 2, 6, 4, 1, 5, 7, 3, 8, 9, 11, 10, 12, 14, 15, 13, 8, 12, 13, 9, 10, 11, 15, 14, 8, 10, 14, 12, 9, 13, 15, 11, 31, 30, 29, 28, 27, 26, 25, 24, 23, 22, 21, 20, 19, 18, 17, 16, 32, 33, 34, 35, 36, 37, 38, 39, 40, 41, 42, 43, 44, 45, 46, 47, 16, 17, 33, 32, 17, 18, 34, 33, 18, 19, 35, 34, 19, 20, 36, 35, 20, 21, 37, 36, 21, 22, 38, 37, 22, 23, 39, 38, 23, 24, 40, 39, 24, 25, 41, 40, 25, 26, 42, 41, 26, 27, 43, 42, 27, 28, 44, 43, 28, 29, 45, 44, 29, 30, 46, 45, 30, 31, 47, 46, 31, 16, 32, 47, 63, 62, 61, 60, 59, 58, 57, 56, 55, 54, 53, 52, 51, 50, 49, 48, 64, 65, 66, 67, 68, 69, 70, 71, 72, 73, 74, 75, 76, 77, 78, 79, 48, 49, 65, 64, 49, 50, 66, 65, 50, 51, 67, 66, 51, 52, 68, 67, 52, 53, 69, 68, 53, 54, 70, 69, 54, 55, 71, 70, 55, 56, 72, 71, 56, 57, 73, 72, 57, 58, 74, 73, 58, 59, 75, 74, 59, 60, 76, 75, 60, 61, 77, 76, 61, 62, 78, 77, 62, 63, 79, 78, 63, 48, 64, 79, 95, 94, 93, 92, 91, 90, 89, 88, 87, 86, 85, 84, 83, 82, 81, 80, 96, 97, 98, 99, 100, 101, 102, 103, 104, 105, 106, 107, 108, 109, 110, 111, 80, 81, 97, 96, 81, 82, 98, 97, 82, 83, 99, 98, 83, 84, 100, 99, 84, 85, 101, 100, 85, 86, 102, 101, 86, 87, 103, 102, 87, 88, 104, 103, 88, 89, 105, 104, 89, 90, 106, 105, 90, 91, 107, 106, 91, 92, 108, 107, 92, 93, 109, 108, 93, 94, 110, 109, 94, 95, 111, 110, 95, 80, 96, 111, 127, 126, 125, 124, 123, 122, 121, 120, 119, 118, 117, 116, 115, 114, 113, 112, 128, 129, 130, 131, 132, 133, 134, 135, 136, 137, 138, 139, 140, 141, 142, 143, 112, 113, 129, 128, 113, 114, 130, 129, 114, 115, 131, 130, 115, 116, 132, 131, 116, 117, 133, 132, 117, 118, 134, 133, 118, 119, 135, 134, 119, 120, 136, 135, 120, 121, 137, 136, 121, 122, 138, 137, 122, 123, 139, 138, 123, 124, 140, 139, 124, 125, 141, 140, 125, 126, 142, 141, 126, 127, 143, 142, 127, 112, 128, 143, 159, 158, 157, 156, 155, 154, 153, 152, 151, 150, 149, 148, 147, 146, 145, 144, 160, 161, 162, 163, 164, 165, 166, 167, 168, 169, 170, 171, 172, 173, 174, 175, 144, 145, 161, 160, 145, 146, 162, 161, 146, 147, 163, 162, 147, 148, 164, 163, 148, 149, 165, 164, 149, 150, 166, 165, 150, 151, 167, 166, 151, 152, 168, 167, 152, 153, 169, 168, 153, 154, 170, 169, 154, 155, 171, 170, 155, 156, 172, 171, 156, 157, 173, 172, 157, 158, 174, 173, 158, 159, 175, 174, 159, 144, 160, 175, 191, 190, 189, 188, 187, 186, 185, 184, 183, 182, 181, 180, 179, 178, 177, 176, 192, 193, 194, 195, 196, 197, 198, 199, 200, 201, 202, 203, 204, 205, 206, 207, 176, 177, 193, 192, 177, 178, 194, 193, 178, 179, 195, 194, 179, 180, 196, 195, 180, 181, 197, 196, 181, 182, 198, 197, 182, 183, 199, 198, 183, 184, 200, 199, 184, 185, 201, 200, 185, 186, 202, 201, 186, 187, 203, 202, 187, 188, 204, 203, 188, 189, 205, 204, 189, 190, 206, 205, 190, 191, 207, 206, 191, 176, 192, 207, 223, 222, 221, 220, 219, 218, 217, 216, 215, 214, 213, 212, 211, 210, 209, 208, 224, 225, 226, 227, 228, 229, 230, 231, 232, 233, 234, 235, 236, 237, 238, 239, 208, 209, 225, 224, 209, 210, 226, 225, 210, 211, 227, 226, 211, 212, 228, 227, 212, 213, 229, 228, 213, 214, 230, 229, 214, 215, 231, 230, 215, 216, 232, 231, 216, 217, 233, 232, 217, 218, 234, 233, 218, 219, 235, 234, 219, 220, 236, 235, 220, 221, 237, 236, 221, 222, 238, 237, 222, 223, 239, 238, 223, 208, 224, 239]
            point3f[] points = [(-0.355000, -0.235000, 0.100000), (-0.355000, -0.235000, 0.120000), (-0.355000, 0.235000, 0.100000), (-0.355000, 0.235000, 0.120000), (0.355000, -0.235000, 0.100000), (0.355000, -0.235000, 0.120000), (0.355000, 0.235000, 0.100000), (0.355000, 0.235000, 0.120000), (-0.265000, -0.175000, 0.120000), (-0.265000, -0.175000, 0.840000), (-0.265000, 0.175000, 0.120000), (-0.265000, 0.175000, 0.840000), (0.335000, -0.175000, 0.120000), (0.335000, -0.175000, 0.840000), (0.335000, 0.175000, 0.120000), (0.335000, 0.175000, 0.840000), (-0.325000, 0.210000, 0.120000), (-0.326142, 0.215740, 0.120000), (-0.329393, 0.220607, 0.120000), (-0.334260, 0.223858, 0.120000), (-0.340000, 0.225000, 0.120000), (-0.345740, 0.223858, 0.120000), (-0.350607, 0.220607, 0.120000), (-0.353858, 0.215740, 0.120000), (-0.355000, 0.210000, 0.120000), (-0.353858, 0.204260, 0.120000), (-0.350607, 0.199393, 0.120000), (-0.345740, 0.196142, 0.120000), (-0.340000, 0.195000, 0.120000), (-0.334260, 0.196142, 0.120000), (-0.329393, 0.199393, 0.120000), (-0.326142, 0.204260, 0.120000), (-0.325000, 0.210000, 0.770000), (-0.326142, 0.215740, 0.770000), (-0.329393, 0.220607, 0.770000), (-0.334260, 0.223858, 0.770000), (-0.340000, 0.225000, 0.770000), (-0.345740, 0.223858, 0.770000), (-0.350607, 0.220607, 0.770000), (-0.353858, 0.215740, 0.770000), (-0.355000, 0.210000, 0.770000), (-0.353858, 0.204260, 0.770000), (-0.350607, 0.199393, 0.770000), (-0.345740, 0.196142, 0.770000), (-0.340000, 0.195000, 0.770000), (-0.334260, 0.196142, 0.770000), (-0.329393, 0.199393, 0.770000), (-0.326142, 0.204260, 0.770000), (-0.325000, -0.210000, 0.120000), (-0.326142, -0.204260, 0.120000), (-0.329393, -0.199393, 0.120000), (-0.334260, -0.196142, 0.120000), (-0.340000, -0.195000, 0.120000), (-0.345740, -0.196142, 0.120000), (-0.350607, -0.199393, 0.120000), (-0.353858, -0.204260, 0.120000), (-0.355000, -0.210000, 0.120000), (-0.353858, -0.215740, 0.120000), (-0.350607, -0.220607, 0.120000), (-0.345740, -0.223858, 0.120000), (-0.340000, -0.225000, 0.120000), (-0.334260, -0.223858, 0.120000), (-0.329393, -0.220607, 0.120000), (-0.326142, -0.215740, 0.120000), (-0.325000, -0.210000, 0.770000), (-0.326142, -0.204260, 0.770000), (-0.329393, -0.199393, 0.770000), (-0.334260, -0.196142, 0.770000), (-0.340000, -0.195000, 0.770000), (-0.345740, -0.196142, 0.770000), (-0.350607, -0.199393, 0.770000), (-0.353858, -0.204260, 0.770000), (-0.355000, -0.210000, 0.770000), (-0.353858, -0.215740, 0.770000), (-0.350607, -0.220607, 0.770000), (-0.345740, -0.223858, 0.770000), (-0.340000, -0.225000, 0.770000), (-0.334260, -0.223858, 0.770000), (-0.329393, -0.220607, 0.770000), (-0.326142, -0.215740, 0.770000), (-0.325000, -0.210000, 0.770000), (-0.326142, -0.210000, 0.775740), (-0.329393, -0.210000, 0.780607), (-0.334260, -0.210000, 0.783858), (-0.340000, -0.210000, 0.785000), (-0.345740, -0.210000, 0.783858), (-0.350607, -0.210000, 0.780607), (-0.353858, -0.210000, 0.775740), (-0.355000, -0.210000, 0.770000), (-0.353858, -0.210000, 0.764260), (-0.350607, -0.210000, 0.759393), (-0.345740, -0.210000, 0.756142), (-0.340000, -0.210000, 0.755000), (-0.334260, -0.210000, 0.756142), (-0.329393, -0.210000, 0.759393), (-0.326142, -0.210000, 0.764260), (-0.325000, 0.210000, 0.770000), (-0.326142, 0.210000, 0.775740), (-0.329393, 0.210000, 0.780607), (-0.334260, 0.210000, 0.783858), (-0.340000, 0.210000, 0.785000), (-0.345740, 0.210000, 0.783858), (-0.350607, 0.210000, 0.780607), (-0.353858, 0.210000, 0.775740), (-0.355000, 0.210000, 0.770000), (-0.353858, 0.210000, 0.764260), (-0.350607, 0.210000, 0.759393), (-0.345740, 0.210000, 0.756142), (-0.340000, 0.210000, 0.755000), (-0.334260, 0.210000, 0.756142), (-0.329393, 0.210000, 0.759393), (-0.326142, 0.210000, 0.764260), (0.315000, 0.167000, 0.050000), (0.311194, 0.167000, 0.069134), (0.300355, 0.167000, 0.085355), (0.284134, 0.167000, 0.096194), (0.265000, 0.167000, 0.100000), (0.245866, 0.167000, 0.096194), (0.229645, 0.167000, 0.085355), (0.218806, 0.167000, 0.069134), (0.215000, 0.167000, 0.050000), (0.218806, 0.167000, 0.030866), (0.229645, 0.167000, 0.014645), (0.245866, 0.167000, 0.003806), (0.265000, 0.167000, 0.000000), (0.284134, 0.167000, 0.003806), (0.300355, 0.167000, 0.014645), (0.311194, 0.167000, 0.030866), (0.315000, 0.203000, 0.050000), (0.311194, 0.203000, 0.069134), (0.300355, 0.203000, 0.085355), (0.284134, 0.203000, 0.096194), (0.265000, 0.203000, 0.100000), (0.245866, 0.203000, 0.096194), (0.229645, 0.203000, 0.085355), (0.218806, 0.203000, 0.069134), (0.215000, 0.203000, 0.050000), (0.218806, 0.203000, 0.030866), (0.229645, 0.203000, 0.014645), (0.245866, 0.203000, 0.003806), (0.265000, 0.203000, 0.000000), (0.284134, 0.203000, 0.003806), (0.300355, 0.203000, 0.014645), (0.311194, 0.203000, 0.030866), (0.315000, -0.203000, 0.050000), (0.311194, -0.203000, 0.069134), (0.300355, -0.203000, 0.085355), (0.284134, -0.203000, 0.096194), (0.265000, -0.203000, 0.100000), (0.245866, -0.203000, 0.096194), (0.229645, -0.203000, 0.085355), (0.218806, -0.203000, 0.069134), (0.215000, -0.203000, 0.050000), (0.218806, -0.203000, 0.030866), (0.229645, -0.203000, 0.014645), (0.245866, -0.203000, 0.003806), (0.265000, -0.203000, 0.000000), (0.284134, -0.203000, 0.003806), (0.300355, -0.203000, 0.014645), (0.311194, -0.203000, 0.030866), (0.315000, -0.167000, 0.050000), (0.311194, -0.167000, 0.069134), (0.300355, -0.167000, 0.085355), (0.284134, -0.167000, 0.096194), (0.265000, -0.167000, 0.100000), (0.245866, -0.167000, 0.096194), (0.229645, -0.167000, 0.085355), (0.218806, -0.167000, 0.069134), (0.215000, -0.167000, 0.050000), (0.218806, -0.167000, 0.030866), (0.229645, -0.167000, 0.014645), (0.245866, -0.167000, 0.003806), (0.265000, -0.167000, 0.000000), (0.284134, -0.167000, 0.003806), (0.300355, -0.167000, 0.014645), (0.311194, -0.167000, 0.030866), (-0.215000, 0.167000, 0.050000), (-0.218806, 0.167000, 0.069134), (-0.229645, 0.167000, 0.085355), (-0.245866, 0.167000, 0.096194), (-0.265000, 0.167000, 0.100000), (-0.284134, 0.167000, 0.096194), (-0.300355, 0.167000, 0.085355), (-0.311194, 0.167000, 0.069134), (-0.315000, 0.167000, 0.050000), (-0.311194, 0.167000, 0.030866), (-0.300355, 0.167000, 0.014645), (-0.284134, 0.167000, 0.003806), (-0.265000, 0.167000, 0.000000), (-0.245866, 0.167000, 0.003806), (-0.229645, 0.167000, 0.014645), (-0.218806, 0.167000, 0.030866), (-0.215000, 0.203000, 0.050000), (-0.218806, 0.203000, 0.069134), (-0.229645, 0.203000, 0.085355), (-0.245866, 0.203000, 0.096194), (-0.265000, 0.203000, 0.100000), (-0.284134, 0.203000, 0.096194), (-0.300355, 0.203000, 0.085355), (-0.311194, 0.203000, 0.069134), (-0.315000, 0.203000, 0.050000), (-0.311194, 0.203000, 0.030866), (-0.300355, 0.203000, 0.014645), (-0.284134, 0.203000, 0.003806), (-0.265000, 0.203000, 0.000000), (-0.245866, 0.203000, 0.003806), (-0.229645, 0.203000, 0.014645), (-0.218806, 0.203000, 0.030866), (-0.215000, -0.203000, 0.050000), (-0.218806, -0.203000, 0.069134), (-0.229645, -0.203000, 0.085355), (-0.245866, -0.203000, 0.096194), (-0.265000, -0.203000, 0.100000), (-0.284134, -0.203000, 0.096194), (-0.300355, -0.203000, 0.085355), (-0.311194, -0.203000, 0.069134), (-0.315000, -0.203000, 0.050000), (-0.311194, -0.203000, 0.030866), (-0.300355, -0.203000, 0.014645), (-0.284134, -0.203000, 0.003806), (-0.265000, -0.203000, 0.000000), (-0.245866, -0.203000, 0.003806), (-0.229645, -0.203000, 0.014645), (-0.218806, -0.203000, 0.030866), (-0.215000, -0.167000, 0.050000), (-0.218806, -0.167000, 0.069134), (-0.229645, -0.167000, 0.085355), (-0.245866, -0.167000, 0.096194), (-0.265000, -0.167000, 0.100000), (-0.284134, -0.167000, 0.096194), (-0.300355, -0.167000, 0.085355), (-0.311194, -0.167000, 0.069134), (-0.315000, -0.167000, 0.050000), (-0.311194, -0.167000, 0.030866), (-0.300355, -0.167000, 0.014645), (-0.284134, -0.167000, 0.003806), (-0.265000, -0.167000, 0.000000), (-0.245866, -0.167000, 0.003806), (-0.229645, -0.167000, 0.014645), (-0.218806, -0.167000, 0.030866)]
            color3f[] primvars:displayColor = [(0.62, 0.64, 0.67)]
            uniform token subdivisionScheme = "none"
        }
        def Mesh "collision" (
            prepend apiSchemas = ["PhysicsCollisionAPI", "PhysicsMeshCollisionAPI"]
        )
        {
            int[] faceVertexCounts = [4, 4, 4, 4, 4, 4, 4, 4, 4, 4, 4, 4, 16, 16, 4, 4, 4, 4, 4, 4, 4, 4, 4, 4, 4, 4, 4, 4, 4, 4, 16, 16, 4, 4, 4, 4, 4, 4, 4, 4, 4, 4, 4, 4, 4, 4, 4, 4, 16, 16, 4, 4, 4, 4, 4, 4, 4, 4, 4, 4, 4, 4, 4, 4, 4, 4, 16, 16, 4, 4, 4, 4, 4, 4, 4, 4, 4, 4, 4, 4, 4, 4, 4, 4, 16, 16, 4, 4, 4, 4, 4, 4, 4, 4, 4, 4, 4, 4, 4, 4, 4, 4, 16, 16, 4, 4, 4, 4, 4, 4, 4, 4, 4, 4, 4, 4, 4, 4, 4, 4, 16, 16, 4, 4, 4, 4, 4, 4, 4, 4, 4, 4, 4, 4, 4, 4, 4, 4]
            int[] faceVertexIndices = [0, 1, 3, 2, 4, 6, 7, 5, 0, 4, 5, 1, 2, 3, 7, 6, 0, 2, 6, 4, 1, 5, 7, 3, 8, 9, 11, 10, 12, 14, 15, 13, 8, 12, 13, 9, 10, 11, 15, 14, 8, 10, 14, 12, 9, 13, 15, 11, 31, 30, 29, 28, 27, 26, 25, 24, 23, 22, 21, 20, 19, 18, 17, 16, 32, 33, 34, 35, 36, 37, 38, 39, 40, 41, 42, 43, 44, 45, 46, 47, 16, 17, 33, 32, 17, 18, 34, 33, 18, 19, 35, 34, 19, 20, 36, 35, 20, 21, 37, 36, 21, 22, 38, 37, 22, 23, 39, 38, 23, 24, 40, 39, 24, 25, 41, 40, 25, 26, 42, 41, 26, 27, 43, 42, 27, 28, 44, 43, 28, 29, 45, 44, 29, 30, 46, 45, 30, 31, 47, 46, 31, 16, 32, 47, 63, 62, 61, 60, 59, 58, 57, 56, 55, 54, 53, 52, 51, 50, 49, 48, 64, 65, 66, 67, 68, 69, 70, 71, 72, 73, 74, 75, 76, 77, 78, 79, 48, 49, 65, 64, 49, 50, 66, 65, 50, 51, 67, 66, 51, 52, 68, 67, 52, 53, 69, 68, 53, 54, 70, 69, 54, 55, 71, 70, 55, 56, 72, 71, 56, 57, 73, 72, 57, 58, 74, 73, 58, 59, 75, 74, 59, 60, 76, 75, 60, 61, 77, 76, 61, 62, 78, 77, 62, 63, 79, 78, 63, 48, 64, 79, 95, 94, 93, 92, 91, 90, 89, 88, 87, 86, 85, 84, 83, 82, 81, 80, 96, 97, 98, 99, 100, 101, 102, 103, 104, 105, 106, 107, 108, 109, 110, 111, 80, 81, 97, 96, 81, 82, 98, 97, 82, 83, 99, 98, 83, 84, 100, 99, 84, 85, 101, 100, 85, 86, 102, 101, 86, 87, 103, 102, 87, 88, 104, 103, 88, 89, 105, 104, 89, 90, 106, 105, 90, 91, 107, 106, 91, 92, 108, 107, 92, 93, 109, 108, 93, 94, 110, 109, 94, 95, 111, 110, 95, 80, 96, 111, 127, 126, 125, 124, 123, 122, 121, 120, 119, 118, 117, 116, 115, 114, 113, 112, 128, 129, 130, 131, 132, 133, 134, 135, 136, 137, 138, 139, 140, 141, 142, 143, 112, 113, 129, 128, 113, 114, 130, 129, 114, 115, 131, 130, 115, 116, 132, 131, 116, 117, 133, 132, 117, 118, 134, 133, 118, 119, 135, 134, 119, 120, 136, 135, 120, 121, 137, 136, 121, 122, 138, 137, 122, 123, 139, 138, 123, 124, 140, 139, 124, 125, 141, 140, 125, 126, 142, 141, 126, 127, 143, 142, 127, 112, 128, 143, 159, 158, 157, 156, 155, 154, 153, 152, 151, 150, 149, 148, 147, 146, 145, 144, 160, 161, 162, 163, 164, 165, 166, 167, 168, 169, 170, 171, 172, 173, 174, 175, 144, 145, 161, 160, 145, 146, 162, 161, 146, 147, 163, 162, 147, 148, 164, 163, 148, 149, 165, 164, 149, 150, 166, 165, 150, 151, 167, 166, 151, 152, 168, 167, 152, 153, 169, 168, 153, 154, 170, 169, 154, 155, 171, 170, 155, 156, 172, 171, 156, 157, 173, 172, 157, 158, 174, 173, 158, 159, 175, 174, 159, 144, 160, 175, 191, 190, 189, 188, 187, 186, 185, 184, 183, 182, 181, 180, 179, 178, 177, 176, 192, 193, 194, 195, 196, 197, 198, 199, 200, 201, 202, 203, 204, 205, 206, 207, 176, 177, 193, 192, 177, 178, 194, 193, 178, 179, 195, 194, 179, 180, 196, 195, 180, 181, 197, 196, 181, 182, 198, 197, 182, 183, 199, 198, 183, 184, 200, 199, 184, 185, 201, 200, 185, 186, 202, 201, 186, 187, 203, 202, 187, 188, 204, 203, 188, 189, 205, 204, 189, 190, 206, 205, 190, 191, 207, 206, 191, 176, 192, 207, 223, 222, 221, 220, 219, 218, 217, 216, 215, 214, 213, 212, 211, 210, 209, 208, 224, 225, 226, 227, 228, 229, 230, 231, 232, 233, 234, 235, 236, 237, 238, 239, 208, 209, 225, 224, 209, 210, 226, 225, 210, 211, 227, 226, 211, 212, 228, 227, 212, 213, 229, 228, 213, 214, 230, 229, 214, 215, 231, 230, 215, 216, 232, 231, 216, 217, 233, 232, 217, 218, 234, 233, 218, 219, 235, 234, 219, 220, 236, 235, 220, 221, 237, 236, 221, 222, 238, 237, 222, 223, 239, 238, 223, 208, 224, 239]
            point3f[] points = [(-0.355000, -0.235000, 0.100000), (-0.355000, -0.235000, 0.120000), (-0.355000, 0.235000, 0.100000), (-0.355000, 0.235000, 0.120000), (0.355000, -0.235000, 0.100000), (0.355000, -0.235000, 0.120000), (0.355000, 0.235000, 0.100000), (0.355000, 0.235000, 0.120000), (-0.265000, -0.175000, 0.120000), (-0.265000, -0.175000, 0.840000), (-0.265000, 0.175000, 0.120000), (-0.265000, 0.175000, 0.840000), (0.335000, -0.175000, 0.120000), (0.335000, -0.175000, 0.840000), (0.335000, 0.175000, 0.120000), (0.335000, 0.175000, 0.840000), (-0.325000, 0.210000, 0.120000), (-0.326142, 0.215740, 0.120000), (-0.329393, 0.220607, 0.120000), (-0.334260, 0.223858, 0.120000), (-0.340000, 0.225000, 0.120000), (-0.345740, 0.223858, 0.120000), (-0.350607, 0.220607, 0.120000), (-0.353858, 0.215740, 0.120000), (-0.355000, 0.210000, 0.120000), (-0.353858, 0.204260, 0.120000), (-0.350607, 0.199393, 0.120000), (-0.345740, 0.196142, 0.120000), (-0.340000, 0.195000, 0.120000), (-0.334260, 0.196142, 0.120000), (-0.329393, 0.199393, 0.120000), (-0.326142, 0.204260, 0.120000), (-0.325000, 0.210000, 0.770000), (-0.326142, 0.215740, 0.770000), (-0.329393, 0.220607, 0.770000), (-0.334260, 0.223858, 0.770000), (-0.340000, 0.225000, 0.770000), (-0.345740, 0.223858, 0.770000), (-0.350607, 0.220607, 0.770000), (-0.353858, 0.215740, 0.770000), (-0.355000, 0.210000, 0.770000), (-0.353858, 0.204260, 0.770000), (-0.350607, 0.199393, 0.770000), (-0.345740, 0.196142, 0.770000), (-0.340000, 0.195000, 0.770000), (-0.334260, 0.196142, 0.770000), (-0.329393, 0.199393, 0.770000), (-0.326142, 0.204260, 0.770000), (-0.325000, -0.210000, 0.120000), (-0.326142, -0.204260, 0.120000), (-0.329393, -0.199393, 0.120000), (-0.334260, -0.196142, 0.120000), (-0.340000, -0.195000, 0.120000), (-0.345740, -0.196142, 0.120000), (-0.350607, -0.199393, 0.120000), (-0.353858, -0.204260, 0.120000), (-0.355000, -0.210000, 0.120000), (-0.353858, -0.215740, 0.120000), (-0.350607, -0.220607, 0.120000), (-0.345740, -0.223858, 0.120000), (-0.340000, -0.225000, 0.120000), (-0.334260, -0.223858, 0.120000), (-0.329393, -0.220607, 0.120000), (-0.326142, -0.215740, 0.120000), (-0.325000, -0.210000, 0.770000), (-0.326142, -0.204260, 0.770000), (-0.329393, -0.199393, 0.770000), (-0.334260, -0.196142, 0.770000), (-0.340000, -0.195000, 0.770000), (-0.345740, -0.196142, 0.770000), (-0.350607, -0.199393, 0.770000), (-0.353858, -0.204260, 0.770000), (-0.355000, -0.210000, 0.770000), (-0.353858, -0.215740, 0.770000), (-0.350607, -0.220607, 0.770000), (-0.345740, -0.223858, 0.770000), (-0.340000, -0.225000, 0.770000), (-0.334260, -0.223858, 0.770000), (-0.329393, -0.220607, 0.770000), (-0.326142, -0.215740, 0.770000), (-0.325000, -0.210000, 0.770000), (-0.326142, -0.210000, 0.775740), (-0.329393, -0.210000, 0.780607), (-0.334260, -0.210000, 0.783858), (-0.340000, -0.210000, 0.785000), (-0.345740, -0.210000, 0.783858), (-0.350607, -0.210000, 0.780607), (-0.353858, -0.210000, 0.775740), (-0.355000, -0.210000, 0.770000), (-0.353858, -0.210000, 0.764260), (-0.350607, -0.210000, 0.759393), (-0.345740, -0.210000, 0.756142), (-0.340000, -0.210000, 0.755000), (-0.334260, -0.210000, 0.756142), (-0.329393, -0.210000, 0.759393), (-0.326142, -0.210000, 0.764260), (-0.325000, 0.210000, 0.770000), (-0.326142, 0.210000, 0.775740), (-0.329393, 0.210000, 0.780607), (-0.334260, 0.210000, 0.783858), (-0.340000, 0.210000, 0.785000), (-0.345740, 0.210000, 0.783858), (-0.350607, 0.210000, 0.780607), (-0.353858, 0.210000, 0.775740), (-0.355000, 0.210000, 0.770000), (-0.353858, 0.210000, 0.764260), (-0.350607, 0.210000, 0.759393), (-0.345740, 0.210000, 0.756142), (-0.340000, 0.210000, 0.755000), (-0.334260, 0.210000, 0.756142), (-0.329393, 0.210000, 0.759393), (-0.326142, 0.210000, 0.764260), (0.315000, 0.167000, 0.050000), (0.311194, 0.167000, 0.069134), (0.300355, 0.167000, 0.085355), (0.284134, 0.167000, 0.096194), (0.265000, 0.167000, 0.100000), (0.245866, 0.167000, 0.096194), (0.229645, 0.167000, 0.085355), (0.218806, 0.167000, 0.069134), (0.215000, 0.167000, 0.050000), (0.218806, 0.167000, 0.030866), (0.229645, 0.167000, 0.014645), (0.245866, 0.167000, 0.003806), (0.265000, 0.167000, 0.000000), (0.284134, 0.167000, 0.003806), (0.300355, 0.167000, 0.014645), (0.311194, 0.167000, 0.030866), (0.315000, 0.203000, 0.050000), (0.311194, 0.203000, 0.069134), (0.300355, 0.203000, 0.085355), (0.284134, 0.203000, 0.096194), (0.265000, 0.203000, 0.100000), (0.245866, 0.203000, 0.096194), (0.229645, 0.203000, 0.085355), (0.218806, 0.203000, 0.069134), (0.215000, 0.203000, 0.050000), (0.218806, 0.203000, 0.030866), (0.229645, 0.203000, 0.014645), (0.245866, 0.203000, 0.003806), (0.265000, 0.203000, 0.000000), (0.284134, 0.203000, 0.003806), (0.300355, 0.203000, 0.014645), (0.311194, 0.203000, 0.030866), (0.315000, -0.203000, 0.050000), (0.311194, -0.203000, 0.069134), (0.300355, -0.203000, 0.085355), (0.284134, -0.203000, 0.096194), (0.265000, -0.203000, 0.100000), (0.245866, -0.203000, 0.096194), (0.229645, -0.203000, 0.085355), (0.218806, -0.203000, 0.069134), (0.215000, -0.203000, 0.050000), (0.218806, -0.203000, 0.030866), (0.229645, -0.203000, 0.014645), (0.245866, -0.203000, 0.003806), (0.265000, -0.203000, 0.000000), (0.284134, -0.203000, 0.003806), (0.300355, -0.203000, 0.014645), (0.311194, -0.203000, 0.030866), (0.315000, -0.167000, 0.050000), (0.311194, -0.167000, 0.069134), (0.300355, -0.167000, 0.085355), (0.284134, -0.167000, 0.096194), (0.265000, -0.167000, 0.100000), (0.245866, -0.167000, 0.096194), (0.229645, -0.167000, 0.085355), (0.218806, -0.167000, 0.069134), (0.215000, -0.167000, 0.050000), (0.218806, -0.167000, 0.030866), (0.229645, -0.167000, 0.014645), (0.245866, -0.167000, 0.003806), (0.265000, -0.167000, 0.000000), (0.284134, -0.167000, 0.003806), (0.300355, -0.167000, 0.014645), (0.311194, -0.167000, 0.030866), (-0.215000, 0.167000, 0.050000), (-0.218806, 0.167000, 0.069134), (-0.229645, 0.167000, 0.085355), (-0.245866, 0.167000, 0.096194), (-0.265000, 0.167000, 0.100000), (-0.284134, 0.167000, 0.096194), (-0.300355, 0.167000, 0.085355), (-0.311194, 0.167000, 0.069134), (-0.315000, 0.167000, 0.050000), (-0.311194, 0.167000, 0.030866), (-0.300355, 0.167000, 0.014645), (-0.284134, 0.167000, 0.003806), (-0.265000, 0.167000, 0.000000), (-0.245866, 0.167000, 0.003806), (-0.229645, 0.167000, 0.014645), (-0.218806, 0.167000, 0.030866), (-0.215000, 0.203000, 0.050000), (-0.218806, 0.203000, 0.069134), (-0.229645, 0.203000, 0.085355), (-0.245866, 0.203000, 0.096194), (-0.265000, 0.203000, 0.100000), (-0.284134, 0.203000, 0.096194), (-0.300355, 0.203000, 0.085355), (-0.311194, 0.203000, 0.069134), (-0.315000, 0.203000, 0.050000), (-0.311194, 0.203000, 0.030866), (-0.300355, 0.203000, 0.014645), (-0.284134, 0.203000, 0.003806), (-0.265000, 0.203000, 0.000000), (-0.245866, 0.203000, 0.003806), (-0.229645, 0.203000, 0.014645), (-0.218806, 0.203000, 0.030866), (-0.215000, -0.203000, 0.050000), (-0.218806, -0.203000, 0.069134), (-0.229645, -0.203000, 0.085355), (-0.245866, -0.203000, 0.096194), (-0.265000, -0.203000, 0.100000), (-0.284134, -0.203000, 0.096194), (-0.300355, -0.203000, 0.085355), (-0.311194, -0.203000, 0.069134), (-0.315000, -0.203000, 0.050000), (-0.311194, -0.203000, 0.030866), (-0.300355, -0.203000, 0.014645), (-0.284134, -0.203000, 0.003806), (-0.265000, -0.203000, 0.000000), (-0.245866, -0.203000, 0.003806), (-0.229645, -0.203000, 0.014645), (-0.218806, -0.203000, 0.030866), (-0.215000, -0.167000, 0.050000), (-0.218806, -0.167000, 0.069134), (-0.229645, -0.167000, 0.085355), (-0.245866, -0.167000, 0.096194), (-0.265000, -0.167000, 0.100000), (-0.284134, -0.167000, 0.096194), (-0.300355, -0.167000, 0.085355), (-0.311194, -0.167000, 0.069134), (-0.315000, -0.167000, 0.050000), (-0.311194, -0.167000, 0.030866), (-0.300355, -0.167000, 0.014645), (-0.284134, -0.167000, 0.003806), (-0.265000, -0.167000, 0.000000), (-0.245866, -0.167000, 0.003806), (-0.229645, -0.167000, 0.014645), (-0.218806, -0.167000, 0.030866)]
            uniform token physics:approximation = "convexHull"
            uniform token purpose = "guide"
            uniform token subdivisionScheme = "none"
        }
    }
    def Scope "Looks"
    {
    }
}
