#usda 1.0
(
    defaultPrim = "table_legs_p031"
    metersPerUnit = 1
    upAxis = "Z"
)
def Xform "table_legs_p031"
{
    def Xform "Meshes" (
        prepend apiSchemas = ["PhysicsRigidBodyAPI"]
    )
    {
        def Mesh "visual"
        {
            int[] faceVertexCounts = [4, 4, 4, 4, 4, 4, 4, 4, 4, 4, 4, 4, 4, 4, 4, 4, 4, 4, 4, 4, 4, 4, 4, 4]
            int[] faceVertexIndices = [0, 1, 3, 2, 4, 6, 7, 5, 0, 4, 5, 1, 2, 3, 7, 6, 0, 2, 6, 4, 1, 5, 7, 3, 8, 9, 11, 10, 12, 14, 15, 13, 8, 12, 13, 9, 10, 11, 15, 14, 8, 10, 14, 12, 9, 13, 15, 11, 16, 17, 19, 18, 20, 22, 23, 21, 16, 20, 21, 17, 18, 19, 23, 22, 16, 18, 22, 20, 17, 21, 23, 19, 24, 25, 27, 26, 28, 30, 31, 29, 24, 28, 29, 25, 26, 27, 31, 30, 24, 26, 30, 28, 25, 29, 31, 27]
            point3f[] points = [(0.220000, 0.955000, 0.000000), (0.220000, 0.955000, 0.721000), (0.220000, 0.995000, 0.000000), (0.220000, 0.995000, 0.721000), (0.260000, 0.955000, 0.000000), (0.260000, 0.955000, 0.721000), (0.260000, 0.995000, 0.000000), (0.260000, 0.995000, 0.721000), (0.220000, -0.995000, 0.000000), (0.220000, -0.995000, 0.721000), (0.220000, -0.955000, 0.000000), (0.220000, -0.955000, 0.721000), (0.260000, -0.995000, 0.000000), (0.260000, -0.995000, 0.721000), (0.260000, -0.955000, 0.000000), (0.260000, -0.955000, 0.721000), (-0.260000, 0.955000, 0.000000), (-0.260000, 0.955000, 0.721000), (-0.260000, 0.995000, 0.000000), (-0.260000, 0.995000, 0.721000), (-0.220000, 0.955000, 0.000000), (-0.220000, 0.955000, 0.721000), (-0.220000, 0.995000, 0.000000), (-0.220000, 0.995000, 0.721000), (-0.260000, -0.995000, 0.000000), (-0.260000, -0.995000, 0.721000), (-0.260000, -0.955000, 0.000000), (-0.260000, -0.955000, 0.721000), (-0.220000, -0.995000, 0.000000), (-0.220000, -0.995000, 0.721000), (-0.220000, -0.955000, 0.000000), (-0.220000, -0.955000, 0.721000)]
            color3f[] primvars:displayColor = [(0.35, 0.3, 0.25)]
            uniform token subdivisionScheme = "none"
        }
        def Mesh "collision" (
            prepend apiSchemas = ["PhysicsCollisionAPI", "PhysicsMeshCollisionAPI"]
        )
        {
            int[] faceVertexCounts = [4, 4, 4, 4, 4, 4, 4, 4, 4, 4, 4, 4, 4, 4, 4, 4, 4, 4, 4, 4, 4, 4, 4, 4]
            int[] faceVertexIndices = [0, 1, 3, 2, 4, 6, 7, 5, 0, 4, 5, 1, 2, 3, 7, 6, 0, 2, 6, 4, 1, 5, 7, 3, 8, 9, 11, 10, 12, 14, 15, 13, 8, 12, 13, 9, 10, 11, 15, 14, 8, 10, 14, 12, 9, 13, 15, 11, 16, 17, 19, 18, 20, 22, 23, 21, 16, 20, 21, 17, 18, 19, 23, 22, 16, 18, 22, 20, 17, 21, 23, 19, 24, 25, 27, 26, 28, 30, 31, 29, 24, 28, 29, 25, 26, 27, 31, 30, 24, 26, 30, 28, 25, 29, 31, 27]
            point3f[] points = [(0.220000, 0.955000, 0.000000), (0.220000, 0.955000, 0.721000), (0.220000, 0.995000, 0.000000), (0.220000, 0.995000, 0.721000), (0.260000, 0.955000, 0.000000), (0.260000, 0.955000, 0.721000), (0.260000, 0.995000, 0.000000), (0.260000, 0.995000, 0.721000), (0.220000, -0.995000, 0.000000), (0.220000, -0.995000, 0.721000), (0.220000, -0.955000, 0.000000), (0.220000, -0.955000, 0.721000), (0.260000, -0.995000, 0.000000), (0.260000, -0.995000, 0.721000), (0.260000, -0.955000, 0.000000), (0.260000, -0.955000, 0.721000), (-0.260000, 0.955000, 0.000000), (-0.260000, 0.955000, 0.721000), (-0.260000, 0.995000, 0.000000), (-0.260000, 0.995000, 0.721000), (-0.220000, 0.955000, 0.000000), (-0.220000, 0.955000, 0.721000), (-0.220000, 0.995000, 0.000000), (-0.220000, 0.995000, 0.721000), (-0.260000, -0.995000, 0.000000), (-0.260000, -0.995000, 0.721000), (-0.260000, -0.955000, 0.000000), (-0.260000, -0.955000, 0.721000), (-0.220000, -0.995000, 0.000000), (-0.220000, -0.995000, 0.721000), (-0.220000, -0.955000, 0.000000), (-0.220000, -0.955000, 0.721000)]
            uniform token physics:approximation = "convexHull"
            uniform token purpose = "guide"
            uniform token subdivisionScheme = "none"
        }
    }
    def Scope "Looks"
    {
    }
}
